<svg xmlns="http://www.w3.org/2000/svg" width="174" height="33" fill="none" viewBox="0 0 174 33"><g opacity=".3"><path fill="#C6CFFF" fill-rule="evenodd" d="M10.8211 3.61286C8.15857 6.78592 8.57245 11.5166 11.7455 14.1791C14.9186 16.8416 19.6492 16.4277 22.3117 13.2547C24.9743 10.0816 24.5604 5.35095 21.3873 2.68844C18.2143 0.0259216 13.4836 0.439801 10.8211 3.61286ZM11.2717 3.99097C13.6938 1.10443 17.9728 0.695975 20.8953 3.04606L12.0123 13.6324C9.19039 11.1624 8.8496 6.87752 11.2717 3.99097Z" clip-rule="evenodd"/><path fill="#C6CFFF" fill-rule="evenodd" d="M1.75484 19.7453C-0.907672 22.9184 -0.493793 27.6491 2.67927 30.3116C5.85233 32.9741 10.583 32.5602 13.2455 29.3872C15.908 26.2141 15.4941 21.4834 12.3211 18.8209C9.14802 16.1584 4.41735 16.5723 1.75484 19.7453ZM2.20546 20.1235C4.62755 17.2369 8.90654 16.8285 11.829 19.1785L2.94602 29.7649C0.124149 27.2949 -0.216644 23.01 2.20546 20.1235Z" clip-rule="evenodd"/><path fill="#C6CFFF" fill-rule="evenodd" d="M19.8873 19.7453C17.2248 22.9184 17.6387 27.6491 20.8117 30.3116C23.9848 32.9741 28.7155 32.5602 31.378 29.3872C34.0405 26.2141 33.6266 21.4834 30.4536 18.8209C27.2805 16.1584 22.5498 16.5723 19.8873 19.7453ZM20.3379 20.1235C22.76 17.2369 27.039 16.8285 29.9615 19.1785L21.0785 29.7649C18.2566 27.2949 17.9158 23.01 20.3379 20.1235Z" clip-rule="evenodd"/><path fill="#C6CFFF" d="M39.1728 1.8H39.9168L40.7148 6H39.8868L39.7188 5.07H38.2428L37.7268 6H36.8988L39.1728 1.8ZM39.6408 4.398L39.3708 2.802H39.3588L38.5308 4.398H39.6408ZM41.8817 1.8H42.6977L42.0797 5.31H44.1737L44.0537 6H41.1437L41.8817 1.8ZM45.245 1.8H48.275L48.155 2.49H45.941L45.755 3.552H47.795L47.675 4.23H45.635L45.443 5.31H47.657L47.537 6H44.507L45.245 1.8ZM51.8117 3.768L51.3557 4.158L51.6857 4.608L51.4397 6H50.6237L50.8397 4.758L50.5757 4.392H49.2437L48.9617 6H48.1457L48.8837 1.8H51.4637L52.0337 2.496L51.8117 3.768ZM49.3637 3.72H50.8037L51.0497 3.51L51.1937 2.694L51.0197 2.484H49.5797L49.3637 3.72ZM53.6786 2.49H52.4246L52.5446 1.8H55.8686L55.7426 2.49H54.4946L53.8766 6H53.0606L53.6786 2.49ZM57.9833 1.8H58.7153L60.0893 4.65H60.1013L60.5993 1.8H61.3853L60.6413 6H59.9093L58.5473 3.156H58.5353L58.0313 6H57.2453L57.9833 1.8ZM62.1669 1.8H65.1969L65.0769 2.49H62.8629L62.6769 3.552H64.7169L64.5969 4.23H62.5569L62.3649 5.31H64.5789L64.4589 6H61.4289L62.1669 1.8ZM65.1995 5.232L65.8055 1.8H66.6215L66.0575 4.998L66.3095 5.304H67.4795L67.8395 4.998L68.4035 1.8H69.2195L68.5955 5.34L67.8215 6H65.8355L65.1995 5.232ZM72.9347 3.768L72.4787 4.158L72.8087 4.608L72.5627 6H71.7467L71.9627 4.758L71.6987 4.392H70.3667L70.0847 6H69.2687L70.0067 1.8H72.5867L73.1567 2.496L72.9347 3.768ZM70.4867 3.72H71.9267L72.1727 3.51L72.3167 2.694L72.1427 2.484H70.7027L70.4867 3.72ZM75.2255 1.8H75.9695L76.7675 6H75.9395L75.7715 5.07H74.2955L73.7795 6H72.9515L75.2255 1.8ZM75.6935 4.398L75.4235 2.802H75.4115L74.5835 4.398H75.6935ZM77.9345 1.8H78.7505L78.1325 5.31H80.2265L80.1065 6H77.1965L77.9345 1.8ZM82.2245 5.304L82.3265 4.752H83.1305L83.0645 5.106L83.2265 5.304H84.4625L84.7025 5.1L84.8285 4.404L84.6665 4.206H83.1245L82.5485 3.51L82.7405 2.4L83.4485 1.8H85.3385L85.9205 2.496L85.8245 3.054H85.0205L85.0805 2.694L84.9185 2.496H83.7305L83.4965 2.694L83.3885 3.312L83.5505 3.51H85.0925L85.6685 4.206L85.4525 5.4L84.7505 6H82.8005L82.2245 5.304ZM87.2079 4.284L86.1519 1.8H86.9979L87.6939 3.522H87.7059L89.0139 1.8H89.9559L88.0239 4.284L87.7239 6H86.9079L87.2079 4.284ZM90.3446 1.8H91.0766L92.4506 4.65H92.4626L92.9606 1.8H93.7466L93.0026 6H92.2706L90.9086 3.156H90.8966L90.3926 6H89.6066L90.3446 1.8ZM93.8562 5.256L94.3542 2.442L95.1042 1.8H97.1502L97.7562 2.526L97.6482 3.12H96.8322L96.8922 2.778L96.6642 2.496H95.4642L95.1042 2.802L94.7142 4.998L94.9662 5.304H96.1662L96.4962 5.022L96.5622 4.68H97.3782L97.2522 5.37L96.5142 6H94.4682L93.8562 5.256ZM100.095 1.8H102.729L103.365 2.568L102.867 5.382L102.135 6H99.3566L100.095 1.8ZM101.757 5.304L102.117 4.998L102.507 2.802L102.255 2.496H100.791L100.293 5.304H101.757ZM104.255 1.8H105.071L104.327 6H103.511L104.255 1.8ZM105.176 5.304L105.278 4.752H106.082L106.016 5.106L106.178 5.304H107.414L107.654 5.1L107.78 4.404L107.618 4.206H106.076L105.5 3.51L105.692 2.4L106.4 1.8H108.29L108.872 2.496L108.776 3.054H107.972L108.032 2.694L107.87 2.496H106.682L106.448 2.694L106.34 3.312L106.502 3.51H108.044L108.62 4.206L108.404 5.4L107.702 6H105.752L105.176 5.304ZM112.632 3.768L112.176 4.158L112.506 4.608L112.26 6H111.444L111.66 4.758L111.396 4.392H110.064L109.782 6H108.966L109.704 1.8H112.284L112.854 2.496L112.632 3.768ZM110.184 3.72H111.624L111.87 3.51L112.014 2.694L111.84 2.484H110.4L110.184 3.72ZM113.147 5.232L113.753 1.8H114.569L114.005 4.998L114.257 5.304H115.427L115.787 4.998L116.351 1.8H117.167L116.543 5.34L115.769 6H113.783L113.147 5.232ZM117.954 1.8H120.534L121.104 2.496L120.84 3.984L120.15 4.572H118.284L118.032 6H117.216L117.954 1.8ZM119.844 3.888L120.09 3.678L120.264 2.694L120.09 2.484H118.65L118.404 3.888H119.844ZM122.579 2.49H121.325L121.445 1.8H124.769L124.643 2.49H123.395L122.777 6H121.961L122.579 2.49ZM125.249 1.8H128.279L128.159 2.49H125.945L125.759 3.552H127.799L127.679 4.23H125.639L125.447 5.31H127.661L127.541 6H124.511L125.249 1.8ZM128.888 1.8H131.522L132.158 2.568L131.66 5.382L130.928 6H128.15L128.888 1.8ZM130.55 5.304L130.91 4.998L131.3 2.802L131.048 2.496H129.584L129.086 5.304H130.55ZM134.683 1.8H135.499L134.755 6H133.939L134.683 1.8ZM136.311 1.8H137.043L138.417 4.65H138.429L138.927 1.8H139.713L138.969 6H138.237L136.875 3.156H136.863L136.359 6H135.573L136.311 1.8ZM141.32 5.352L143.978 2.496V2.484H141.884L142.004 1.8H145.076L144.962 2.448L142.304 5.304V5.316H144.458L144.338 6H141.206L141.32 5.352ZM144.921 5.256L145.419 2.442L146.169 1.8H148.329L148.941 2.538L148.437 5.382L147.705 6H145.533L144.921 5.256ZM147.327 5.304L147.687 4.998L148.077 2.802L147.825 2.496H146.535L146.175 2.802L145.779 4.998L146.031 5.304H147.327ZM149.794 1.8H150.526L151.9 4.65H151.912L152.41 1.8H153.196L152.452 6H151.72L150.358 3.156H150.346L149.842 6H149.056L149.794 1.8ZM153.977 1.8H157.007L156.887 2.49H154.673L154.487 3.552H156.527L156.407 4.23H154.367L154.175 5.31H156.389L156.269 6H153.239L153.977 1.8ZM159.251 1.8H162.221L162.101 2.49H159.947L159.743 3.654H161.609L161.489 4.344H159.623L159.329 6H158.513L159.251 1.8ZM162.738 1.8H163.554L162.81 6H161.994L162.738 1.8ZM164.036 1.8H164.84L165.314 5.028H165.326L166.94 1.8H167.816L165.584 6H164.792L164.036 1.8ZM168.268 1.8H171.298L171.178 2.49H168.964L168.778 3.552H170.818L170.698 4.23H168.658L168.466 5.31H170.68L170.56 6H167.53L168.268 1.8ZM38.2188 13.49H39.0648C39.3528 13.49 39.4968 13.342 39.4968 13.046V11.096C39.4968 10.8 39.3528 10.652 39.0648 10.652H38.2188C38.1748 10.652 38.1528 10.672 38.1528 10.712V13.424C38.1528 13.468 38.1748 13.49 38.2188 13.49ZM37.5708 13.898V10.244C37.5708 10.176 37.6048 10.142 37.6728 10.142H39.1488C39.4408 10.142 39.6688 10.224 39.8328 10.388C40.0008 10.548 40.0848 10.776 40.0848 11.072V13.07C40.0848 13.362 40.0008 13.59 39.8328 13.754C39.6688 13.918 39.4408 14 39.1488 14H37.6728C37.6048 14 37.5708 13.966 37.5708 13.898ZM42.9209 14H41.0009C40.9329 14 40.8989 13.966 40.8989 13.898V10.244C40.8989 10.176 40.9329 10.142 41.0009 10.142H42.9209C42.9849 10.142 43.0169 10.176 43.0169 10.244V10.55C43.0169 10.618 42.9849 10.652 42.9209 10.652H41.5529C41.5049 10.652 41.4809 10.672 41.4809 10.712V11.726C41.4809 11.766 41.5049 11.786 41.5529 11.786H42.7109C42.7829 11.786 42.8189 11.82 42.8189 11.888V12.194C42.8189 12.262 42.7829 12.296 42.7109 12.296H41.5529C41.5049 12.296 41.4809 12.316 41.4809 12.356V13.424C41.4809 13.468 41.5049 13.49 41.5529 13.49H42.9209C42.9849 13.49 43.0169 13.524 43.0169 13.592V13.898C43.0169 13.966 42.9849 14 42.9209 14ZM44.2618 14H43.8838C43.8158 14 43.7818 13.966 43.7818 13.898V10.244C43.7818 10.176 43.8158 10.142 43.8838 10.142H45.3118C45.6038 10.142 45.8318 10.224 45.9958 10.388C46.1598 10.548 46.2418 10.776 46.2418 11.072V11.696C46.2418 11.988 46.1598 12.216 45.9958 12.38C45.8318 12.544 45.6038 12.626 45.3118 12.626H44.4358C44.3878 12.626 44.3638 12.646 44.3638 12.686V13.898C44.3638 13.966 44.3298 14 44.2618 14ZM44.4298 12.11H45.2278C45.5118 12.11 45.6538 11.962 45.6538 11.666V11.096C45.6538 10.8 45.5118 10.652 45.2278 10.652H44.4298C44.3858 10.652 44.3638 10.672 44.3638 10.712V12.05C44.3638 12.09 44.3858 12.11 44.4298 12.11ZM48.9977 14H47.0537C46.9857 14 46.9517 13.966 46.9517 13.898V10.244C46.9517 10.176 46.9857 10.142 47.0537 10.142H47.4317C47.4997 10.142 47.5337 10.176 47.5337 10.244V13.418C47.5337 13.458 47.5577 13.478 47.6057 13.478H48.9977C49.0657 13.478 49.0997 13.514 49.0997 13.586V13.898C49.0997 13.966 49.0657 14 48.9977 14ZM50.6068 13.49H51.1288C51.4208 13.49 51.5668 13.342 51.5668 13.046V11.096C51.5668 10.8 51.4208 10.652 51.1288 10.652H50.6068C50.3188 10.652 50.1748 10.8 50.1748 11.096V13.046C50.1748 13.342 50.3188 13.49 50.6068 13.49ZM51.2188 14H50.5228C50.2268 14 49.9968 13.918 49.8328 13.754C49.6728 13.59 49.5928 13.362 49.5928 13.07V11.072C49.5928 10.776 49.6728 10.548 49.8328 10.388C49.9968 10.224 50.2268 10.142 50.5228 10.142H51.2188C51.5148 10.142 51.7448 10.224 51.9088 10.388C52.0728 10.548 52.1548 10.776 52.1548 11.072V13.07C52.1548 13.362 52.0728 13.59 51.9088 13.754C51.7448 13.918 51.5148 14 51.2188 14ZM54.2414 14H53.8574C53.7894 14 53.7554 13.966 53.7554 13.898V12.572L52.6334 10.25C52.6174 10.218 52.6174 10.192 52.6334 10.172C52.6494 10.152 52.6714 10.142 52.6994 10.142H53.1794C53.2314 10.142 53.2714 10.176 53.2994 10.244L54.0374 11.894H54.0734L54.7994 10.244C54.8234 10.176 54.8634 10.142 54.9194 10.142H55.3994C55.4314 10.142 55.4534 10.152 55.4654 10.172C55.4814 10.192 55.4814 10.218 55.4654 10.25L54.3434 12.572V13.898C54.3434 13.966 54.3094 14 54.2414 14ZM56.6223 10.244V13.898C56.6223 13.966 56.5883 14 56.5203 14H56.1423C56.0743 14 56.0403 13.966 56.0403 13.898V10.244C56.0403 10.176 56.0743 10.142 56.1423 10.142H56.5203C56.5883 10.142 56.6223 10.176 56.6223 10.244ZM58.0018 14H57.6298C57.5618 14 57.5278 13.966 57.5278 13.898V10.244C57.5278 10.176 57.5618 10.142 57.6298 10.142H57.9658C58.0298 10.142 58.0738 10.164 58.0978 10.208L59.5498 12.818H59.5738V10.244C59.5738 10.176 59.6078 10.142 59.6758 10.142H60.0478C60.1158 10.142 60.1498 10.176 60.1498 10.244V13.898C60.1498 13.966 60.1158 14 60.0478 14H59.7238C59.6598 14 59.6078 13.968 59.5678 13.904L58.1278 11.324H58.1038V13.898C58.1038 13.966 58.0698 14 58.0018 14ZM62.5379 14H61.8959C61.5999 14 61.3699 13.918 61.2059 13.754C61.0459 13.59 60.9659 13.362 60.9659 13.07V11.072C60.9659 10.776 61.0459 10.548 61.2059 10.388C61.3699 10.224 61.5999 10.142 61.8959 10.142H62.5379C62.8339 10.142 63.0619 10.224 63.2219 10.388C63.3859 10.548 63.4679 10.776 63.4679 11.072V11.288C63.4679 11.36 63.4339 11.396 63.3659 11.396H62.9879C62.9199 11.396 62.8859 11.36 62.8859 11.288V11.096C62.8859 10.8 62.7419 10.652 62.4539 10.652H61.9799C61.6919 10.652 61.5479 10.8 61.5479 11.096V13.046C61.5479 13.342 61.6919 13.49 61.9799 13.49H62.4539C62.7419 13.49 62.8859 13.342 62.8859 13.046V12.506C62.8859 12.466 62.8639 12.446 62.8199 12.446H62.3339C62.2659 12.446 62.2319 12.412 62.2319 12.344V12.038C62.2319 11.97 62.2659 11.936 62.3339 11.936H63.3419C63.4259 11.936 63.4679 11.978 63.4679 12.062V13.07C63.4679 13.362 63.3859 13.59 63.2219 13.754C63.0579 13.918 62.8299 14 62.5379 14ZM67.2794 14H66.5834C66.2874 14 66.0574 13.918 65.8934 13.754C65.7334 13.59 65.6534 13.362 65.6534 13.07V11.072C65.6534 10.776 65.7334 10.548 65.8934 10.388C66.0574 10.224 66.2874 10.142 66.5834 10.142H67.2794C67.5714 10.142 67.7994 10.224 67.9634 10.388C68.1274 10.548 68.2094 10.776 68.2094 11.072V11.36C68.2094 11.432 68.1734 11.468 68.1014 11.468H67.7234C67.6554 11.468 67.6214 11.432 67.6214 11.36V11.096C67.6214 10.8 67.4774 10.652 67.1894 10.652H66.6674C66.3794 10.652 66.2354 10.8 66.2354 11.096V13.046C66.2354 13.342 66.3794 13.49 66.6674 13.49H67.1894C67.4774 13.49 67.6214 13.342 67.6214 13.046V12.782C67.6214 12.71 67.6554 12.674 67.7234 12.674H68.1014C68.1734 12.674 68.2094 12.71 68.2094 12.782V13.07C68.2094 13.362 68.1274 13.59 67.9634 13.754C67.7994 13.918 67.5714 14 67.2794 14ZM69.9076 13.49H70.4296C70.7216 13.49 70.8676 13.342 70.8676 13.046V11.096C70.8676 10.8 70.7216 10.652 70.4296 10.652H69.9076C69.6196 10.652 69.4756 10.8 69.4756 11.096V13.046C69.4756 13.342 69.6196 13.49 69.9076 13.49ZM70.5196 14H69.8236C69.5276 14 69.2976 13.918 69.1336 13.754C68.9736 13.59 68.8936 13.362 68.8936 13.07V11.072C68.8936 10.776 68.9736 10.548 69.1336 10.388C69.2976 10.224 69.5276 10.142 69.8236 10.142H70.5196C70.8156 10.142 71.0456 10.224 71.2096 10.388C71.3736 10.548 71.4556 10.776 71.4556 11.072V13.07C71.4556 13.362 71.3736 13.59 71.2096 13.754C71.0456 13.918 70.8156 14 70.5196 14ZM74.9042 10.142H75.5762C75.6442 10.142 75.6782 10.176 75.6782 10.244V13.898C75.6782 13.966 75.6442 14 75.5762 14H75.2042C75.1362 14 75.1022 13.966 75.1022 13.898V10.868H75.0782L74.2982 13.064C74.2742 13.128 74.2302 13.16 74.1662 13.16H73.7822C73.7222 13.16 73.6802 13.128 73.6562 13.064L72.8582 10.862H72.8342V13.898C72.8342 13.938 72.8262 13.966 72.8102 13.982C72.7982 13.994 72.7722 14 72.7322 14H72.3662C72.2982 14 72.2642 13.966 72.2642 13.898V10.244C72.2642 10.176 72.2982 10.142 72.3662 10.142H73.0382C73.0822 10.142 73.1142 10.164 73.1342 10.208L73.9562 12.524H73.9862L74.8142 10.208C74.8222 10.164 74.8522 10.142 74.9042 10.142ZM77.2012 13.502H78.0412C78.3412 13.502 78.4912 13.358 78.4912 13.07V12.698C78.4912 12.41 78.3332 12.266 78.0172 12.266H77.2012C77.1572 12.266 77.1352 12.286 77.1352 12.326V13.442C77.1352 13.482 77.1572 13.502 77.2012 13.502ZM77.2012 11.786H77.9812C78.2852 11.786 78.4372 11.64 78.4372 11.348V11.072C78.4372 10.784 78.2892 10.64 77.9932 10.64H77.2012C77.1572 10.64 77.1352 10.66 77.1352 10.7V11.726C77.1352 11.766 77.1572 11.786 77.2012 11.786ZM76.5532 13.898V10.244C76.5532 10.176 76.5872 10.142 76.6552 10.142H78.0772C78.3732 10.142 78.6032 10.222 78.7672 10.382C78.9312 10.542 79.0132 10.768 79.0132 11.06V11.354C79.0132 11.702 78.8492 11.926 78.5212 12.026C78.6772 12.046 78.8052 12.114 78.9052 12.23C79.0092 12.346 79.0612 12.502 79.0612 12.698V13.082C79.0612 13.374 78.9792 13.6 78.8152 13.76C78.6512 13.92 78.4232 14 78.1312 14H76.6552C76.5872 14 76.5532 13.966 76.5532 13.898ZM80.0738 14H79.6418C79.5858 14 79.5658 13.966 79.5818 13.898L80.6258 10.244C80.6458 10.176 80.6938 10.142 80.7698 10.142H81.3698C81.4498 10.142 81.4978 10.176 81.5138 10.244L82.5578 13.898C82.5738 13.966 82.5518 14 82.4918 14H82.0658C82.0298 14 82.0038 13.994 81.9878 13.982C81.9758 13.966 81.9658 13.938 81.9578 13.898L81.7298 13.118H80.4098L80.1818 13.898C80.1658 13.966 80.1298 14 80.0738 14ZM81.0578 10.718L80.5298 12.638H81.6158L81.0818 10.718H81.0578ZM84.2069 14H83.8289C83.7569 14 83.7209 13.966 83.7209 13.898V10.712C83.7209 10.672 83.7009 10.652 83.6609 10.652H82.9049C82.8329 10.652 82.7969 10.618 82.7969 10.55V10.244C82.7969 10.176 82.8329 10.142 82.9049 10.142H85.1309C85.2029 10.142 85.2389 10.176 85.2389 10.244V10.55C85.2389 10.618 85.2029 10.652 85.1309 10.652H84.3749C84.3309 10.652 84.3089 10.672 84.3089 10.712V13.898C84.3089 13.966 84.2749 14 84.2069 14ZM87.8301 13.49H88.6761C88.9641 13.49 89.1081 13.342 89.1081 13.046V11.096C89.1081 10.8 88.9641 10.652 88.6761 10.652H87.8301C87.7861 10.652 87.7641 10.672 87.7641 10.712V13.424C87.7641 13.468 87.7861 13.49 87.8301 13.49ZM87.1821 13.898V10.244C87.1821 10.176 87.2161 10.142 87.2841 10.142H88.7601C89.0521 10.142 89.2801 10.224 89.4441 10.388C89.6121 10.548 89.6961 10.776 89.6961 11.072V13.07C89.6961 13.362 89.6121 13.59 89.4441 13.754C89.2801 13.918 89.0521 14 88.7601 14H87.2841C87.2161 14 87.1821 13.966 87.1821 13.898ZM90.9903 14H90.6123C90.5443 14 90.5103 13.966 90.5103 13.898V10.244C90.5103 10.176 90.5443 10.142 90.6123 10.142H92.0163C92.3083 10.142 92.5363 10.226 92.7003 10.394C92.8683 10.558 92.9523 10.786 92.9523 11.078V11.582C92.9523 12.042 92.7623 12.332 92.3823 12.452V12.476L93.0483 13.88C93.0923 13.96 93.0663 14 92.9703 14H92.5983C92.5023 14 92.4403 13.966 92.4123 13.898L91.7703 12.518H91.1643C91.1163 12.518 91.0923 12.538 91.0923 12.578V13.898C91.0923 13.966 91.0583 14 90.9903 14ZM91.1583 12.038H91.9203C92.2163 12.038 92.3643 11.892 92.3643 11.6V11.096C92.3643 10.8 92.2163 10.652 91.9203 10.652H91.1583C91.1143 10.652 91.0923 10.672 91.0923 10.712V11.978C91.0923 12.018 91.1143 12.038 91.1583 12.038ZM94.7162 13.49H95.2382C95.5302 13.49 95.6762 13.342 95.6762 13.046V11.096C95.6762 10.8 95.5302 10.652 95.2382 10.652H94.7162C94.4282 10.652 94.2842 10.8 94.2842 11.096V13.046C94.2842 13.342 94.4282 13.49 94.7162 13.49ZM95.3282 14H94.6322C94.3362 14 94.1062 13.918 93.9422 13.754C93.7822 13.59 93.7022 13.362 93.7022 13.07V11.072C93.7022 10.776 93.7822 10.548 93.9422 10.388C94.1062 10.224 94.3362 10.142 94.6322 10.142H95.3282C95.6242 10.142 95.8542 10.224 96.0182 10.388C96.1822 10.548 96.2642 10.776 96.2642 11.072V13.07C96.2642 13.362 96.1822 13.59 96.0182 13.754C95.8542 13.918 95.6242 14 95.3282 14ZM97.5468 14H97.1748C97.1068 14 97.0728 13.966 97.0728 13.898V10.244C97.0728 10.176 97.1068 10.142 97.1748 10.142H97.5108C97.5748 10.142 97.6188 10.164 97.6428 10.208L99.0948 12.818H99.1188V10.244C99.1188 10.176 99.1528 10.142 99.2208 10.142H99.5928C99.6608 10.142 99.6948 10.176 99.6948 10.244V13.898C99.6948 13.966 99.6608 14 99.5928 14H99.2688C99.2048 14 99.1528 13.968 99.1128 13.904L97.6728 11.324H97.6488V13.898C97.6488 13.966 97.6148 14 97.5468 14ZM102.593 14H100.673C100.605 14 100.571 13.966 100.571 13.898V10.244C100.571 10.176 100.605 10.142 100.673 10.142H102.593C102.657 10.142 102.689 10.176 102.689 10.244V10.55C102.689 10.618 102.657 10.652 102.593 10.652H101.225C101.177 10.652 101.153 10.672 101.153 10.712V11.726C101.153 11.766 101.177 11.786 101.225 11.786H102.383C102.455 11.786 102.491 11.82 102.491 11.888V12.194C102.491 12.262 102.455 12.296 102.383 12.296H101.225C101.177 12.296 101.153 12.316 101.153 12.356V13.424C101.153 13.468 101.177 13.49 101.225 13.49H102.593C102.657 13.49 102.689 13.524 102.689 13.592V13.898C102.689 13.966 102.657 14 102.593 14ZM103.382 13.064V12.908C103.382 12.84 103.416 12.806 103.484 12.806H103.868C103.936 12.806 103.97 12.84 103.97 12.908V13.016C103.97 13.184 104.006 13.306 104.078 13.382C104.154 13.454 104.278 13.49 104.45 13.49H104.864C105.036 13.49 105.16 13.452 105.236 13.376C105.312 13.296 105.35 13.168 105.35 12.992V12.854C105.35 12.726 105.3 12.626 105.2 12.554C105.104 12.478 104.984 12.43 104.84 12.41C104.696 12.386 104.538 12.354 104.366 12.314C104.194 12.274 104.036 12.228 103.892 12.176C103.748 12.124 103.626 12.026 103.526 11.882C103.43 11.738 103.382 11.554 103.382 11.33V11.078C103.382 10.786 103.464 10.558 103.628 10.394C103.796 10.226 104.026 10.142 104.318 10.142H104.954C105.25 10.142 105.48 10.226 105.644 10.394C105.812 10.558 105.896 10.786 105.896 11.078V11.21C105.896 11.278 105.862 11.312 105.794 11.312H105.41C105.342 11.312 105.308 11.278 105.308 11.21V11.132C105.308 10.96 105.27 10.838 105.194 10.766C105.122 10.69 105 10.652 104.828 10.652H104.45C104.278 10.652 104.154 10.692 104.078 10.772C104.006 10.848 103.97 10.98 103.97 11.168V11.354C103.97 11.534 104.1 11.656 104.36 11.72C104.476 11.748 104.602 11.772 104.738 11.792C104.878 11.812 105.018 11.842 105.158 11.882C105.298 11.922 105.426 11.976 105.542 12.044C105.658 12.108 105.752 12.208 105.824 12.344C105.896 12.476 105.932 12.638 105.932 12.83V13.064C105.932 13.356 105.848 13.586 105.68 13.754C105.516 13.918 105.288 14 104.996 14H104.324C104.032 14 103.802 13.918 103.634 13.754C103.466 13.586 103.382 13.356 103.382 13.064ZM108.65 14H108.272C108.204 14 108.17 13.966 108.17 13.898V10.244C108.17 10.176 108.204 10.142 108.272 10.142H109.7C109.992 10.142 110.22 10.224 110.384 10.388C110.548 10.548 110.63 10.776 110.63 11.072V11.696C110.63 11.988 110.548 12.216 110.384 12.38C110.22 12.544 109.992 12.626 109.7 12.626H108.824C108.776 12.626 108.752 12.646 108.752 12.686V13.898C108.752 13.966 108.718 14 108.65 14ZM108.818 12.11H109.616C109.9 12.11 110.042 11.962 110.042 11.666V11.096C110.042 10.8 109.9 10.652 109.616 10.652H108.818C108.774 10.652 108.752 10.672 108.752 10.712V12.05C108.752 12.09 108.774 12.11 108.818 12.11ZM111.82 14H111.442C111.374 14 111.34 13.966 111.34 13.898V10.244C111.34 10.176 111.374 10.142 111.442 10.142H112.846C113.138 10.142 113.366 10.226 113.53 10.394C113.698 10.558 113.782 10.786 113.782 11.078V11.582C113.782 12.042 113.592 12.332 113.212 12.452V12.476L113.878 13.88C113.922 13.96 113.896 14 113.8 14H113.428C113.332 14 113.27 13.966 113.242 13.898L112.6 12.518H111.994C111.946 12.518 111.922 12.538 111.922 12.578V13.898C111.922 13.966 111.888 14 111.82 14ZM111.988 12.038H112.75C113.046 12.038 113.194 11.892 113.194 11.6V11.096C113.194 10.8 113.046 10.652 112.75 10.652H111.988C111.944 10.652 111.922 10.672 111.922 10.712V11.978C111.922 12.018 111.944 12.038 111.988 12.038ZM115.546 13.49H116.068C116.36 13.49 116.506 13.342 116.506 13.046V11.096C116.506 10.8 116.36 10.652 116.068 10.652H115.546C115.258 10.652 115.114 10.8 115.114 11.096V13.046C115.114 13.342 115.258 13.49 115.546 13.49ZM116.158 14H115.462C115.166 14 114.936 13.918 114.772 13.754C114.612 13.59 114.532 13.362 114.532 13.07V11.072C114.532 10.776 114.612 10.548 114.772 10.388C114.936 10.224 115.166 10.142 115.462 10.142H116.158C116.454 10.142 116.684 10.224 116.848 10.388C117.012 10.548 117.094 10.776 117.094 11.072V13.07C117.094 13.362 117.012 13.59 116.848 13.754C116.684 13.918 116.454 14 116.158 14ZM119.469 14H118.773C118.477 14 118.247 13.918 118.083 13.754C117.923 13.59 117.843 13.362 117.843 13.07V11.072C117.843 10.776 117.923 10.548 118.083 10.388C118.247 10.224 118.477 10.142 118.773 10.142H119.469C119.761 10.142 119.989 10.224 120.153 10.388C120.317 10.548 120.399 10.776 120.399 11.072V11.36C120.399 11.432 120.363 11.468 120.291 11.468H119.913C119.845 11.468 119.811 11.432 119.811 11.36V11.096C119.811 10.8 119.667 10.652 119.379 10.652H118.857C118.569 10.652 118.425 10.8 118.425 11.096V13.046C118.425 13.342 118.569 13.49 118.857 13.49H119.379C119.667 13.49 119.811 13.342 119.811 13.046V12.782C119.811 12.71 119.845 12.674 119.913 12.674H120.291C120.363 12.674 120.399 12.71 120.399 12.782V13.07C120.399 13.362 120.317 13.59 120.153 13.754C119.989 13.918 119.761 14 119.469 14ZM123.165 14H121.245C121.177 14 121.143 13.966 121.143 13.898V10.244C121.143 10.176 121.177 10.142 121.245 10.142H123.165C123.229 10.142 123.261 10.176 123.261 10.244V10.55C123.261 10.618 123.229 10.652 123.165 10.652H121.797C121.749 10.652 121.725 10.672 121.725 10.712V11.726C121.725 11.766 121.749 11.786 121.797 11.786H122.955C123.027 11.786 123.063 11.82 123.063 11.888V12.194C123.063 12.262 123.027 12.296 122.955 12.296H121.797C121.749 12.296 121.725 12.316 121.725 12.356V13.424C121.725 13.468 121.749 13.49 121.797 13.49H123.165C123.229 13.49 123.261 13.524 123.261 13.592V13.898C123.261 13.966 123.229 14 123.165 14ZM126.048 14H124.128C124.06 14 124.026 13.966 124.026 13.898V10.244C124.026 10.176 124.06 10.142 124.128 10.142H126.048C126.112 10.142 126.144 10.176 126.144 10.244V10.55C126.144 10.618 126.112 10.652 126.048 10.652H124.68C124.632 10.652 124.608 10.672 124.608 10.712V11.726C124.608 11.766 124.632 11.786 124.68 11.786H125.838C125.91 11.786 125.946 11.82 125.946 11.888V12.194C125.946 12.262 125.91 12.296 125.838 12.296H124.68C124.632 12.296 124.608 12.316 124.608 12.356V13.424C124.608 13.468 124.632 13.49 124.68 13.49H126.048C126.112 13.49 126.144 13.524 126.144 13.592V13.898C126.144 13.966 126.112 14 126.048 14ZM127.557 13.49H128.403C128.691 13.49 128.835 13.342 128.835 13.046V11.096C128.835 10.8 128.691 10.652 128.403 10.652H127.557C127.513 10.652 127.491 10.672 127.491 10.712V13.424C127.491 13.468 127.513 13.49 127.557 13.49ZM126.909 13.898V10.244C126.909 10.176 126.943 10.142 127.011 10.142H128.487C128.779 10.142 129.007 10.224 129.171 10.388C129.339 10.548 129.423 10.776 129.423 11.072V13.07C129.423 13.362 129.339 13.59 129.171 13.754C129.007 13.918 128.779 14 128.487 14H127.011C126.943 14 126.909 13.966 126.909 13.898ZM132.831 14H132.195C132.123 14 132.081 13.966 132.069 13.898L131.355 10.244C131.347 10.176 131.381 10.142 131.457 10.142H131.919C131.995 10.142 132.035 10.176 132.039 10.244L132.525 13.388H132.561L133.269 10.232C133.277 10.172 133.313 10.142 133.377 10.142H133.881C133.945 10.142 133.983 10.172 133.995 10.232L134.709 13.388H134.745L135.231 10.25C135.235 10.178 135.275 10.142 135.351 10.142H135.813C135.893 10.142 135.927 10.178 135.915 10.25L135.201 13.898C135.189 13.966 135.149 14 135.081 14H134.445C134.377 14 134.337 13.966 134.325 13.898L133.647 10.862H133.623L132.945 13.898C132.933 13.966 132.895 14 132.831 14ZM137.089 10.244V13.898C137.089 13.966 137.055 14 136.987 14H136.609C136.541 14 136.507 13.966 136.507 13.898V10.244C136.507 10.176 136.541 10.142 136.609 10.142H136.987C137.055 10.142 137.089 10.176 137.089 10.244ZM139.051 14H138.673C138.601 14 138.565 13.966 138.565 13.898V10.712C138.565 10.672 138.545 10.652 138.505 10.652H137.749C137.677 10.652 137.641 10.618 137.641 10.55V10.244C137.641 10.176 137.677 10.142 137.749 10.142H139.975C140.047 10.142 140.083 10.176 140.083 10.244V10.55C140.083 10.618 140.047 10.652 139.975 10.652H139.219C139.175 10.652 139.153 10.672 139.153 10.712V13.898C139.153 13.966 139.119 14 139.051 14ZM141.076 14H140.698C140.63 14 140.596 13.966 140.596 13.898V10.244C140.596 10.176 140.63 10.142 140.698 10.142H141.076C141.144 10.142 141.178 10.176 141.178 10.244V11.744C141.178 11.784 141.202 11.804 141.25 11.804H142.516C142.556 11.804 142.576 11.784 142.576 11.744V10.244C142.576 10.176 142.61 10.142 142.678 10.142H143.062C143.13 10.142 143.164 10.176 143.164 10.244V13.898C143.164 13.966 143.13 14 143.062 14H142.678C142.61 14 142.576 13.966 142.576 13.898V12.38C142.576 12.34 142.556 12.32 142.516 12.32H141.25C141.202 12.32 141.178 12.34 141.178 12.38V13.898C141.178 13.966 141.144 14 141.076 14ZM147.037 14H146.341C146.045 14 145.815 13.918 145.651 13.754C145.491 13.59 145.411 13.362 145.411 13.07V11.072C145.411 10.776 145.491 10.548 145.651 10.388C145.815 10.224 146.045 10.142 146.341 10.142H147.037C147.329 10.142 147.557 10.224 147.721 10.388C147.885 10.548 147.967 10.776 147.967 11.072V11.36C147.967 11.432 147.931 11.468 147.859 11.468H147.481C147.413 11.468 147.379 11.432 147.379 11.36V11.096C147.379 10.8 147.235 10.652 146.947 10.652H146.425C146.137 10.652 145.993 10.8 145.993 11.096V13.046C145.993 13.342 146.137 13.49 146.425 13.49H146.947C147.235 13.49 147.379 13.342 147.379 13.046V12.782C147.379 12.71 147.413 12.674 147.481 12.674H147.859C147.931 12.674 147.967 12.71 147.967 12.782V13.07C147.967 13.362 147.885 13.59 147.721 13.754C147.557 13.918 147.329 14 147.037 14ZM148.921 14H148.489C148.433 14 148.413 13.966 148.429 13.898L149.473 10.244C149.493 10.176 149.541 10.142 149.617 10.142H150.217C150.297 10.142 150.345 10.176 150.361 10.244L151.405 13.898C151.421 13.966 151.399 14 151.339 14H150.913C150.877 14 150.851 13.994 150.835 13.982C150.823 13.966 150.813 13.938 150.805 13.898L150.577 13.118H149.257L149.029 13.898C149.013 13.966 148.977 14 148.921 14ZM149.905 10.718L149.377 12.638H150.463L149.929 10.718H149.905ZM154.015 10.142H154.393C154.465 10.142 154.501 10.174 154.501 10.238V13.07C154.501 13.362 154.417 13.59 154.249 13.754C154.085 13.918 153.857 14 153.565 14H152.899C152.607 14 152.379 13.918 152.215 13.754C152.051 13.59 151.969 13.362 151.969 13.07V10.244C151.969 10.176 152.003 10.142 152.071 10.142H152.449C152.517 10.142 152.551 10.176 152.551 10.244V13.046C152.551 13.342 152.695 13.49 152.983 13.49H153.475C153.767 13.49 153.913 13.342 153.913 13.046V10.244C153.913 10.176 153.947 10.142 154.015 10.142ZM156.394 14H156.016C155.944 14 155.908 13.966 155.908 13.898V10.712C155.908 10.672 155.888 10.652 155.848 10.652H155.092C155.02 10.652 154.984 10.618 154.984 10.55V10.244C154.984 10.176 155.02 10.142 155.092 10.142H157.318C157.39 10.142 157.426 10.176 157.426 10.244V10.55C157.426 10.618 157.39 10.652 157.318 10.652H156.562C156.518 10.652 156.496 10.672 156.496 10.712V13.898C156.496 13.966 156.462 14 156.394 14ZM158.552 10.244V13.898C158.552 13.966 158.518 14 158.45 14H158.072C158.004 14 157.97 13.966 157.97 13.898V10.244C157.97 10.176 158.004 10.142 158.072 10.142H158.45C158.518 10.142 158.552 10.176 158.552 10.244ZM160.412 13.49H160.934C161.226 13.49 161.372 13.342 161.372 13.046V11.096C161.372 10.8 161.226 10.652 160.934 10.652H160.412C160.124 10.652 159.98 10.8 159.98 11.096V13.046C159.98 13.342 160.124 13.49 160.412 13.49ZM161.024 14H160.328C160.032 14 159.802 13.918 159.638 13.754C159.478 13.59 159.398 13.362 159.398 13.07V11.072C159.398 10.776 159.478 10.548 159.638 10.388C159.802 10.224 160.032 10.142 160.328 10.142H161.024C161.32 10.142 161.55 10.224 161.714 10.388C161.878 10.548 161.96 10.776 161.96 11.072V13.07C161.96 13.362 161.878 13.59 161.714 13.754C161.55 13.918 161.32 14 161.024 14ZM163.242 14H162.87C162.802 14 162.768 13.966 162.768 13.898V10.244C162.768 10.176 162.802 10.142 162.87 10.142H163.206C163.27 10.142 163.314 10.164 163.338 10.208L164.79 12.818H164.814V10.244C164.814 10.176 164.848 10.142 164.916 10.142H165.288C165.356 10.142 165.39 10.176 165.39 10.244V13.898C165.39 13.966 165.356 14 165.288 14H164.964C164.9 14 164.848 13.968 164.808 13.904L163.368 11.324H163.344V13.898C163.344 13.966 163.31 14 163.242 14ZM38.0508 22H37.6728C37.6048 22 37.5708 21.966 37.5708 21.898V18.244C37.5708 18.176 37.6048 18.142 37.6728 18.142H39.0768C39.3688 18.142 39.5968 18.226 39.7608 18.394C39.9288 18.558 40.0128 18.786 40.0128 19.078V19.582C40.0128 20.042 39.8228 20.332 39.4428 20.452V20.476L40.1088 21.88C40.1528 21.96 40.1268 22 40.0308 22H39.6588C39.5628 22 39.5008 21.966 39.4728 21.898L38.8308 20.518H38.2248C38.1768 20.518 38.1528 20.538 38.1528 20.578V21.898C38.1528 21.966 38.1188 22 38.0508 22ZM38.2188 20.038H38.9808C39.2768 20.038 39.4248 19.892 39.4248 19.6V19.096C39.4248 18.8 39.2768 18.652 38.9808 18.652H38.2188C38.1748 18.652 38.1528 18.672 38.1528 18.712V19.978C38.1528 20.018 38.1748 20.038 38.2188 20.038ZM42.8448 22H40.9248C40.8568 22 40.8228 21.966 40.8228 21.898V18.244C40.8228 18.176 40.8568 18.142 40.9248 18.142H42.8448C42.9088 18.142 42.9408 18.176 42.9408 18.244V18.55C42.9408 18.618 42.9088 18.652 42.8448 18.652H41.4768C41.4288 18.652 41.4048 18.672 41.4048 18.712V19.726C41.4048 19.766 41.4288 19.786 41.4768 19.786H42.6348C42.7068 19.786 42.7428 19.82 42.7428 19.888V20.194C42.7428 20.262 42.7068 20.296 42.6348 20.296H41.4768C41.4288 20.296 41.4048 20.316 41.4048 20.356V21.424C41.4048 21.468 41.4288 21.49 41.4768 21.49H42.8448C42.9088 21.49 42.9408 21.524 42.9408 21.592V21.898C42.9408 21.966 42.9088 22 42.8448 22ZM46.3456 18.142H47.0176C47.0856 18.142 47.1196 18.176 47.1196 18.244V21.898C47.1196 21.966 47.0856 22 47.0176 22H46.6456C46.5776 22 46.5436 21.966 46.5436 21.898V18.868H46.5196L45.7396 21.064C45.7156 21.128 45.6716 21.16 45.6076 21.16H45.2236C45.1636 21.16 45.1216 21.128 45.0976 21.064L44.2996 18.862H44.2756V21.898C44.2756 21.938 44.2676 21.966 44.2516 21.982C44.2396 21.994 44.2136 22 44.1736 22H43.8076C43.7396 22 43.7056 21.966 43.7056 21.898V18.244C43.7056 18.176 43.7396 18.142 43.8076 18.142H44.4796C44.5236 18.142 44.5556 18.164 44.5756 18.208L45.3976 20.524H45.4276L46.2556 18.208C46.2636 18.164 46.2936 18.142 46.3456 18.142ZM50.0166 22H48.0966C48.0286 22 47.9946 21.966 47.9946 21.898V18.244C47.9946 18.176 48.0286 18.142 48.0966 18.142H50.0166C50.0806 18.142 50.1126 18.176 50.1126 18.244V18.55C50.1126 18.618 50.0806 18.652 50.0166 18.652H48.6486C48.6006 18.652 48.5766 18.672 48.5766 18.712V19.726C48.5766 19.766 48.6006 19.786 48.6486 19.786H49.8066C49.8786 19.786 49.9146 19.82 49.9146 19.888V20.194C49.9146 20.262 49.8786 20.296 49.8066 20.296H48.6486C48.6006 20.296 48.5766 20.316 48.5766 20.356V21.424C48.5766 21.468 48.6006 21.49 48.6486 21.49H50.0166C50.0806 21.49 50.1126 21.524 50.1126 21.592V21.898C50.1126 21.966 50.0806 22 50.0166 22ZM53.5175 18.142H54.1895C54.2575 18.142 54.2915 18.176 54.2915 18.244V21.898C54.2915 21.966 54.2575 22 54.1895 22H53.8175C53.7495 22 53.7155 21.966 53.7155 21.898V18.868H53.6915L52.9115 21.064C52.8875 21.128 52.8435 21.16 52.7795 21.16H52.3955C52.3355 21.16 52.2935 21.128 52.2695 21.064L51.4715 18.862H51.4475V21.898C51.4475 21.938 51.4395 21.966 51.4235 21.982C51.4115 21.994 51.3855 22 51.3455 22H50.9795C50.9115 22 50.8775 21.966 50.8775 21.898V18.244C50.8775 18.176 50.9115 18.142 50.9795 18.142H51.6515C51.6955 18.142 51.7275 18.164 51.7475 18.208L52.5695 20.524H52.5995L53.4275 18.208C53.4355 18.164 53.4655 18.142 53.5175 18.142ZM55.8145 21.502H56.6545C56.9545 21.502 57.1045 21.358 57.1045 21.07V20.698C57.1045 20.41 56.9465 20.266 56.6305 20.266H55.8145C55.7705 20.266 55.7485 20.286 55.7485 20.326V21.442C55.7485 21.482 55.7705 21.502 55.8145 21.502ZM55.8145 19.786H56.5945C56.8985 19.786 57.0505 19.64 57.0505 19.348V19.072C57.0505 18.784 56.9025 18.64 56.6065 18.64H55.8145C55.7705 18.64 55.7485 18.66 55.7485 18.7V19.726C55.7485 19.766 55.7705 19.786 55.8145 19.786ZM55.1665 21.898V18.244C55.1665 18.176 55.2005 18.142 55.2685 18.142H56.6905C56.9865 18.142 57.2165 18.222 57.3805 18.382C57.5445 18.542 57.6265 18.768 57.6265 19.06V19.354C57.6265 19.702 57.4625 19.926 57.1345 20.026C57.2905 20.046 57.4185 20.114 57.5185 20.23C57.6225 20.346 57.6745 20.502 57.6745 20.698V21.082C57.6745 21.374 57.5925 21.6 57.4285 21.76C57.2645 21.92 57.0365 22 56.7445 22H55.2685C55.2005 22 55.1665 21.966 55.1665 21.898ZM60.4991 22H58.5791C58.5111 22 58.4771 21.966 58.4771 21.898V18.244C58.4771 18.176 58.5111 18.142 58.5791 18.142H60.4991C60.5631 18.142 60.5951 18.176 60.5951 18.244V18.55C60.5951 18.618 60.5631 18.652 60.4991 18.652H59.1311C59.0831 18.652 59.0591 18.672 59.0591 18.712V19.726C59.0591 19.766 59.0831 19.786 59.1311 19.786H60.2891C60.3611 19.786 60.3971 19.82 60.3971 19.888V20.194C60.3971 20.262 60.3611 20.296 60.2891 20.296H59.1311C59.0831 20.296 59.0591 20.316 59.0591 20.356V21.424C59.0591 21.468 59.0831 21.49 59.1311 21.49H60.4991C60.5631 21.49 60.5951 21.524 60.5951 21.592V21.898C60.5951 21.966 60.5631 22 60.4991 22ZM61.8399 22H61.4619C61.3939 22 61.3599 21.966 61.3599 21.898V18.244C61.3599 18.176 61.3939 18.142 61.4619 18.142H62.8659C63.1579 18.142 63.3859 18.226 63.5499 18.394C63.7179 18.558 63.8019 18.786 63.8019 19.078V19.582C63.8019 20.042 63.6119 20.332 63.2319 20.452V20.476L63.8979 21.88C63.9419 21.96 63.9159 22 63.8199 22H63.4479C63.3519 22 63.2899 21.966 63.2619 21.898L62.6199 20.518H62.0139C61.9659 20.518 61.9419 20.538 61.9419 20.578V21.898C61.9419 21.966 61.9079 22 61.8399 22ZM62.0079 20.038H62.7699C63.0659 20.038 63.2139 19.892 63.2139 19.6V19.096C63.2139 18.8 63.0659 18.652 62.7699 18.652H62.0079C61.9639 18.652 61.9419 18.672 61.9419 18.712V19.978C61.9419 20.018 61.9639 20.038 62.0079 20.038ZM67.0975 22H66.7195C66.6475 22 66.6115 21.966 66.6115 21.898V18.712C66.6115 18.672 66.5915 18.652 66.5515 18.652H65.7955C65.7235 18.652 65.6875 18.618 65.6875 18.55V18.244C65.6875 18.176 65.7235 18.142 65.7955 18.142H68.0215C68.0935 18.142 68.1295 18.176 68.1295 18.244V18.55C68.1295 18.618 68.0935 18.652 68.0215 18.652H67.2655C67.2215 18.652 67.1995 18.672 67.1995 18.712V21.898C67.1995 21.966 67.1655 22 67.0975 22ZM69.1231 22H68.7451C68.6771 22 68.6431 21.966 68.6431 21.898V18.244C68.6431 18.176 68.6771 18.142 68.7451 18.142H69.1231C69.1911 18.142 69.2251 18.176 69.2251 18.244V19.744C69.2251 19.784 69.2491 19.804 69.2971 19.804H70.5631C70.6031 19.804 70.6231 19.784 70.6231 19.744V18.244C70.6231 18.176 70.6571 18.142 70.7251 18.142H71.1091C71.1771 18.142 71.2111 18.176 71.2111 18.244V21.898C71.2111 21.966 71.1771 22 71.1091 22H70.7251C70.6571 22 70.6231 21.966 70.6231 21.898V20.38C70.6231 20.34 70.6031 20.32 70.5631 20.32H69.2971C69.2491 20.32 69.2251 20.34 69.2251 20.38V21.898C69.2251 21.966 69.1911 22 69.1231 22ZM74.1104 22H72.1904C72.1224 22 72.0884 21.966 72.0884 21.898V18.244C72.0884 18.176 72.1224 18.142 72.1904 18.142H74.1104C74.1744 18.142 74.2064 18.176 74.2064 18.244V18.55C74.2064 18.618 74.1744 18.652 74.1104 18.652H72.7424C72.6944 18.652 72.6704 18.672 72.6704 18.712V19.726C72.6704 19.766 72.6944 19.786 72.7424 19.786H73.9004C73.9724 19.786 74.0084 19.82 74.0084 19.888V20.194C74.0084 20.262 73.9724 20.296 73.9004 20.296H72.7424C72.6944 20.296 72.6704 20.316 72.6704 20.356V21.424C72.6704 21.468 72.6944 21.49 72.7424 21.49H74.1104C74.1744 21.49 74.2064 21.524 74.2064 21.592V21.898C74.2064 21.966 74.1744 22 74.1104 22ZM76.8809 22H76.5029C76.4349 22 76.4009 21.966 76.4009 21.898V18.244C76.4009 18.176 76.4349 18.142 76.5029 18.142H78.3869C78.4549 18.142 78.4889 18.176 78.4889 18.244V18.55C78.4889 18.618 78.4549 18.652 78.3869 18.652H77.0549C77.0069 18.652 76.9829 18.672 76.9829 18.712V19.846C76.9829 19.89 77.0069 19.912 77.0549 19.912H78.2129C78.2849 19.912 78.3209 19.946 78.3209 20.014V20.314C78.3209 20.386 78.2849 20.422 78.2129 20.422H77.0549C77.0069 20.422 76.9829 20.442 76.9829 20.482V21.898C76.9829 21.966 76.9489 22 76.8809 22ZM79.3355 22H78.9035C78.8475 22 78.8275 21.966 78.8435 21.898L79.8875 18.244C79.9075 18.176 79.9555 18.142 80.0315 18.142H80.6315C80.7115 18.142 80.7595 18.176 80.7755 18.244L81.8195 21.898C81.8355 21.966 81.8135 22 81.7535 22H81.3275C81.2915 22 81.2655 21.994 81.2495 21.982C81.2375 21.966 81.2275 21.938 81.2195 21.898L80.9915 21.118H79.6715L79.4435 21.898C79.4275 21.966 79.3915 22 79.3355 22ZM80.3195 18.718L79.7915 20.638H80.8775L80.3435 18.718H80.3195ZM84.4586 22H82.5146C82.4466 22 82.4126 21.966 82.4126 21.898V18.244C82.4126 18.176 82.4466 18.142 82.5146 18.142H82.8926C82.9606 18.142 82.9946 18.176 82.9946 18.244V21.418C82.9946 21.458 83.0186 21.478 83.0666 21.478H84.4586C84.5266 21.478 84.5606 21.514 84.5606 21.586V21.898C84.5606 21.966 84.5266 22 84.4586 22ZM87.1598 22H85.2158C85.1478 22 85.1138 21.966 85.1138 21.898V18.244C85.1138 18.176 85.1478 18.142 85.2158 18.142H85.5938C85.6618 18.142 85.6958 18.176 85.6958 18.244V21.418C85.6958 21.458 85.7198 21.478 85.7678 21.478H87.1598C87.2278 21.478 87.2618 21.514 87.2618 21.586V21.898C87.2618 21.966 87.2278 22 87.1598 22ZM89.837 22H87.917C87.849 22 87.815 21.966 87.815 21.898V18.244C87.815 18.176 87.849 18.142 87.917 18.142H89.837C89.901 18.142 89.933 18.176 89.933 18.244V18.55C89.933 18.618 89.901 18.652 89.837 18.652H88.469C88.421 18.652 88.397 18.672 88.397 18.712V19.726C88.397 19.766 88.421 19.786 88.469 19.786H89.627C89.699 19.786 89.735 19.82 89.735 19.888V20.194C89.735 20.262 89.699 20.296 89.627 20.296H88.469C88.421 20.296 88.397 20.316 88.397 20.356V21.424C88.397 21.468 88.421 21.49 88.469 21.49H89.837C89.901 21.49 89.933 21.524 89.933 21.592V21.898C89.933 21.966 89.901 22 89.837 22ZM91.1718 22H90.7998C90.7318 22 90.6978 21.966 90.6978 21.898V18.244C90.6978 18.176 90.7318 18.142 90.7998 18.142H91.1358C91.1998 18.142 91.2438 18.164 91.2678 18.208L92.7198 20.818H92.7438V18.244C92.7438 18.176 92.7778 18.142 92.8458 18.142H93.2178C93.2858 18.142 93.3198 18.176 93.3198 18.244V21.898C93.3198 21.966 93.2858 22 93.2178 22H92.8938C92.8298 22 92.7778 21.968 92.7378 21.904L91.2978 19.324H91.2738V21.898C91.2738 21.966 91.2398 22 91.1718 22ZM95.5535 21.064V20.908C95.5535 20.84 95.5875 20.806 95.6555 20.806H96.0395C96.1075 20.806 96.1415 20.84 96.1415 20.908V21.016C96.1415 21.184 96.1775 21.306 96.2495 21.382C96.3255 21.454 96.4495 21.49 96.6215 21.49H97.0355C97.2075 21.49 97.3315 21.452 97.4075 21.376C97.4835 21.296 97.5215 21.168 97.5215 20.992V20.854C97.5215 20.726 97.4715 20.626 97.3715 20.554C97.2755 20.478 97.1555 20.43 97.0115 20.41C96.8675 20.386 96.7095 20.354 96.5375 20.314C96.3655 20.274 96.2075 20.228 96.0635 20.176C95.9195 20.124 95.7975 20.026 95.6975 19.882C95.6015 19.738 95.5535 19.554 95.5535 19.33V19.078C95.5535 18.786 95.6355 18.558 95.7995 18.394C95.9675 18.226 96.1975 18.142 96.4895 18.142H97.1255C97.4215 18.142 97.6515 18.226 97.8155 18.394C97.9835 18.558 98.0675 18.786 98.0675 19.078V19.21C98.0675 19.278 98.0335 19.312 97.9655 19.312H97.5815C97.5135 19.312 97.4795 19.278 97.4795 19.21V19.132C97.4795 18.96 97.4415 18.838 97.3655 18.766C97.2935 18.69 97.1715 18.652 96.9995 18.652H96.6215C96.4495 18.652 96.3255 18.692 96.2495 18.772C96.1775 18.848 96.1415 18.98 96.1415 19.168V19.354C96.1415 19.534 96.2715 19.656 96.5315 19.72C96.6475 19.748 96.7735 19.772 96.9095 19.792C97.0495 19.812 97.1895 19.842 97.3295 19.882C97.4695 19.922 97.5975 19.976 97.7135 20.044C97.8295 20.108 97.9235 20.208 97.9955 20.344C98.0675 20.476 98.1035 20.638 98.1035 20.83V21.064C98.1035 21.356 98.0195 21.586 97.8515 21.754C97.6875 21.918 97.4595 22 97.1675 22H96.4955C96.2035 22 95.9735 21.918 95.8055 21.754C95.6375 21.586 95.5535 21.356 95.5535 21.064ZM99.9686 22H99.5906C99.5186 22 99.4826 21.966 99.4826 21.898V18.712C99.4826 18.672 99.4626 18.652 99.4226 18.652H98.6666C98.5946 18.652 98.5586 18.618 98.5586 18.55V18.244C98.5586 18.176 98.5946 18.142 98.6666 18.142H100.893C100.965 18.142 101.001 18.176 101.001 18.244V18.55C101.001 18.618 100.965 18.652 100.893 18.652H100.137C100.093 18.652 100.071 18.672 100.071 18.712V21.898C100.071 21.966 100.037 22 99.9686 22ZM101.724 22H101.292C101.236 22 101.216 21.966 101.232 21.898L102.276 18.244C102.296 18.176 102.344 18.142 102.42 18.142H103.02C103.1 18.142 103.148 18.176 103.164 18.244L104.208 21.898C104.224 21.966 104.202 22 104.142 22H103.716C103.68 22 103.654 21.994 103.638 21.982C103.626 21.966 103.616 21.938 103.608 21.898L103.38 21.118H102.06L101.832 21.898C101.816 21.966 101.78 22 101.724 22ZM102.708 18.718L102.18 20.638H103.266L102.732 18.718H102.708ZM106.079 22H105.695C105.627 22 105.593 21.966 105.593 21.898V20.572L104.471 18.25C104.455 18.218 104.455 18.192 104.471 18.172C104.487 18.152 104.509 18.142 104.537 18.142H105.017C105.069 18.142 105.109 18.176 105.137 18.244L105.875 19.894H105.911L106.637 18.244C106.661 18.176 106.701 18.142 106.757 18.142H107.237C107.269 18.142 107.291 18.152 107.303 18.172C107.319 18.192 107.319 18.218 107.303 18.25L106.181 20.572V21.898C106.181 21.966 106.147 22 106.079 22ZM109.206 21.064V20.908C109.206 20.84 109.24 20.806 109.308 20.806H109.692C109.76 20.806 109.794 20.84 109.794 20.908V21.016C109.794 21.184 109.83 21.306 109.902 21.382C109.978 21.454 110.102 21.49 110.274 21.49H110.688C110.86 21.49 110.984 21.452 111.06 21.376C111.136 21.296 111.174 21.168 111.174 20.992V20.854C111.174 20.726 111.124 20.626 111.024 20.554C110.928 20.478 110.808 20.43 110.664 20.41C110.52 20.386 110.362 20.354 110.19 20.314C110.018 20.274 109.86 20.228 109.716 20.176C109.572 20.124 109.45 20.026 109.35 19.882C109.254 19.738 109.206 19.554 109.206 19.33V19.078C109.206 18.786 109.288 18.558 109.452 18.394C109.62 18.226 109.85 18.142 110.142 18.142H110.778C111.074 18.142 111.304 18.226 111.468 18.394C111.636 18.558 111.72 18.786 111.72 19.078V19.21C111.72 19.278 111.686 19.312 111.618 19.312H111.234C111.166 19.312 111.132 19.278 111.132 19.21V19.132C111.132 18.96 111.094 18.838 111.018 18.766C110.946 18.69 110.824 18.652 110.652 18.652H110.274C110.102 18.652 109.978 18.692 109.902 18.772C109.83 18.848 109.794 18.98 109.794 19.168V19.354C109.794 19.534 109.924 19.656 110.184 19.72C110.3 19.748 110.426 19.772 110.562 19.792C110.702 19.812 110.842 19.842 110.982 19.882C111.122 19.922 111.25 19.976 111.366 20.044C111.482 20.108 111.576 20.208 111.648 20.344C111.72 20.476 111.756 20.638 111.756 20.83V21.064C111.756 21.356 111.672 21.586 111.504 21.754C111.34 21.918 111.112 22 110.82 22H110.148C109.856 22 109.626 21.918 109.458 21.754C109.29 21.586 109.206 21.356 109.206 21.064ZM113.045 22H112.667C112.599 22 112.565 21.966 112.565 21.898V18.244C112.565 18.176 112.599 18.142 112.667 18.142H113.045C113.113 18.142 113.147 18.176 113.147 18.244V19.744C113.147 19.784 113.171 19.804 113.219 19.804H114.485C114.525 19.804 114.545 19.784 114.545 19.744V18.244C114.545 18.176 114.579 18.142 114.647 18.142H115.031C115.099 18.142 115.133 18.176 115.133 18.244V21.898C115.133 21.966 115.099 22 115.031 22H114.647C114.579 22 114.545 21.966 114.545 21.898V20.38C114.545 20.34 114.525 20.32 114.485 20.32H113.219C113.171 20.32 113.147 20.34 113.147 20.38V21.898C113.147 21.966 113.113 22 113.045 22ZM116.22 22H115.788C115.732 22 115.712 21.966 115.728 21.898L116.772 18.244C116.792 18.176 116.84 18.142 116.916 18.142H117.516C117.596 18.142 117.644 18.176 117.66 18.244L118.704 21.898C118.72 21.966 118.698 22 118.638 22H118.212C118.176 22 118.15 21.994 118.134 21.982C118.122 21.966 118.112 21.938 118.104 21.898L117.876 21.118H116.556L116.328 21.898C116.312 21.966 116.276 22 116.22 22ZM117.204 18.718L116.676 20.638H117.762L117.228 18.718H117.204ZM119.777 22H119.399C119.331 22 119.297 21.966 119.297 21.898V18.244C119.297 18.176 119.331 18.142 119.399 18.142H120.803C121.095 18.142 121.323 18.226 121.487 18.394C121.655 18.558 121.739 18.786 121.739 19.078V19.582C121.739 20.042 121.549 20.332 121.169 20.452V20.476L121.835 21.88C121.879 21.96 121.853 22 121.757 22H121.385C121.289 22 121.227 21.966 121.199 21.898L120.557 20.518H119.951C119.903 20.518 119.879 20.538 119.879 20.578V21.898C119.879 21.966 119.845 22 119.777 22ZM119.945 20.038H120.707C121.003 20.038 121.151 19.892 121.151 19.6V19.096C121.151 18.8 121.003 18.652 120.707 18.652H119.945C119.901 18.652 119.879 18.672 119.879 18.712V19.978C119.879 20.018 119.901 20.038 119.945 20.038ZM123.029 22H122.651C122.583 22 122.549 21.966 122.549 21.898V18.244C122.549 18.176 122.583 18.142 122.651 18.142H124.079C124.371 18.142 124.599 18.224 124.763 18.388C124.927 18.548 125.009 18.776 125.009 19.072V19.696C125.009 19.988 124.927 20.216 124.763 20.38C124.599 20.544 124.371 20.626 124.079 20.626H123.203C123.155 20.626 123.131 20.646 123.131 20.686V21.898C123.131 21.966 123.097 22 123.029 22ZM123.197 20.11H123.995C124.279 20.11 124.421 19.962 124.421 19.666V19.096C124.421 18.8 124.279 18.652 123.995 18.652H123.197C123.153 18.652 123.131 18.672 123.131 18.712V20.05C123.131 20.09 123.153 20.11 123.197 20.11ZM127.359 22H126.927C126.871 22 126.851 21.966 126.867 21.898L127.911 18.244C127.931 18.176 127.979 18.142 128.055 18.142H128.655C128.735 18.142 128.783 18.176 128.799 18.244L129.843 21.898C129.859 21.966 129.837 22 129.777 22H129.351C129.315 22 129.289 21.994 129.273 21.982C129.261 21.966 129.251 21.938 129.243 21.898L129.015 21.118H127.695L127.467 21.898C127.451 21.966 127.415 22 127.359 22ZM128.343 18.718L127.815 20.638H128.901L128.367 18.718H128.343ZM132.482 22H130.538C130.47 22 130.436 21.966 130.436 21.898V18.244C130.436 18.176 130.47 18.142 130.538 18.142H130.916C130.984 18.142 131.018 18.176 131.018 18.244V21.418C131.018 21.458 131.042 21.478 131.09 21.478H132.482C132.55 21.478 132.584 21.514 132.584 21.586V21.898C132.584 21.966 132.55 22 132.482 22ZM135.183 22H133.239C133.171 22 133.137 21.966 133.137 21.898V18.244C133.137 18.176 133.171 18.142 133.239 18.142H133.617C133.685 18.142 133.719 18.176 133.719 18.244V21.418C133.719 21.458 133.743 21.478 133.791 21.478H135.183C135.251 21.478 135.285 21.514 135.285 21.586V21.898C135.285 21.966 135.251 22 135.183 22ZM139.284 18.142H139.662C139.734 18.142 139.77 18.174 139.77 18.238V21.07C139.77 21.362 139.686 21.59 139.518 21.754C139.354 21.918 139.126 22 138.834 22H138.168C137.876 22 137.648 21.918 137.484 21.754C137.32 21.59 137.238 21.362 137.238 21.07V18.244C137.238 18.176 137.272 18.142 137.34 18.142H137.718C137.786 18.142 137.82 18.176 137.82 18.244V21.046C137.82 21.342 137.964 21.49 138.252 21.49H138.744C139.036 21.49 139.182 21.342 139.182 21.046V18.244C139.182 18.176 139.216 18.142 139.284 18.142ZM141.082 22H140.71C140.642 22 140.608 21.966 140.608 21.898V18.244C140.608 18.176 140.642 18.142 140.71 18.142H141.046C141.11 18.142 141.154 18.164 141.178 18.208L142.63 20.818H142.654V18.244C142.654 18.176 142.688 18.142 142.756 18.142H143.128C143.196 18.142 143.23 18.176 143.23 18.244V21.898C143.23 21.966 143.196 22 143.128 22H142.804C142.74 22 142.688 21.968 142.648 21.904L141.208 19.324H141.184V21.898C141.184 21.966 141.15 22 141.082 22ZM144.718 18.244V21.898C144.718 21.966 144.684 22 144.616 22H144.238C144.17 22 144.136 21.966 144.136 21.898V18.244C144.136 18.176 144.17 18.142 144.238 18.142H144.616C144.684 18.142 144.718 18.176 144.718 18.244ZM146.68 22H146.302C146.23 22 146.194 21.966 146.194 21.898V18.712C146.194 18.672 146.174 18.652 146.134 18.652H145.378C145.306 18.652 145.27 18.618 145.27 18.55V18.244C145.27 18.176 145.306 18.142 145.378 18.142H147.604C147.676 18.142 147.712 18.176 147.712 18.244V18.55C147.712 18.618 147.676 18.652 147.604 18.652H146.848C146.804 18.652 146.782 18.672 146.782 18.712V21.898C146.782 21.966 146.748 22 146.68 22ZM148.153 21.064V20.908C148.153 20.84 148.187 20.806 148.255 20.806H148.639C148.707 20.806 148.741 20.84 148.741 20.908V21.016C148.741 21.184 148.777 21.306 148.849 21.382C148.925 21.454 149.049 21.49 149.221 21.49H149.635C149.807 21.49 149.931 21.452 150.007 21.376C150.083 21.296 150.121 21.168 150.121 20.992V20.854C150.121 20.726 150.071 20.626 149.971 20.554C149.875 20.478 149.755 20.43 149.611 20.41C149.467 20.386 149.309 20.354 149.137 20.314C148.965 20.274 148.807 20.228 148.663 20.176C148.519 20.124 148.397 20.026 148.297 19.882C148.201 19.738 148.153 19.554 148.153 19.33V19.078C148.153 18.786 148.235 18.558 148.399 18.394C148.567 18.226 148.797 18.142 149.089 18.142H149.725C150.021 18.142 150.251 18.226 150.415 18.394C150.583 18.558 150.667 18.786 150.667 19.078V19.21C150.667 19.278 150.633 19.312 150.565 19.312H150.181C150.113 19.312 150.079 19.278 150.079 19.21V19.132C150.079 18.96 150.041 18.838 149.965 18.766C149.893 18.69 149.771 18.652 149.599 18.652H149.221C149.049 18.652 148.925 18.692 148.849 18.772C148.777 18.848 148.741 18.98 148.741 19.168V19.354C148.741 19.534 148.871 19.656 149.131 19.72C149.247 19.748 149.373 19.772 149.509 19.792C149.649 19.812 149.789 19.842 149.929 19.882C150.069 19.922 150.197 19.976 150.313 20.044C150.429 20.108 150.523 20.208 150.595 20.344C150.667 20.476 150.703 20.638 150.703 20.83V21.064C150.703 21.356 150.619 21.586 150.451 21.754C150.287 21.918 150.059 22 149.767 22H149.095C148.803 22 148.573 21.918 148.405 21.754C148.237 21.586 148.153 21.356 148.153 21.064ZM154.852 22H154.474C154.406 22 154.372 21.966 154.372 21.898V18.244C154.372 18.176 154.406 18.142 154.474 18.142H155.878C156.17 18.142 156.398 18.226 156.562 18.394C156.73 18.558 156.814 18.786 156.814 19.078V19.582C156.814 20.042 156.624 20.332 156.244 20.452V20.476L156.91 21.88C156.954 21.96 156.928 22 156.832 22H156.46C156.364 22 156.302 21.966 156.274 21.898L155.632 20.518H155.026C154.978 20.518 154.954 20.538 154.954 20.578V21.898C154.954 21.966 154.92 22 154.852 22ZM155.02 20.038H155.782C156.078 20.038 156.226 19.892 156.226 19.6V19.096C156.226 18.8 156.078 18.652 155.782 18.652H155.02C154.976 18.652 154.954 18.672 154.954 18.712V19.978C154.954 20.018 154.976 20.038 155.02 20.038ZM159.646 22H157.726C157.658 22 157.624 21.966 157.624 21.898V18.244C157.624 18.176 157.658 18.142 157.726 18.142H159.646C159.71 18.142 159.742 18.176 159.742 18.244V18.55C159.742 18.618 159.71 18.652 159.646 18.652H158.278C158.23 18.652 158.206 18.672 158.206 18.712V19.726C158.206 19.766 158.23 19.786 158.278 19.786H159.436C159.508 19.786 159.544 19.82 159.544 19.888V20.194C159.544 20.262 159.508 20.296 159.436 20.296H158.278C158.23 20.296 158.206 20.316 158.206 20.356V21.424C158.206 21.468 158.23 21.49 158.278 21.49H159.646C159.71 21.49 159.742 21.524 159.742 21.592V21.898C159.742 21.966 159.71 22 159.646 22ZM160.986 22H160.608C160.54 22 160.506 21.966 160.506 21.898V18.244C160.506 18.176 160.54 18.142 160.608 18.142H162.036C162.328 18.142 162.556 18.224 162.72 18.388C162.884 18.548 162.966 18.776 162.966 19.072V19.696C162.966 19.988 162.884 20.216 162.72 20.38C162.556 20.544 162.328 20.626 162.036 20.626H161.16C161.112 20.626 161.088 20.646 161.088 20.686V21.898C161.088 21.966 161.054 22 160.986 22ZM161.154 20.11H161.952C162.236 20.11 162.378 19.962 162.378 19.666V19.096C162.378 18.8 162.236 18.652 161.952 18.652H161.154C161.11 18.652 161.088 18.672 161.088 18.712V20.05C161.088 20.09 161.11 20.11 161.154 20.11ZM164.63 21.49H165.152C165.444 21.49 165.59 21.342 165.59 21.046V19.096C165.59 18.8 165.444 18.652 165.152 18.652H164.63C164.342 18.652 164.198 18.8 164.198 19.096V21.046C164.198 21.342 164.342 21.49 164.63 21.49ZM165.242 22H164.546C164.25 22 164.02 21.918 163.856 21.754C163.696 21.59 163.616 21.362 163.616 21.07V19.072C163.616 18.776 163.696 18.548 163.856 18.388C164.02 18.224 164.25 18.142 164.546 18.142H165.242C165.538 18.142 165.768 18.224 165.932 18.388C166.096 18.548 166.178 18.776 166.178 19.072V21.07C166.178 21.362 166.096 21.59 165.932 21.754C165.768 21.918 165.538 22 165.242 22ZM167.467 22H167.089C167.021 22 166.987 21.966 166.987 21.898V18.244C166.987 18.176 167.021 18.142 167.089 18.142H168.493C168.785 18.142 169.013 18.226 169.177 18.394C169.345 18.558 169.429 18.786 169.429 19.078V19.582C169.429 20.042 169.239 20.332 168.859 20.452V20.476L169.525 21.88C169.569 21.96 169.543 22 169.447 22H169.075C168.979 22 168.917 21.966 168.889 21.898L168.247 20.518H167.641C167.593 20.518 167.569 20.538 167.569 20.578V21.898C167.569 21.966 167.535 22 167.467 22ZM167.635 20.038H168.397C168.693 20.038 168.841 19.892 168.841 19.6V19.096C168.841 18.8 168.693 18.652 168.397 18.652H167.635C167.591 18.652 167.569 18.672 167.569 18.712V19.978C167.569 20.018 167.591 20.038 167.635 20.038ZM171.295 22H170.917C170.845 22 170.809 21.966 170.809 21.898V18.712C170.809 18.672 170.789 18.652 170.749 18.652H169.993C169.921 18.652 169.885 18.618 169.885 18.55V18.244C169.885 18.176 169.921 18.142 169.993 18.142H172.219C172.291 18.142 172.327 18.176 172.327 18.244V18.55C172.327 18.618 172.291 18.652 172.219 18.652H171.463C171.419 18.652 171.397 18.672 171.397 18.712V21.898C171.397 21.966 171.363 22 171.295 22ZM37.4988 29.064V28.908C37.4988 28.84 37.5328 28.806 37.6008 28.806H37.9848C38.0528 28.806 38.0868 28.84 38.0868 28.908V29.016C38.0868 29.184 38.1228 29.306 38.1948 29.382C38.2708 29.454 38.3948 29.49 38.5668 29.49H38.9808C39.1528 29.49 39.2768 29.452 39.3528 29.376C39.4288 29.296 39.4668 29.168 39.4668 28.992V28.854C39.4668 28.726 39.4168 28.626 39.3168 28.554C39.2208 28.478 39.1008 28.43 38.9568 28.41C38.8128 28.386 38.6548 28.354 38.4828 28.314C38.3108 28.274 38.1528 28.228 38.0088 28.176C37.8648 28.124 37.7428 28.026 37.6428 27.882C37.5468 27.738 37.4988 27.554 37.4988 27.33V27.078C37.4988 26.786 37.5808 26.558 37.7448 26.394C37.9128 26.226 38.1428 26.142 38.4348 26.142H39.0708C39.3668 26.142 39.5968 26.226 39.7608 26.394C39.9288 26.558 40.0128 26.786 40.0128 27.078V27.21C40.0128 27.278 39.9788 27.312 39.9108 27.312H39.5268C39.4588 27.312 39.4248 27.278 39.4248 27.21V27.132C39.4248 26.96 39.3868 26.838 39.3108 26.766C39.2388 26.69 39.1168 26.652 38.9448 26.652H38.5668C38.3948 26.652 38.2708 26.692 38.1948 26.772C38.1228 26.848 38.0868 26.98 38.0868 27.168V27.354C38.0868 27.534 38.2168 27.656 38.4768 27.72C38.5928 27.748 38.7188 27.772 38.8548 27.792C38.9948 27.812 39.1348 27.842 39.2748 27.882C39.4148 27.922 39.5428 27.976 39.6588 28.044C39.7748 28.108 39.8688 28.208 39.9408 28.344C40.0128 28.476 40.0488 28.638 40.0488 28.83V29.064C40.0488 29.356 39.9648 29.586 39.7968 29.754C39.6328 29.918 39.4048 30 39.1128 30H38.4408C38.1488 30 37.9188 29.918 37.7508 29.754C37.5828 29.586 37.4988 29.356 37.4988 29.064ZM41.9139 30H41.5359C41.4639 30 41.4279 29.966 41.4279 29.898V26.712C41.4279 26.672 41.4079 26.652 41.3679 26.652H40.6119C40.5399 26.652 40.5039 26.618 40.5039 26.55V26.244C40.5039 26.176 40.5399 26.142 40.6119 26.142H42.8379C42.9099 26.142 42.9459 26.176 42.9459 26.244V26.55C42.9459 26.618 42.9099 26.652 42.8379 26.652H42.0819C42.0379 26.652 42.0159 26.672 42.0159 26.712V29.898C42.0159 29.966 41.9819 30 41.9139 30ZM43.6695 30H43.2375C43.1815 30 43.1615 29.966 43.1775 29.898L44.2215 26.244C44.2415 26.176 44.2895 26.142 44.3655 26.142H44.9655C45.0455 26.142 45.0935 26.176 45.1095 26.244L46.1535 29.898C46.1695 29.966 46.1475 30 46.0875 30H45.6615C45.6255 30 45.5995 29.994 45.5835 29.982C45.5715 29.966 45.5615 29.938 45.5535 29.898L45.3255 29.118H44.0055L43.7775 29.898C43.7615 29.966 43.7255 30 43.6695 30ZM44.6535 26.718L44.1255 28.638H45.2115L44.6775 26.718H44.6535ZM47.8026 30H47.4246C47.3526 30 47.3166 29.966 47.3166 29.898V26.712C47.3166 26.672 47.2966 26.652 47.2566 26.652H46.5006C46.4286 26.652 46.3926 26.618 46.3926 26.55V26.244C46.3926 26.176 46.4286 26.142 46.5006 26.142H48.7266C48.7986 26.142 48.8346 26.176 48.8346 26.244V26.55C48.8346 26.618 48.7986 26.652 48.7266 26.652H47.9706C47.9266 26.652 47.9046 26.672 47.9046 26.712V29.898C47.9046 29.966 47.8706 30 47.8026 30ZM51.3642 26.142H51.7422C51.8142 26.142 51.8502 26.174 51.8502 26.238V29.07C51.8502 29.362 51.7662 29.59 51.5982 29.754C51.4342 29.918 51.2062 30 50.9142 30H50.2482C49.9562 30 49.7282 29.918 49.5642 29.754C49.4002 29.59 49.3182 29.362 49.3182 29.07V26.244C49.3182 26.176 49.3522 26.142 49.4202 26.142H49.7982C49.8662 26.142 49.9002 26.176 49.9002 26.244V29.046C49.9002 29.342 50.0442 29.49 50.3322 29.49H50.8242C51.1162 29.49 51.2622 29.342 51.2622 29.046V26.244C51.2622 26.176 51.2962 26.142 51.3642 26.142ZM52.616 29.064V28.908C52.616 28.84 52.65 28.806 52.718 28.806H53.102C53.17 28.806 53.204 28.84 53.204 28.908V29.016C53.204 29.184 53.24 29.306 53.312 29.382C53.388 29.454 53.512 29.49 53.684 29.49H54.098C54.27 29.49 54.394 29.452 54.47 29.376C54.546 29.296 54.584 29.168 54.584 28.992V28.854C54.584 28.726 54.534 28.626 54.434 28.554C54.338 28.478 54.218 28.43 54.074 28.41C53.93 28.386 53.772 28.354 53.6 28.314C53.428 28.274 53.27 28.228 53.126 28.176C52.982 28.124 52.86 28.026 52.76 27.882C52.664 27.738 52.616 27.554 52.616 27.33V27.078C52.616 26.786 52.698 26.558 52.862 26.394C53.03 26.226 53.26 26.142 53.552 26.142H54.188C54.484 26.142 54.714 26.226 54.878 26.394C55.046 26.558 55.13 26.786 55.13 27.078V27.21C55.13 27.278 55.096 27.312 55.028 27.312H54.644C54.576 27.312 54.542 27.278 54.542 27.21V27.132C54.542 26.96 54.504 26.838 54.428 26.766C54.356 26.69 54.234 26.652 54.062 26.652H53.684C53.512 26.652 53.388 26.692 53.312 26.772C53.24 26.848 53.204 26.98 53.204 27.168V27.354C53.204 27.534 53.334 27.656 53.594 27.72C53.71 27.748 53.836 27.772 53.972 27.792C54.112 27.812 54.252 27.842 54.392 27.882C54.532 27.922 54.66 27.976 54.776 28.044C54.892 28.108 54.986 28.208 55.058 28.344C55.13 28.476 55.166 28.638 55.166 28.83V29.064C55.166 29.356 55.082 29.586 54.914 29.754C54.75 29.918 54.522 30 54.23 30H53.558C53.266 30 53.036 29.918 52.868 29.754C52.7 29.586 52.616 29.356 52.616 29.064ZM57.3328 29.064V28.908C57.3328 28.84 57.3668 28.806 57.4348 28.806H57.8188C57.8868 28.806 57.9208 28.84 57.9208 28.908V29.016C57.9208 29.184 57.9568 29.306 58.0288 29.382C58.1048 29.454 58.2288 29.49 58.4008 29.49H58.8148C58.9868 29.49 59.1108 29.452 59.1868 29.376C59.2628 29.296 59.3008 29.168 59.3008 28.992V28.854C59.3008 28.726 59.2508 28.626 59.1508 28.554C59.0548 28.478 58.9348 28.43 58.7908 28.41C58.6468 28.386 58.4888 28.354 58.3168 28.314C58.1448 28.274 57.9868 28.228 57.8428 28.176C57.6988 28.124 57.5768 28.026 57.4768 27.882C57.3808 27.738 57.3328 27.554 57.3328 27.33V27.078C57.3328 26.786 57.4148 26.558 57.5788 26.394C57.7468 26.226 57.9768 26.142 58.2688 26.142H58.9048C59.2008 26.142 59.4308 26.226 59.5948 26.394C59.7628 26.558 59.8468 26.786 59.8468 27.078V27.21C59.8468 27.278 59.8128 27.312 59.7448 27.312H59.3608C59.2928 27.312 59.2588 27.278 59.2588 27.21V27.132C59.2588 26.96 59.2208 26.838 59.1448 26.766C59.0728 26.69 58.9508 26.652 58.7788 26.652H58.4008C58.2288 26.652 58.1048 26.692 58.0288 26.772C57.9568 26.848 57.9208 26.98 57.9208 27.168V27.354C57.9208 27.534 58.0508 27.656 58.3108 27.72C58.4268 27.748 58.5528 27.772 58.6888 27.792C58.8288 27.812 58.9688 27.842 59.1088 27.882C59.2488 27.922 59.3768 27.976 59.4928 28.044C59.6088 28.108 59.7028 28.208 59.7748 28.344C59.8468 28.476 59.8828 28.638 59.8828 28.83V29.064C59.8828 29.356 59.7988 29.586 59.6308 29.754C59.4668 29.918 59.2388 30 58.9468 30H58.2748C57.9828 30 57.7528 29.918 57.5848 29.754C57.4168 29.586 57.3328 29.356 57.3328 29.064ZM61.7479 30H61.3699C61.2979 30 61.2619 29.966 61.2619 29.898V26.712C61.2619 26.672 61.2419 26.652 61.2019 26.652H60.4459C60.3739 26.652 60.3379 26.618 60.3379 26.55V26.244C60.3379 26.176 60.3739 26.142 60.4459 26.142H62.6719C62.7439 26.142 62.7799 26.176 62.7799 26.244V26.55C62.7799 26.618 62.7439 26.652 62.6719 26.652H61.9159C61.8719 26.652 61.8499 26.672 61.8499 26.712V29.898C61.8499 29.966 61.8159 30 61.7479 30ZM63.5035 30H63.0715C63.0155 30 62.9955 29.966 63.0115 29.898L64.0555 26.244C64.0755 26.176 64.1235 26.142 64.1995 26.142H64.7995C64.8795 26.142 64.9275 26.176 64.9435 26.244L65.9875 29.898C66.0035 29.966 65.9815 30 65.9215 30H65.4955C65.4595 30 65.4335 29.994 65.4175 29.982C65.4055 29.966 65.3955 29.938 65.3875 29.898L65.1595 29.118H63.8395L63.6115 29.898C63.5955 29.966 63.5595 30 63.5035 30ZM64.4875 26.718L63.9595 28.638H65.0455L64.5115 26.718H64.4875ZM67.0546 30H66.6826C66.6146 30 66.5806 29.966 66.5806 29.898V26.244C66.5806 26.176 66.6146 26.142 66.6826 26.142H67.0186C67.0826 26.142 67.1266 26.164 67.1506 26.208L68.6026 28.818H68.6266V26.244C68.6266 26.176 68.6606 26.142 68.7286 26.142H69.1006C69.1686 26.142 69.2026 26.176 69.2026 26.244V29.898C69.2026 29.966 69.1686 30 69.1006 30H68.7766C68.7126 30 68.6606 29.968 68.6206 29.904L67.1806 27.324H67.1566V29.898C67.1566 29.966 67.1226 30 67.0546 30ZM70.7266 29.49H71.5726C71.8606 29.49 72.0046 29.342 72.0046 29.046V27.096C72.0046 26.8 71.8606 26.652 71.5726 26.652H70.7266C70.6826 26.652 70.6606 26.672 70.6606 26.712V29.424C70.6606 29.468 70.6826 29.49 70.7266 29.49ZM70.0786 29.898V26.244C70.0786 26.176 70.1126 26.142 70.1806 26.142H71.6566C71.9486 26.142 72.1766 26.224 72.3406 26.388C72.5086 26.548 72.5926 26.776 72.5926 27.072V29.07C72.5926 29.362 72.5086 29.59 72.3406 29.754C72.1766 29.918 71.9486 30 71.6566 30H70.1806C70.1126 30 70.0786 29.966 70.0786 29.898ZM74.0548 29.502H74.8948C75.1948 29.502 75.3448 29.358 75.3448 29.07V28.698C75.3448 28.41 75.1868 28.266 74.8708 28.266H74.0548C74.0108 28.266 73.9888 28.286 73.9888 28.326V29.442C73.9888 29.482 74.0108 29.502 74.0548 29.502ZM74.0548 27.786H74.8348C75.1388 27.786 75.2908 27.64 75.2908 27.348V27.072C75.2908 26.784 75.1428 26.64 74.8468 26.64H74.0548C74.0108 26.64 73.9888 26.66 73.9888 26.7V27.726C73.9888 27.766 74.0108 27.786 74.0548 27.786ZM73.4068 29.898V26.244C73.4068 26.176 73.4408 26.142 73.5088 26.142H74.9308C75.2268 26.142 75.4568 26.222 75.6208 26.382C75.7848 26.542 75.8668 26.768 75.8668 27.06V27.354C75.8668 27.702 75.7028 27.926 75.3748 28.026C75.5308 28.046 75.6588 28.114 75.7588 28.23C75.8628 28.346 75.9148 28.502 75.9148 28.698V29.082C75.9148 29.374 75.8328 29.6 75.6688 29.76C75.5048 29.92 75.2768 30 74.9848 30H73.5088C73.4408 30 73.4068 29.966 73.4068 29.898ZM77.9953 30H77.6113C77.5433 30 77.5093 29.966 77.5093 29.898V28.572L76.3873 26.25C76.3713 26.218 76.3713 26.192 76.3873 26.172C76.4033 26.152 76.4253 26.142 76.4533 26.142H76.9333C76.9853 26.142 77.0253 26.176 77.0533 26.244L77.7913 27.894H77.8273L78.5533 26.244C78.5773 26.176 78.6173 26.142 78.6733 26.142H79.1533C79.1853 26.142 79.2073 26.152 79.2193 26.172C79.2353 26.192 79.2353 26.218 79.2193 26.25L78.0973 28.572V29.898C78.0973 29.966 78.0633 30 77.9953 30ZM81.6739 30H81.2959C81.2279 30 81.1939 29.966 81.1939 29.898V26.244C81.1939 26.176 81.2279 26.142 81.2959 26.142H83.1799C83.2479 26.142 83.2819 26.176 83.2819 26.244V26.55C83.2819 26.618 83.2479 26.652 83.1799 26.652H81.8479C81.7999 26.652 81.7759 26.672 81.7759 26.712V27.846C81.7759 27.89 81.7999 27.912 81.8479 27.912H83.0059C83.0779 27.912 83.1139 27.946 83.1139 28.014V28.314C83.1139 28.386 83.0779 28.422 83.0059 28.422H81.8479C81.7999 28.422 81.7759 28.442 81.7759 28.482V29.898C81.7759 29.966 81.7419 30 81.6739 30ZM84.8725 29.49H85.3945C85.6865 29.49 85.8325 29.342 85.8325 29.046V27.096C85.8325 26.8 85.6865 26.652 85.3945 26.652H84.8725C84.5845 26.652 84.4405 26.8 84.4405 27.096V29.046C84.4405 29.342 84.5845 29.49 84.8725 29.49ZM85.4845 30H84.7885C84.4925 30 84.2625 29.918 84.0985 29.754C83.9385 29.59 83.8585 29.362 83.8585 29.07V27.072C83.8585 26.776 83.9385 26.548 84.0985 26.388C84.2625 26.224 84.4925 26.142 84.7885 26.142H85.4845C85.7805 26.142 86.0105 26.224 86.1745 26.388C86.3385 26.548 86.4205 26.776 86.4205 27.072V29.07C86.4205 29.362 86.3385 29.59 86.1745 29.754C86.0105 29.918 85.7805 30 85.4845 30ZM87.709 30H87.331C87.263 30 87.229 29.966 87.229 29.898V26.244C87.229 26.176 87.263 26.142 87.331 26.142H88.735C89.027 26.142 89.255 26.226 89.419 26.394C89.587 26.558 89.671 26.786 89.671 27.078V27.582C89.671 28.042 89.481 28.332 89.101 28.452V28.476L89.767 29.88C89.811 29.96 89.785 30 89.689 30H89.317C89.221 30 89.159 29.966 89.131 29.898L88.489 28.518H87.883C87.835 28.518 87.811 28.538 87.811 28.578V29.898C87.811 29.966 87.777 30 87.709 30ZM87.877 28.038H88.639C88.935 28.038 89.083 27.892 89.083 27.6V27.096C89.083 26.8 88.935 26.652 88.639 26.652H87.877C87.833 26.652 87.811 26.672 87.811 26.712V27.978C87.811 28.018 87.833 28.038 87.877 28.038ZM92.8647 29.49H93.3867C93.6787 29.49 93.8247 29.342 93.8247 29.046V27.096C93.8247 26.8 93.6787 26.652 93.3867 26.652H92.8647C92.5767 26.652 92.4327 26.8 92.4327 27.096V29.046C92.4327 29.342 92.5767 29.49 92.8647 29.49ZM93.4767 30H92.7807C92.4847 30 92.2547 29.918 92.0907 29.754C91.9307 29.59 91.8507 29.362 91.8507 29.07V27.072C91.8507 26.776 91.9307 26.548 92.0907 26.388C92.2547 26.224 92.4847 26.142 92.7807 26.142H93.4767C93.7727 26.142 94.0027 26.224 94.1667 26.388C94.3307 26.548 94.4127 26.776 94.4127 27.072V29.07C94.4127 29.362 94.3307 29.59 94.1667 29.754C94.0027 29.918 93.7727 30 93.4767 30ZM95.7012 30H95.3232C95.2552 30 95.2212 29.966 95.2212 29.898V26.244C95.2212 26.176 95.2552 26.142 95.3232 26.142H96.7272C97.0192 26.142 97.2472 26.226 97.4112 26.394C97.5792 26.558 97.6632 26.786 97.6632 27.078V27.582C97.6632 28.042 97.4732 28.332 97.0932 28.452V28.476L97.7592 29.88C97.8032 29.96 97.7772 30 97.6812 30H97.3092C97.2132 30 97.1512 29.966 97.1232 29.898L96.4812 28.518H95.8752C95.8272 28.518 95.8032 28.538 95.8032 28.578V29.898C95.8032 29.966 95.7692 30 95.7012 30ZM95.8692 28.038H96.6312C96.9272 28.038 97.0752 27.892 97.0752 27.6V27.096C97.0752 26.8 96.9272 26.652 96.6312 26.652H95.8692C95.8252 26.652 95.8032 26.672 95.8032 26.712V27.978C95.8032 28.018 95.8252 28.038 95.8692 28.038ZM99.1212 29.49H99.9672C100.255 29.49 100.399 29.342 100.399 29.046V27.096C100.399 26.8 100.255 26.652 99.9672 26.652H99.1212C99.0772 26.652 99.0552 26.672 99.0552 26.712V29.424C99.0552 29.468 99.0772 29.49 99.1212 29.49ZM98.4732 29.898V26.244C98.4732 26.176 98.5072 26.142 98.5752 26.142H100.051C100.343 26.142 100.571 26.224 100.735 26.388C100.903 26.548 100.987 26.776 100.987 27.072V29.07C100.987 29.362 100.903 29.59 100.735 29.754C100.571 29.918 100.343 30 100.051 30H98.5752C98.5072 30 98.4732 29.966 98.4732 29.898ZM103.823 30H101.903C101.835 30 101.801 29.966 101.801 29.898V26.244C101.801 26.176 101.835 26.142 101.903 26.142H103.823C103.887 26.142 103.919 26.176 103.919 26.244V26.55C103.919 26.618 103.887 26.652 103.823 26.652H102.455C102.407 26.652 102.383 26.672 102.383 26.712V27.726C102.383 27.766 102.407 27.786 102.455 27.786H103.613C103.685 27.786 103.721 27.82 103.721 27.888V28.194C103.721 28.262 103.685 28.296 103.613 28.296H102.455C102.407 28.296 102.383 28.316 102.383 28.356V29.424C102.383 29.468 102.407 29.49 102.455 29.49H103.823C103.887 29.49 103.919 29.524 103.919 29.592V29.898C103.919 29.966 103.887 30 103.823 30ZM105.164 30H104.786C104.718 30 104.684 29.966 104.684 29.898V26.244C104.684 26.176 104.718 26.142 104.786 26.142H106.19C106.482 26.142 106.71 26.226 106.874 26.394C107.042 26.558 107.126 26.786 107.126 27.078V27.582C107.126 28.042 106.936 28.332 106.556 28.452V28.476L107.222 29.88C107.266 29.96 107.24 30 107.144 30H106.772C106.676 30 106.614 29.966 106.586 29.898L105.944 28.518H105.338C105.29 28.518 105.266 28.538 105.266 28.578V29.898C105.266 29.966 105.232 30 105.164 30ZM105.332 28.038H106.094C106.39 28.038 106.538 27.892 106.538 27.6V27.096C106.538 26.8 106.39 26.652 106.094 26.652H105.332C105.288 26.652 105.266 26.672 105.266 26.712V27.978C105.266 28.018 105.288 28.038 105.332 28.038ZM107.864 29.064V28.908C107.864 28.84 107.898 28.806 107.966 28.806H108.35C108.418 28.806 108.452 28.84 108.452 28.908V29.016C108.452 29.184 108.488 29.306 108.56 29.382C108.636 29.454 108.76 29.49 108.932 29.49H109.346C109.518 29.49 109.642 29.452 109.718 29.376C109.794 29.296 109.832 29.168 109.832 28.992V28.854C109.832 28.726 109.782 28.626 109.682 28.554C109.586 28.478 109.466 28.43 109.322 28.41C109.178 28.386 109.02 28.354 108.848 28.314C108.676 28.274 108.518 28.228 108.374 28.176C108.23 28.124 108.108 28.026 108.008 27.882C107.912 27.738 107.864 27.554 107.864 27.33V27.078C107.864 26.786 107.946 26.558 108.11 26.394C108.278 26.226 108.508 26.142 108.8 26.142H109.436C109.732 26.142 109.962 26.226 110.126 26.394C110.294 26.558 110.378 26.786 110.378 27.078V27.21C110.378 27.278 110.344 27.312 110.276 27.312H109.892C109.824 27.312 109.79 27.278 109.79 27.21V27.132C109.79 26.96 109.752 26.838 109.676 26.766C109.604 26.69 109.482 26.652 109.31 26.652H108.932C108.76 26.652 108.636 26.692 108.56 26.772C108.488 26.848 108.452 26.98 108.452 27.168V27.354C108.452 27.534 108.582 27.656 108.842 27.72C108.958 27.748 109.084 27.772 109.22 27.792C109.36 27.812 109.5 27.842 109.64 27.882C109.78 27.922 109.908 27.976 110.024 28.044C110.14 28.108 110.234 28.208 110.306 28.344C110.378 28.476 110.414 28.638 110.414 28.83V29.064C110.414 29.356 110.33 29.586 110.162 29.754C109.998 29.918 109.77 30 109.478 30H108.806C108.514 30 108.284 29.918 108.116 29.754C107.948 29.586 107.864 29.356 107.864 29.064ZM113.583 30.594H112.743C112.679 30.594 112.647 30.558 112.647 30.486V26.244C112.647 26.176 112.679 26.142 112.743 26.142H113.583C113.651 26.142 113.685 26.176 113.685 26.244V26.448C113.685 26.516 113.651 26.55 113.583 26.55H113.193C113.149 26.55 113.127 26.572 113.127 26.616V30.126C113.127 30.166 113.149 30.186 113.193 30.186H113.583C113.651 30.186 113.685 30.22 113.685 30.288V30.492C113.685 30.56 113.651 30.594 113.583 30.594ZM115.41 29.49H115.818C116.106 29.49 116.25 29.342 116.25 29.046V28.566C116.25 28.27 116.106 28.122 115.818 28.122H114.978V29.046C114.978 29.342 115.122 29.49 115.41 29.49ZM115.902 30H115.326C115.03 30 114.8 29.918 114.636 29.754C114.472 29.59 114.39 29.362 114.39 29.07V27.072C114.39 26.776 114.472 26.548 114.636 26.388C114.8 26.224 115.03 26.142 115.326 26.142H116.52C116.588 26.142 116.622 26.176 116.622 26.244V26.556C116.622 26.62 116.588 26.652 116.52 26.652H115.41C115.122 26.652 114.978 26.8 114.978 27.096V27.612H115.902C116.198 27.612 116.428 27.694 116.592 27.858C116.756 28.018 116.838 28.246 116.838 28.542V29.07C116.838 29.362 116.756 29.59 116.592 29.754C116.428 29.918 116.198 30 115.902 30ZM118.498 29.49H118.906C119.194 29.49 119.338 29.342 119.338 29.046V28.566C119.338 28.27 119.194 28.122 118.906 28.122H118.066V29.046C118.066 29.342 118.21 29.49 118.498 29.49ZM118.99 30H118.414C118.118 30 117.888 29.918 117.724 29.754C117.56 29.59 117.478 29.362 117.478 29.07V27.072C117.478 26.776 117.56 26.548 117.724 26.388C117.888 26.224 118.118 26.142 118.414 26.142H119.608C119.676 26.142 119.71 26.176 119.71 26.244V26.556C119.71 26.62 119.676 26.652 119.608 26.652H118.498C118.21 26.652 118.066 26.8 118.066 27.096V27.612H118.99C119.286 27.612 119.516 27.694 119.68 27.858C119.844 28.018 119.926 28.246 119.926 28.542V29.07C119.926 29.362 119.844 29.59 119.68 29.754C119.516 29.918 119.286 30 118.99 30ZM121.148 30H120.734C120.658 30 120.64 29.962 120.68 29.886L121.964 26.682H120.452C120.384 26.682 120.35 26.646 120.35 26.574V26.244C120.35 26.176 120.384 26.142 120.452 26.142H122.486C122.558 26.142 122.594 26.176 122.594 26.244V26.616C122.594 26.68 122.572 26.764 122.528 26.868L121.316 29.904C121.292 29.968 121.236 30 121.148 30ZM123.615 29.166V29.634C123.615 29.73 123.577 29.85 123.501 29.994L123.183 30.576C123.167 30.612 123.137 30.63 123.093 30.63C123.037 30.63 123.009 30.598 123.009 30.534V29.166C123.009 29.102 123.043 29.07 123.111 29.07H123.519C123.583 29.07 123.615 29.102 123.615 29.166ZM125.896 28.752V26.628L124.714 28.752H125.896ZM126.352 30H125.998C125.93 30 125.896 29.966 125.896 29.898V29.268H124.312C124.196 29.268 124.138 29.21 124.138 29.094V28.908C124.138 28.82 124.156 28.742 124.192 28.674L125.53 26.292C125.562 26.232 125.592 26.192 125.62 26.172C125.648 26.152 125.69 26.142 125.746 26.142H126.274C126.39 26.142 126.448 26.2 126.448 26.316V28.752H126.886C126.954 28.752 126.988 28.786 126.988 28.854V29.154C126.988 29.23 126.954 29.268 126.886 29.268H126.448V29.898C126.448 29.966 126.416 30 126.352 30ZM129.095 28.752V26.628L127.913 28.752H129.095ZM129.551 30H129.197C129.129 30 129.095 29.966 129.095 29.898V29.268H127.511C127.395 29.268 127.337 29.21 127.337 29.094V28.908C127.337 28.82 127.355 28.742 127.391 28.674L128.729 26.292C128.761 26.232 128.791 26.192 128.819 26.172C128.847 26.152 128.889 26.142 128.945 26.142H129.473C129.589 26.142 129.647 26.2 129.647 26.316V28.752H130.085C130.153 28.752 130.187 28.786 130.187 28.854V29.154C130.187 29.23 130.153 29.268 130.085 29.268H129.647V29.898C129.647 29.966 129.615 30 129.551 30ZM130.669 30.492V30.288C130.669 30.22 130.703 30.186 130.771 30.186H131.161C131.205 30.186 131.227 30.166 131.227 30.126V26.616C131.227 26.572 131.205 26.55 131.161 26.55H130.771C130.703 26.55 130.669 26.516 130.669 26.448V26.244C130.669 26.176 130.703 26.142 130.771 26.142H131.611C131.675 26.142 131.707 26.176 131.707 26.244V30.486C131.707 30.558 131.675 30.594 131.611 30.594H130.771C130.703 30.594 130.669 30.56 130.669 30.492Z"/></g></svg>