<svg xmlns="http://www.w3.org/2000/svg" width="241" height="53" fill="none" viewBox="0 0 241 53"><path fill="#05091A" d="M0 0H89V53H0V0Z"/><path fill="#05091A" d="M89 0H114V53H89V0Z"/><path fill="#050819" d="M114 0H134V53H114V0Z"/><path fill="#05091A" d="M134 0H154V53H134V0Z"/><path fill="#06091C" d="M154 0H164V53H154V0Z"/><path fill="#060A1F" d="M164 0H177V53H164V0Z"/><path fill="#070B21" d="M177 0H186V53H177V0Z"/><path fill="#070C24" d="M186 0H195V53H186V0Z"/><path fill="#080E29" d="M195 0H203V53H195V0Z"/><path fill="#0A1030" d="M203 0H214V53H203V0Z"/><path fill="#0C143B" d="M214 0H225V53H214V0Z"/><path fill="#0D1540" d="M225 0H233V53H225V0Z"/><path fill="#0F194A" d="M233 0H237V53H233V0Z"/><path fill="#101B52" d="M237 0H241V53H237V0Z"/></svg>