<svg width="241" height="53" viewBox="0 0 241 53" fill="none" xmlns="http://www.w3.org/2000/svg">
<path d="M0 0H10V53H0V0Z" fill="#05091A"/>
<path d="M10 0H35V53H10V0Z" fill="#05091A"/>
<path d="M35 0H55V53H35V0Z" fill="#05091A"/>
<path d="M55 0H73V53H55V0Z" fill="#06091C"/>
<path d="M73 0H96V53H73V0Z" fill="#060A1F"/>
<path d="M96 0H119V53H96V0Z" fill="#070C24"/>
<path d="M119 0H142V53H119V0Z" fill="#080E29"/>
<path d="M142 0H169V53H142V0Z" fill="#0A1030"/>
<path d="M169 0H205V53H169V0Z" fill="#0C143B"/>
<path d="M205 0H237V53H205V0Z" fill="#0F194A"/>
<path d="M237 0H241V53H237V0Z" fill="#101B52"/>
</svg>
