<svg width="241" height="53" viewBox="0 0 241 53" fill="none" xmlns="http://www.w3.org/2000/svg">
<path d="M0 0H25V53H0V0Z" fill="#05091A"/>
<path d="M25 0H50V53H25V0Z" fill="#05091A"/>
<path d="M50 0H70V53H50V0Z" fill="#06091C"/>
<path d="M70 0H90V53H70V0Z" fill="#06091C"/>
<path d="M90 0H113V53H90V0Z" fill="#060A1F"/>
<path d="M113 0H120.5V53H113V0Z" fill="#070B21"/>
<path d="M120.5 0H128V53H120.5V0Z" fill="#070B21"/>
<path d="M128 0H145V53H128V0Z" fill="#070C24"/>
<path d="M145 0H158V53H145V0Z" fill="#080D26"/>
<path d="M158 0H175V53H158V0Z" fill="#090E2B"/>
<path d="M175 0H185V53H175V0Z" fill="#090F2E"/>
<path d="M185 0H192V53H185V0Z" fill="#0A1133"/>
<path d="M192 0H206V53H192V0Z" fill="#0B1236"/>
<path d="M206 0H217V53H206V0Z" fill="#0C143B"/>
<path d="M217 0H230V53H217V0Z" fill="#0D1540"/>
<path d="M230 0H233V53H230V0Z" fill="#0E1745"/>
<path d="M233 0H237V53H233V0Z" fill="#0F194A"/>
<path d="M237 0H241V53H237V0Z" fill="#101B52"/>
</svg>
