<svg width="241" height="53" viewBox="0 0 241 53" fill="none" xmlns="http://www.w3.org/2000/svg">
<path d="M0 0H89V53H0V0Z" fill="#05091A"/>
<path d="M89 0H114V53H89V0Z" fill="#05091A"/>
<path d="M114 0H134V53H114V0Z" fill="#050819"/>
<path d="M134 0H154V53H134V0Z" fill="#05091A"/>
<path d="M154 0H164V53H154V0Z" fill="#06091C"/>
<path d="M164 0H177V53H164V0Z" fill="#060A1F"/>
<path d="M177 0H186V53H177V0Z" fill="#070B21"/>
<path d="M186 0H195V53H186V0Z" fill="#070C24"/>
<path d="M195 0H203V53H195V0Z" fill="#080E29"/>
<path d="M203 0H214V53H203V0Z" fill="#0A1030"/>
<path d="M214 0H225V53H214V0Z" fill="#0C143B"/>
<path d="M225 0H233V53H225V0Z" fill="#0D1540"/>
<path d="M233 0H237V53H233V0Z" fill="#0F194A"/>
<path d="M237 0H241V53H237V0Z" fill="#101B52"/>
</svg>
