<svg xmlns="http://www.w3.org/2000/svg" width="241" height="53" fill="none" viewBox="0 0 241 53"><path fill="#05091A" d="M0 0H24V53H0V0Z"/><path fill="#05091A" d="M24 0H49V53H24V0Z"/><path fill="#050819" d="M49 0H69V53H49V0Z"/><path fill="#05091A" d="M69 0H89V53H69V0Z"/><path fill="#06091C" d="M89 0H107V53H89V0Z"/><path fill="#060A1F" d="M107 0H130V53H107V0Z"/><path fill="#070B21" d="M130 0H153V53H130V0Z"/><path fill="#070C24" d="M153 0H162V53H153V0Z"/><path fill="#080E29" d="M162 0H185V53H162V0Z"/><path fill="#0A1030" d="M185 0H202V53H185V0Z"/><path fill="#0C143B" d="M202 0H219V53H202V0Z"/><path fill="#0F194A" d="M219 0H237V53H219V0Z"/><path fill="#101B52" d="M237 0H241V53H237V0Z"/></svg>