<svg xmlns="http://www.w3.org/2000/svg" width="241" height="53" fill="none" viewBox="0 0 241 53"><path fill="#05091A" d="M0 0H10V53H0V0Z"/><path fill="#05091A" d="M10 0H35V53H10V0Z"/><path fill="#05091A" d="M35 0H55V53H35V0Z"/><path fill="#06091C" d="M55 0H73V53H55V0Z"/><path fill="#060A1F" d="M73 0H96V53H73V0Z"/><path fill="#070C24" d="M96 0H119V53H96V0Z"/><path fill="#080E29" d="M119 0H142V53H119V0Z"/><path fill="#0A1030" d="M142 0H169V53H142V0Z"/><path fill="#0C143B" d="M169 0H205V53H169V0Z"/><path fill="#0F194A" d="M205 0H237V53H205V0Z"/><path fill="#101B52" d="M237 0H241V53H237V0Z"/></svg>