<svg xmlns="http://www.w3.org/2000/svg" width="241" height="53" fill="none" viewBox="0 0 241 53"><path fill="#05091A" d="M0 0H25V53H0V0Z"/><path fill="#05091A" d="M25 0H50V53H25V0Z"/><path fill="#06091C" d="M50 0H70V53H50V0Z"/><path fill="#06091C" d="M70 0H90V53H70V0Z"/><path fill="#060A1F" d="M90 0H113V53H90V0Z"/><path fill="#070B21" d="M113 0H120.5V53H113V0Z"/><path fill="#070B21" d="M120.5 0H128V53H120.5V0Z"/><path fill="#070C24" d="M128 0H145V53H128V0Z"/><path fill="#080D26" d="M145 0H158V53H145V0Z"/><path fill="#090E2B" d="M158 0H175V53H158V0Z"/><path fill="#090F2E" d="M175 0H185V53H175V0Z"/><path fill="#0A1133" d="M185 0H192V53H185V0Z"/><path fill="#0B1236" d="M192 0H206V53H192V0Z"/><path fill="#0C143B" d="M206 0H217V53H206V0Z"/><path fill="#0D1540" d="M217 0H230V53H217V0Z"/><path fill="#0E1745" d="M230 0H233V53H230V0Z"/><path fill="#0F194A" d="M233 0H237V53H233V0Z"/><path fill="#101B52" d="M237 0H241V53H237V0Z"/></svg>