<svg width="241" height="53" viewBox="0 0 241 53" fill="none" xmlns="http://www.w3.org/2000/svg">
<path d="M0 0H24V53H0V0Z" fill="#05091A"/>
<path d="M24 0H49V53H24V0Z" fill="#05091A"/>
<path d="M49 0H69V53H49V0Z" fill="#050819"/>
<path d="M69 0H89V53H69V0Z" fill="#05091A"/>
<path d="M89 0H107V53H89V0Z" fill="#06091C"/>
<path d="M107 0H130V53H107V0Z" fill="#060A1F"/>
<path d="M130 0H153V53H130V0Z" fill="#070B21"/>
<path d="M153 0H162V53H153V0Z" fill="#070C24"/>
<path d="M162 0H185V53H162V0Z" fill="#080E29"/>
<path d="M185 0H202V53H185V0Z" fill="#0A1030"/>
<path d="M202 0H219V53H202V0Z" fill="#0C143B"/>
<path d="M219 0H237V53H219V0Z" fill="#0F194A"/>
<path d="M237 0H241V53H237V0Z" fill="#101B52"/>
</svg>
