<svg xmlns="http://www.w3.org/2000/svg" width="13" height="12" fill="none" viewBox="0 0 13 12"><g clip-path="url(#clip0_865_1243)"><path fill="#9EA6CC" fill-rule="evenodd" d="M11.1343 2.40002L9.41675 0.683221L9.98315 0.116821L12.3831 2.51682C12.4204 2.55398 12.45 2.59812 12.4701 2.64671C12.4903 2.69531 12.5007 2.74741 12.5007 2.80002C12.5007 2.85264 12.4903 2.90473 12.4701 2.95333C12.45 3.00192 12.4204 3.04607 12.3831 3.08322L9.98315 5.48322L9.41675 4.91682L11.1343 3.20002H3.29995C2.76952 3.20002 2.26081 3.41074 1.88573 3.78581C1.51066 4.16088 1.29995 4.66959 1.29995 5.20002V6.40002H0.499948V5.20002C0.499948 4.45742 0.794948 3.74522 1.32005 3.22012C1.84515 2.69502 2.55734 2.40002 3.29995 2.40002H11.1343ZM12.4999 5.60002V6.80002C12.4999 7.54263 12.2049 8.25482 11.6798 8.77992C11.1547 9.30502 10.4426 9.60002 9.69995 9.60002H1.86555L3.58315 11.3168L3.01675 11.8832L0.616748 9.48322C0.54176 9.40821 0.499634 9.30649 0.499634 9.20042C0.499634 9.09436 0.54176 8.99263 0.616748 8.91762L3.01675 6.51762L3.58315 7.08322L1.86555 8.80002H9.69995C10.2304 8.80002 10.7391 8.58931 11.1142 8.21424C11.4892 7.83916 11.6999 7.33045 11.6999 6.80002V5.60002H12.4999Z" clip-rule="evenodd"/></g><defs><clipPath id="clip0_865_1243"><rect width="12" height="12" fill="#fff" transform="translate(0.5)"/></clipPath></defs></svg>