<svg xmlns="http://www.w3.org/2000/svg" width="182" height="36" fill="none" viewBox="0 0 182 36"><g opacity=".3"><rect width="10.14" height="1.3" y=".6" fill="#C6CFFF"/><rect width="10.14" height="1.3" y="7.6" fill="#C6CFFF"/><rect width="10.14" height="1.3" y="14.6" fill="#C6CFFF"/><rect width="10.14" height="1.3" y="18.1" fill="#C6CFFF"/><rect width="10.4" height="1.3" x="10.14" y="4.1" fill="#C6CFFF"/><rect width="10.4" height="1.3" x="10.14" y="11.1" fill="#C6CFFF"/><rect width="10.14" height="1.3" x="20.54" y="7.6" fill="#C6CFFF"/><rect width="10.14" height="1.3" x="20.54" y="14.6" fill="#C6CFFF"/><rect width="10.14" height="1.3" fill="#C6CFFF" transform="matrix(1 0 0 -1 30.68 19.4001)"/><rect width="10.14" height="1.3" fill="#C6CFFF" transform="matrix(1 0 0 -1 30.68 12.4001)"/><rect width="10.14" height="1.3" fill="#C6CFFF" transform="matrix(1 0 0 -1 30.68 5.40015)"/><rect width="10.14" height="1.3" fill="#C6CFFF" transform="matrix(1 0 0 -1 30.68 1.90015)"/><path fill="#C6CFFF" d="M0.4225 22.8501H3.276L3.9715 23.5521V25.1446L3.2695 25.8531H1.3065V27.4001H0.4225V22.8501ZM2.873 25.1121L3.1005 24.8846V23.8186L2.873 23.5911H1.3065V25.1121H2.873ZM8.97965 25.8921V27.4001H8.09565V26.0936L7.70565 25.6581H6.28865V27.4001H5.40465V22.8501H8.25815L8.95365 23.5521V24.9301L8.51165 25.3786L8.97965 25.8921ZM6.28865 24.9301H7.85515L8.08265 24.7026V23.8186L7.85515 23.5911H6.28865V24.9301ZM10.5059 26.6526V23.5976L11.2534 22.8501H13.5934L14.3409 23.5976V26.6526L13.5934 27.4001H11.2534L10.5059 26.6526ZM13.1254 26.6461L13.4569 26.3146V23.9356L13.1254 23.6041H11.7214L11.3899 23.9356V26.3146L11.7214 26.6461H13.1254ZM16.8404 23.5976H15.4819V22.8501H19.0829V23.5976H17.7244V27.4001H16.8404V23.5976ZM20.2226 26.6526V23.5976L20.9701 22.8501H23.3101L24.0576 23.5976V26.6526L23.3101 27.4001H20.9701L20.2226 26.6526ZM22.8421 26.6461L23.1736 26.3146V23.9356L22.8421 23.6041H21.4381L21.1066 23.9356V26.3146L21.4381 26.6461H22.8421ZM25.5539 26.6526V23.5976L26.3014 22.8501H28.5244L29.2589 23.5846V24.2801H28.3749V23.9096L28.0694 23.6041H26.7694L26.4379 23.9356V26.3146L26.7694 26.6461H28.0694L28.3749 26.3406V25.9701H29.2589V26.6656L28.5244 27.4001H26.3014L25.5539 26.6526ZM30.5932 26.6526V23.5976L31.3407 22.8501H33.6807L34.4282 23.5976V26.6526L33.6807 27.4001H31.3407L30.5932 26.6526ZM33.2127 26.6461L33.5442 26.3146V23.9356L33.2127 23.6041H31.8087L31.4772 23.9356V26.3146L31.8087 26.6461H33.2127ZM35.9894 22.8501H36.8734V26.6526H39.1484V27.4001H35.9894V22.8501ZM1.6185 32.0536L0.0975 29.8501H1.092L2.119 31.3451L3.146 29.8501H4.1405L2.6195 32.0796L4.2055 34.4001H3.211L2.119 32.7946L1.027 34.4001H0.0325L1.6185 32.0536ZM4.95523 33.6981V33.1196H5.83923V33.4186L6.06673 33.6461H7.17173L7.39923 33.4186V32.3721L7.02873 32.7426H5.59223L4.89023 32.0406V30.5521L5.59223 29.8501H7.58123L8.28323 30.5521V33.6981L7.58123 34.4001H5.65723L4.95523 33.6981ZM6.97673 31.9886L7.39923 31.5661V30.8316L7.17173 30.6041H6.00173L5.77423 30.8316V31.7611L6.00173 31.9886H6.97673ZM9.22543 32.3591H11.5134V33.1001H9.22543V32.3591ZM13.2401 30.7926L12.2586 31.2996V30.4871L13.4156 29.8501H14.1241V34.4001H13.2401V30.7926ZM16.047 30.7926L15.0655 31.2996V30.4871L16.2225 29.8501H16.931V34.4001H16.047V30.7926ZM20.0175 30.6626V30.6041H17.7425V29.8501H20.9405V30.6821L19.114 34.4001H18.178L20.0175 30.6626ZM21.399 32.3591H23.687V33.1001H21.399V32.3591ZM25.9661 29.8501H26.7721L28.4361 34.4001H27.5391L27.1686 33.3926H25.5696L25.1991 34.4001H24.3021L25.9661 29.8501ZM26.9736 32.6646L26.3691 30.9356H26.3561L25.7711 32.6646H26.9736ZM31.0588 33.5551H28.8618V32.6646L30.8833 29.8501H31.9428V32.8011H32.4953V33.5551H31.9428V34.4001H31.0588V33.5551ZM31.0978 32.8271V30.8381H31.0718L29.7263 32.7361V32.8271H31.0978ZM33.1784 33.6981V32.9571H34.0624V33.4316L34.2769 33.6461H35.4339L35.6484 33.4316V32.4046L35.4339 32.1901H33.2434V29.8501H36.4414V30.6041H34.1144V31.4361H35.8239L36.5324 32.1446V33.6981L35.8304 34.4001H33.8804L33.1784 33.6981Z"/><path fill="#C6CFFF" d="M45.6516 6H45.0468C44.9712 6 44.946 5.9559 44.9712 5.8677L45.9666 2.0814C45.996 1.9932 46.059 1.9491 46.1556 1.9491H46.9935C47.0985 1.9491 47.1615 1.9932 47.1825 2.0814L48.1779 5.8677C48.2031 5.9559 48.1779 6 48.1023 6H47.4975C47.4513 6 47.4198 5.9916 47.403 5.9748C47.3862 5.9538 47.3736 5.9181 47.3652 5.8677L47.1888 5.1747H45.9603L45.7839 5.8677C45.7755 5.9181 45.7608 5.9538 45.7398 5.9748C45.723 5.9916 45.6936 6 45.6516 6ZM46.5651 2.7114L46.1115 4.5321H47.0439L46.5903 2.7114H46.5651ZM50.998 1.9491H51.5272C51.6196 1.9491 51.6658 1.9911 51.6658 2.0751V4.9731C51.6658 5.3007 51.5734 5.5548 51.3886 5.7354C51.208 5.9118 50.9539 6 50.6263 6H49.9333C49.6015 6 49.3453 5.9118 49.1647 5.7354C48.9841 5.559 48.8938 5.3049 48.8938 4.9731V2.0814C48.8938 1.9932 48.9379 1.9491 49.0261 1.9491H49.5616C49.6498 1.9491 49.6939 1.9932 49.6939 2.0814V4.9353C49.6939 5.0697 49.7212 5.1663 49.7758 5.2251C49.8346 5.2797 49.9291 5.307 50.0593 5.307H50.494C50.6284 5.307 50.7229 5.2797 50.7775 5.2251C50.8363 5.1663 50.8657 5.0697 50.8657 4.9353V2.0814C50.8657 1.9932 50.9098 1.9491 50.998 1.9491ZM53.8933 6H53.3641C53.2717 6 53.2255 5.9559 53.2255 5.8677V2.7114C53.2255 2.6652 53.2024 2.6421 53.1562 2.6421H52.438C52.3498 2.6421 52.3057 2.598 52.3057 2.5098V2.0814C52.3057 1.9932 52.3498 1.9491 52.438 1.9491H54.8194C54.9076 1.9491 54.9517 1.9932 54.9517 2.0814V2.5098C54.9517 2.598 54.9076 2.6421 54.8194 2.6421H54.1012C54.0508 2.6421 54.0256 2.6652 54.0256 2.7114V5.8677C54.0256 5.9559 53.9815 6 53.8933 6ZM56.2896 6H55.7541C55.6659 6 55.6218 5.9559 55.6218 5.8677V2.0814C55.6218 1.9932 55.6659 1.9491 55.7541 1.9491H56.2896C56.3778 1.9491 56.4219 1.9932 56.4219 2.0814V3.5619C56.4219 3.6081 56.4471 3.6312 56.4975 3.6312H57.5622C57.6084 3.6312 57.6315 3.6081 57.6315 3.5619V2.0814C57.6315 1.9932 57.6756 1.9491 57.7638 1.9491H58.2993C58.3875 1.9491 58.4316 1.9932 58.4316 2.0814V5.8677C58.4316 5.9559 58.3875 6 58.2993 6H57.7638C57.6756 6 57.6315 5.9559 57.6315 5.8677V4.3935C57.6315 4.3473 57.6084 4.3242 57.5622 4.3242H56.4975C56.4471 4.3242 56.4219 4.3473 56.4219 4.3935V5.8677C56.4219 5.9559 56.3778 6 56.2896 6ZM60.5432 5.307H60.9905C61.1249 5.307 61.2194 5.2797 61.274 5.2251C61.3328 5.1663 61.3622 5.0697 61.3622 4.9353V3.0138C61.3622 2.8794 61.3328 2.7849 61.274 2.7303C61.2194 2.6715 61.1249 2.6421 60.9905 2.6421H60.5432C60.4088 2.6421 60.3143 2.6715 60.2597 2.7303C60.2051 2.7849 60.1778 2.8794 60.1778 3.0138V4.9353C60.1778 5.0697 60.2051 5.1663 60.2597 5.2251C60.3143 5.2797 60.4088 5.307 60.5432 5.307ZM61.1228 6H60.4172C60.0854 6 59.8292 5.9118 59.6486 5.7354C59.468 5.559 59.3777 5.3049 59.3777 4.9731V2.976C59.3777 2.6442 59.468 2.3901 59.6486 2.2137C59.8292 2.0373 60.0854 1.9491 60.4172 1.9491H61.1228C61.4546 1.9491 61.7108 2.0373 61.8914 2.2137C62.072 2.3901 62.1623 2.6442 62.1623 2.976V4.9731C62.1623 5.3049 62.072 5.559 61.8914 5.7354C61.7108 5.9118 61.4546 6 61.1228 6ZM63.7736 6H63.2381C63.1499 6 63.1058 5.9559 63.1058 5.8677V2.0814C63.1058 1.9932 63.1499 1.9491 63.2381 1.9491H64.7375C65.0651 1.9491 65.3213 2.0394 65.5061 2.22C65.6909 2.4006 65.7833 2.6547 65.7833 2.9823V3.4737C65.7833 3.9483 65.5964 4.2633 65.2226 4.4187V4.4439L65.8967 5.8488C65.9345 5.9496 65.8988 6 65.7896 6H65.2793C65.2037 6 65.1491 5.9916 65.1155 5.9748C65.0819 5.958 65.0546 5.9223 65.0336 5.8677L64.4036 4.5069H63.9815C63.9311 4.5069 63.9059 4.53 63.9059 4.5762V5.8677C63.9059 5.9559 63.8618 6 63.7736 6ZM63.9752 3.8643H64.5926C64.727 3.8643 64.8257 3.837 64.8887 3.7824C64.9517 3.7236 64.9832 3.6312 64.9832 3.5052V3.0138C64.9832 2.8836 64.9517 2.7891 64.8887 2.7303C64.8257 2.6715 64.727 2.6421 64.5926 2.6421H63.9752C63.929 2.6421 63.9059 2.6652 63.9059 2.7114V3.795C63.9059 3.8412 63.929 3.8643 63.9752 3.8643ZM67.5717 2.0814V5.8677C67.5717 5.9559 67.5276 6 67.4394 6H66.9039C66.8157 6 66.7716 5.9559 66.7716 5.8677V2.0814C66.7716 1.9932 66.8157 1.9491 66.9039 1.9491H67.4394C67.5276 1.9491 67.5717 1.9932 67.5717 2.0814ZM68.5016 5.8677V5.4897C68.5016 5.3511 68.5289 5.2482 68.5835 5.181L70.253 2.7177V2.6925H68.7473C68.6591 2.6925 68.615 2.6484 68.615 2.5602V2.0814C68.615 1.9932 68.6591 1.9491 68.7473 1.9491H70.9838C71.0678 1.9491 71.1098 1.9932 71.1098 2.0814V2.6232C71.1098 2.7492 71.0783 2.8584 71.0153 2.9508L69.4466 5.2314V5.2566H71.0468C71.1308 5.2566 71.1728 5.2965 71.1728 5.3763V5.8551C71.1728 5.9517 71.1308 6 71.0468 6H68.6339C68.5457 6 68.5016 5.9559 68.5016 5.8677ZM74.2754 6H72.2153C72.1271 6 72.083 5.9559 72.083 5.8677V2.0814C72.083 1.9932 72.1271 1.9491 72.2153 1.9491H74.2754C74.3594 1.9491 74.4014 1.9932 74.4014 2.0814V2.5098C74.4014 2.598 74.3594 2.6421 74.2754 2.6421H72.9587C72.9083 2.6421 72.8831 2.6652 72.8831 2.7114V3.5304C72.8831 3.5766 72.9083 3.5997 72.9587 3.5997H74.036C74.1242 3.5997 74.1683 3.6438 74.1683 3.732V4.1604C74.1683 4.2486 74.1242 4.2927 74.036 4.2927H72.9587C72.9083 4.2927 72.8831 4.3158 72.8831 4.362V5.2377C72.8831 5.2839 72.9083 5.307 72.9587 5.307H74.2754C74.3594 5.307 74.4014 5.3511 74.4014 5.4393V5.8677C74.4014 5.9559 74.3594 6 74.2754 6ZM76.1561 5.307H76.8428C76.9772 5.307 77.0717 5.2797 77.1263 5.2251C77.1851 5.1663 77.2145 5.0697 77.2145 4.9353V3.0138C77.2145 2.8794 77.1851 2.7849 77.1263 2.7303C77.0717 2.6715 76.9772 2.6421 76.8428 2.6421H76.1561C76.1099 2.6421 76.0868 2.6652 76.0868 2.7114V5.2377C76.0868 5.2839 76.1099 5.307 76.1561 5.307ZM75.2867 5.8677V2.0814C75.2867 1.9932 75.3308 1.9491 75.419 1.9491H76.9751C77.3027 1.9491 77.5568 2.0394 77.7374 2.22C77.9222 2.3964 78.0146 2.6484 78.0146 2.976V4.9731C78.0146 5.3007 77.9222 5.5548 77.7374 5.7354C77.5568 5.9118 77.3027 6 76.9751 6H75.419C75.3308 6 75.2867 5.9559 75.2867 5.8677ZM81.199 6H80.6635C80.5753 6 80.5312 5.9559 80.5312 5.8677V2.0814C80.5312 1.9932 80.5753 1.9491 80.6635 1.9491H82.2007C82.5283 1.9491 82.7824 2.0394 82.963 2.22C83.1436 2.3964 83.2339 2.6484 83.2339 2.976V3.5808C83.2339 3.9084 83.1436 4.1625 82.963 4.3431C82.7824 4.5195 82.5283 4.6077 82.2007 4.6077H81.4069C81.3565 4.6077 81.3313 4.6308 81.3313 4.677V5.8677C81.3313 5.9559 81.2872 6 81.199 6ZM81.4006 3.9084H82.0684C82.2028 3.9084 82.2973 3.8811 82.3519 3.8265C82.4065 3.7677 82.4338 3.6732 82.4338 3.543V3.0138C82.4338 2.8794 82.4065 2.7849 82.3519 2.7303C82.2973 2.6715 82.2028 2.6421 82.0684 2.6421H81.4006C81.3544 2.6421 81.3313 2.6652 81.3313 2.7114V3.8391C81.3313 3.8853 81.3544 3.9084 81.4006 3.9084ZM86.2533 6H84.1932C84.105 6 84.0609 5.9559 84.0609 5.8677V2.0814C84.0609 1.9932 84.105 1.9491 84.1932 1.9491H86.2533C86.3373 1.9491 86.3793 1.9932 86.3793 2.0814V2.5098C86.3793 2.598 86.3373 2.6421 86.2533 2.6421H84.9366C84.8862 2.6421 84.861 2.6652 84.861 2.7114V3.5304C84.861 3.5766 84.8862 3.5997 84.9366 3.5997H86.0139C86.1021 3.5997 86.1462 3.6438 86.1462 3.732V4.1604C86.1462 4.2486 86.1021 4.2927 86.0139 4.2927H84.9366C84.8862 4.2927 84.861 4.3158 84.861 4.362V5.2377C84.861 5.2839 84.8862 5.307 84.9366 5.307H86.2533C86.3373 5.307 86.3793 5.3511 86.3793 5.4393V5.8677C86.3793 5.9559 86.3373 6 86.2533 6ZM87.9323 6H87.3968C87.3086 6 87.2645 5.9559 87.2645 5.8677V2.0814C87.2645 1.9932 87.3086 1.9491 87.3968 1.9491H88.8962C89.2238 1.9491 89.48 2.0394 89.6648 2.22C89.8496 2.4006 89.942 2.6547 89.942 2.9823V3.4737C89.942 3.9483 89.7551 4.2633 89.3813 4.4187V4.4439L90.0554 5.8488C90.0932 5.9496 90.0575 6 89.9483 6H89.438C89.3624 6 89.3078 5.9916 89.2742 5.9748C89.2406 5.958 89.2133 5.9223 89.1923 5.8677L88.5623 4.5069H88.1402C88.0898 4.5069 88.0646 4.53 88.0646 4.5762V5.8677C88.0646 5.9559 88.0205 6 87.9323 6ZM88.1339 3.8643H88.7513C88.8857 3.8643 88.9844 3.837 89.0474 3.7824C89.1104 3.7236 89.1419 3.6312 89.1419 3.5052V3.0138C89.1419 2.8836 89.1104 2.7891 89.0474 2.7303C88.9844 2.6715 88.8857 2.6421 88.7513 2.6421H88.1339C88.0877 2.6421 88.0646 2.6652 88.0646 2.7114V3.795C88.0646 3.8412 88.0877 3.8643 88.1339 3.8643ZM90.798 4.9668V4.8408C90.798 4.7526 90.8421 4.7085 90.9303 4.7085H91.4658C91.554 4.7085 91.5981 4.7526 91.5981 4.8408V4.8912C91.5981 5.0508 91.6296 5.16 91.6926 5.2188C91.7556 5.2776 91.8711 5.307 92.0391 5.307H92.3352C92.499 5.307 92.6124 5.2755 92.6754 5.2125C92.7426 5.1495 92.7762 5.0319 92.7762 4.8597V4.7841C92.7762 4.6623 92.7258 4.5699 92.625 4.5069C92.5284 4.4397 92.4066 4.3998 92.2596 4.3872C92.1126 4.3746 91.953 4.3515 91.7808 4.3179C91.6128 4.2801 91.4553 4.2339 91.3083 4.1793C91.1613 4.1205 91.0374 4.0092 90.9366 3.8454C90.84 3.6774 90.7917 3.4632 90.7917 3.2028V2.9823C90.7917 2.6547 90.8841 2.4006 91.0689 2.22C91.2537 2.0394 91.5099 1.9491 91.8375 1.9491H92.4675C92.7993 1.9491 93.0576 2.0394 93.2424 2.22C93.4272 2.4006 93.5196 2.6547 93.5196 2.9823V3.102C93.5196 3.1902 93.4755 3.2343 93.3873 3.2343H92.8518C92.7636 3.2343 92.7195 3.1902 92.7195 3.102V3.0642C92.7195 2.9004 92.688 2.7891 92.625 2.7303C92.562 2.6715 92.4465 2.6421 92.2785 2.6421H92.0328C91.8606 2.6421 91.743 2.6757 91.68 2.7429C91.6212 2.8059 91.5918 2.9319 91.5918 3.1209V3.2406C91.5918 3.438 91.764 3.5514 92.1084 3.5808C92.4654 3.6102 92.7825 3.6816 93.0597 3.795C93.2067 3.858 93.3285 3.9714 93.4251 4.1352C93.5259 4.2948 93.5763 4.5006 93.5763 4.7526V4.9668C93.5763 5.2944 93.4839 5.5485 93.2991 5.7291C93.1143 5.9097 92.8581 6 92.5305 6H91.8438C91.5162 6 91.26 5.9097 91.0752 5.7291C90.8904 5.5485 90.798 5.2944 90.798 4.9668ZM95.5864 5.307H96.0337C96.1681 5.307 96.2626 5.2797 96.3172 5.2251C96.376 5.1663 96.4054 5.0697 96.4054 4.9353V3.0138C96.4054 2.8794 96.376 2.7849 96.3172 2.7303C96.2626 2.6715 96.1681 2.6421 96.0337 2.6421H95.5864C95.452 2.6421 95.3575 2.6715 95.3029 2.7303C95.2483 2.7849 95.221 2.8794 95.221 3.0138V4.9353C95.221 5.0697 95.2483 5.1663 95.3029 5.2251C95.3575 5.2797 95.452 5.307 95.5864 5.307ZM96.166 6H95.4604C95.1286 6 94.8724 5.9118 94.6918 5.7354C94.5112 5.559 94.4209 5.3049 94.4209 4.9731V2.976C94.4209 2.6442 94.5112 2.3901 94.6918 2.2137C94.8724 2.0373 95.1286 1.9491 95.4604 1.9491H96.166C96.4978 1.9491 96.754 2.0373 96.9346 2.2137C97.1152 2.3901 97.2055 2.6442 97.2055 2.976V4.9731C97.2055 5.3049 97.1152 5.559 96.9346 5.7354C96.754 5.9118 96.4978 6 96.166 6ZM98.8042 6H98.2813C98.1931 6 98.149 5.9559 98.149 5.8677V2.0814C98.149 1.9932 98.1931 1.9491 98.2813 1.9491H98.7538C98.842 1.9491 98.9008 1.9785 98.9302 2.0373L100.203 4.425H100.228V2.0814C100.228 1.9932 100.272 1.9491 100.36 1.9491H100.883C100.971 1.9491 101.016 1.9932 101.016 2.0814V5.8677C101.016 5.9559 100.971 6 100.883 6H100.423C100.331 6 100.264 5.958 100.222 5.874L98.9617 3.5304H98.9365V5.8677C98.9365 5.9559 98.8924 6 98.8042 6ZM102.678 6H102.156C102.067 6 102.023 5.9559 102.023 5.8677V2.0814C102.023 1.9932 102.067 1.9491 102.156 1.9491H102.628C102.716 1.9491 102.775 1.9785 102.804 2.0373L104.077 4.425H104.102V2.0814C104.102 1.9932 104.146 1.9491 104.235 1.9491H104.757C104.846 1.9491 104.89 1.9932 104.89 2.0814V5.8677C104.89 5.9559 104.846 6 104.757 6H104.298C104.205 6 104.138 5.958 104.096 5.874L102.836 3.5304H102.811V5.8677C102.811 5.9559 102.767 6 102.678 6ZM108.09 6H106.03C105.942 6 105.898 5.9559 105.898 5.8677V2.0814C105.898 1.9932 105.942 1.9491 106.03 1.9491H108.09C108.174 1.9491 108.216 1.9932 108.216 2.0814V2.5098C108.216 2.598 108.174 2.6421 108.09 2.6421H106.773C106.723 2.6421 106.698 2.6652 106.698 2.7114V3.5304C106.698 3.5766 106.723 3.5997 106.773 3.5997H107.851C107.939 3.5997 107.983 3.6438 107.983 3.732V4.1604C107.983 4.2486 107.939 4.2927 107.851 4.2927H106.773C106.723 4.2927 106.698 4.3158 106.698 4.362V5.2377C106.698 5.2839 106.723 5.307 106.773 5.307H108.09C108.174 5.307 108.216 5.3511 108.216 5.4393V5.8677C108.216 5.9559 108.174 6 108.09 6ZM111.306 6H109.233C109.145 6 109.101 5.9559 109.101 5.8677V2.0814C109.101 1.9932 109.145 1.9491 109.233 1.9491H109.769C109.857 1.9491 109.901 1.9932 109.901 2.0814V5.2314C109.901 5.2776 109.926 5.3007 109.977 5.3007H111.306C111.39 5.3007 111.432 5.3469 111.432 5.4393V5.8677C111.432 5.9559 111.39 6 111.306 6ZM114.796 5.307H115.243C115.378 5.307 115.472 5.2797 115.527 5.2251C115.586 5.1663 115.615 5.0697 115.615 4.9353V3.0138C115.615 2.8794 115.586 2.7849 115.527 2.7303C115.472 2.6715 115.378 2.6421 115.243 2.6421H114.796C114.662 2.6421 114.567 2.6715 114.513 2.7303C114.458 2.7849 114.431 2.8794 114.431 3.0138V4.9353C114.431 5.0697 114.458 5.1663 114.513 5.2251C114.567 5.2797 114.662 5.307 114.796 5.307ZM115.376 6H114.67C114.338 6 114.082 5.9118 113.901 5.7354C113.721 5.559 113.631 5.3049 113.631 4.9731V2.976C113.631 2.6442 113.721 2.3901 113.901 2.2137C114.082 2.0373 114.338 1.9491 114.67 1.9491H115.376C115.707 1.9491 115.964 2.0373 116.144 2.2137C116.325 2.3901 116.415 2.6442 116.415 2.976V4.9731C116.415 5.3049 116.325 5.559 116.144 5.7354C115.964 5.9118 115.707 6 115.376 6ZM118.014 6H117.491C117.403 6 117.359 5.9559 117.359 5.8677V2.0814C117.359 1.9932 117.403 1.9491 117.491 1.9491H117.963C118.052 1.9491 118.11 1.9785 118.14 2.0373L119.412 4.425H119.438V2.0814C119.438 1.9932 119.482 1.9491 119.57 1.9491H120.093C120.181 1.9491 120.225 1.9932 120.225 2.0814V5.8677C120.225 5.9559 120.181 6 120.093 6H119.633C119.541 6 119.473 5.958 119.431 5.874L118.171 3.5304H118.146V5.8677C118.146 5.9559 118.102 6 118.014 6ZM123.438 6H121.365C121.277 6 121.233 5.9559 121.233 5.8677V2.0814C121.233 1.9932 121.277 1.9491 121.365 1.9491H121.901C121.989 1.9491 122.033 1.9932 122.033 2.0814V5.2314C122.033 5.2776 122.058 5.3007 122.109 5.3007H123.438C123.522 5.3007 123.564 5.3469 123.564 5.4393V5.8677C123.564 5.9559 123.522 6 123.438 6ZM125.739 6H125.203C125.115 6 125.071 5.9559 125.071 5.8677V4.5195L123.918 2.0877C123.901 2.0499 123.901 2.0184 123.918 1.9932C123.939 1.9638 123.968 1.9491 124.006 1.9491H124.674C124.741 1.9491 124.792 1.9932 124.825 2.0814L125.455 3.6123H125.499L126.117 2.0814C126.146 1.9932 126.197 1.9491 126.268 1.9491H126.936C126.978 1.9491 127.007 1.9617 127.024 1.9869C127.045 2.0121 127.045 2.0457 127.024 2.0877L125.871 4.5195V5.8677C125.871 5.9559 125.827 6 125.739 6ZM128.332 2.9067V3.6816C128.332 3.7698 128.292 3.8139 128.212 3.8139H127.651C127.567 3.8139 127.525 3.7656 127.525 3.669V2.913C127.525 2.829 127.567 2.787 127.651 2.787H128.212C128.292 2.787 128.332 2.8269 128.332 2.9067ZM128.332 5.0928V5.8677C128.332 5.9559 128.292 6 128.212 6H127.651C127.567 6 127.525 5.9538 127.525 5.8614V5.0991C127.525 5.0151 127.567 4.9731 127.651 4.9731H128.212C128.292 4.9731 128.332 5.013 128.332 5.0928ZM46.9242 15H46.1934C45.8826 15 45.6411 14.9139 45.4689 14.7417C45.3009 14.5695 45.2169 14.3301 45.2169 14.0235V11.9256C45.2169 11.6148 45.3009 11.3754 45.4689 11.2074C45.6411 11.0352 45.8826 10.9491 46.1934 10.9491H46.9242C47.2308 10.9491 47.4702 11.0352 47.6424 11.2074C47.8146 11.3754 47.9007 11.6148 47.9007 11.9256V12.228C47.9007 12.3036 47.8629 12.3414 47.7873 12.3414H47.3904C47.319 12.3414 47.2833 12.3036 47.2833 12.228V11.9508C47.2833 11.64 47.1321 11.4846 46.8297 11.4846H46.2816C45.9792 11.4846 45.828 11.64 45.828 11.9508V13.9983C45.828 14.3091 45.9792 14.4645 46.2816 14.4645H46.8297C47.1321 14.4645 47.2833 14.3091 47.2833 13.9983V13.7211C47.2833 13.6455 47.319 13.6077 47.3904 13.6077H47.7873C47.8629 13.6077 47.9007 13.6455 47.9007 13.7211V14.0235C47.9007 14.3301 47.8146 14.5695 47.6424 14.7417C47.4702 14.9139 47.2308 15 46.9242 15ZM50.5155 15H49.7847C49.4739 15 49.2324 14.9139 49.0602 14.7417C48.8922 14.5695 48.8082 14.3301 48.8082 14.0235V11.9256C48.8082 11.6148 48.8922 11.3754 49.0602 11.2074C49.2324 11.0352 49.4739 10.9491 49.7847 10.9491H50.5155C50.8221 10.9491 51.0615 11.0352 51.2337 11.2074C51.4059 11.3754 51.492 11.6148 51.492 11.9256V12.228C51.492 12.3036 51.4542 12.3414 51.3786 12.3414H50.9817C50.9103 12.3414 50.8746 12.3036 50.8746 12.228V11.9508C50.8746 11.64 50.7234 11.4846 50.421 11.4846H49.8729C49.5705 11.4846 49.4193 11.64 49.4193 11.9508V13.9983C49.4193 14.3091 49.5705 14.4645 49.8729 14.4645H50.421C50.7234 14.4645 50.8746 14.3091 50.8746 13.9983V13.7211C50.8746 13.6455 50.9103 13.6077 50.9817 13.6077H51.3786C51.4542 13.6077 51.492 13.6455 51.492 13.7211V14.0235C51.492 14.3301 51.4059 14.5695 51.2337 14.7417C51.0615 14.9139 50.8221 15 50.5155 15ZM53.3948 12.7131H53.7413C54.0521 12.7131 54.2075 12.5598 54.2075 12.2532V11.9256C54.2075 11.6232 54.0521 11.472 53.7413 11.472H53.3696C53.2142 11.472 53.0987 11.5077 53.0231 11.5791C52.9517 11.6505 52.916 11.766 52.916 11.9256V12.1083C52.916 12.1797 52.8803 12.2154 52.8089 12.2154H52.4057C52.3343 12.2154 52.2986 12.1797 52.2986 12.1083V11.913C52.2986 11.6064 52.3847 11.3691 52.5569 11.2011C52.7291 11.0331 52.9706 10.9491 53.2814 10.9491H53.8295C54.1403 10.9491 54.3818 11.0331 54.554 11.2011C54.7262 11.3691 54.8123 11.6064 54.8123 11.913V12.2595C54.8123 12.6291 54.6443 12.8643 54.3083 12.9651C54.6443 13.0449 54.8123 13.2801 54.8123 13.6707V14.0361C54.8123 14.3427 54.7262 14.58 54.554 14.748C54.3818 14.916 54.1403 15 53.8295 15H53.2814C52.9706 15 52.7291 14.916 52.5569 14.748C52.3847 14.58 52.2986 14.3427 52.2986 14.0361V13.8156C52.2986 13.74 52.3343 13.7022 52.4057 13.7022H52.8089C52.8803 13.7022 52.916 13.74 52.916 13.8156V14.0235C52.916 14.1789 52.9517 14.2944 53.0231 14.37C53.0987 14.4414 53.2142 14.4771 53.3696 14.4771H53.7413C54.0521 14.4771 54.2075 14.3259 54.2075 14.0235V13.677C54.2075 13.3704 54.0521 13.2171 53.7413 13.2171H53.3948C53.3234 13.2171 53.2877 13.1814 53.2877 13.11V12.8265C53.2877 12.7509 53.3234 12.7131 53.3948 12.7131ZM57.1049 12.858H56.7143C56.6345 12.858 56.5673 12.8727 56.5127 12.9021C56.4623 12.9315 56.4287 12.963 56.4119 12.9966C56.3657 13.0932 56.309 13.1415 56.2418 13.1415H55.8449C55.7735 13.1415 55.7378 13.1058 55.7378 13.0344V11.0562C55.7378 10.9848 55.7735 10.9491 55.8449 10.9491H57.9806C58.0562 10.9491 58.094 10.9848 58.094 11.0562V11.4153C58.094 11.4867 58.0562 11.5224 57.9806 11.5224H56.3552V12.669C56.4266 12.4632 56.603 12.3603 56.8844 12.3603H57.2561C57.5585 12.3603 57.7895 12.4401 57.9491 12.5997C58.1087 12.7551 58.1885 12.9861 58.1885 13.2927V14.0235C58.1885 14.3301 58.1024 14.5695 57.9302 14.7417C57.758 14.9139 57.5186 15 57.212 15H56.6765C56.3657 15 56.1242 14.9139 55.952 14.7417C55.784 14.5695 55.7 14.3301 55.7 14.0235V13.8597C55.7 13.7841 55.7357 13.7463 55.8071 13.7463H56.204C56.2754 13.7463 56.3111 13.7841 56.3111 13.8597V14.0172C56.3111 14.3238 56.4623 14.4771 56.7647 14.4771H57.1238C57.4346 14.4771 57.59 14.3238 57.59 14.0172V13.3809C57.59 13.1919 57.5522 13.0575 57.4766 12.9777C57.4052 12.8979 57.2813 12.858 57.1049 12.858ZM62.481 15H61.7502C61.4394 15 61.1979 14.9139 61.0257 14.7417C60.8577 14.5695 60.7737 14.3301 60.7737 14.0235V11.9256C60.7737 11.6148 60.8577 11.3754 61.0257 11.2074C61.1979 11.0352 61.4394 10.9491 61.7502 10.9491H62.481C62.7876 10.9491 63.027 11.0352 63.1992 11.2074C63.3714 11.3754 63.4575 11.6148 63.4575 11.9256V12.228C63.4575 12.3036 63.4197 12.3414 63.3441 12.3414H62.9472C62.8758 12.3414 62.8401 12.3036 62.8401 12.228V11.9508C62.8401 11.64 62.6889 11.4846 62.3865 11.4846H61.8384C61.536 11.4846 61.3848 11.64 61.3848 11.9508V13.9983C61.3848 14.3091 61.536 14.4645 61.8384 14.4645H62.3865C62.6889 14.4645 62.8401 14.3091 62.8401 13.9983V13.7211C62.8401 13.6455 62.8758 13.6077 62.9472 13.6077H63.3441C63.4197 13.6077 63.4575 13.6455 63.4575 13.7211V14.0235C63.4575 14.3301 63.3714 14.5695 63.1992 14.7417C63.027 14.9139 62.7876 15 62.481 15ZM66.5511 15H64.5351C64.4637 15 64.428 14.9643 64.428 14.8929V11.0562C64.428 10.9848 64.4637 10.9491 64.5351 10.9491H66.5511C66.6183 10.9491 66.6519 10.9848 66.6519 11.0562V11.3775C66.6519 11.4489 66.6183 11.4846 66.5511 11.4846H65.1147C65.0643 11.4846 65.0391 11.5056 65.0391 11.5476V12.6123C65.0391 12.6543 65.0643 12.6753 65.1147 12.6753H66.3306C66.4062 12.6753 66.444 12.711 66.444 12.7824V13.1037C66.444 13.1751 66.4062 13.2108 66.3306 13.2108H65.1147C65.0643 13.2108 65.0391 13.2318 65.0391 13.2738V14.3952C65.0391 14.4414 65.0643 14.4645 65.1147 14.4645H66.5511C66.6183 14.4645 66.6519 14.5002 66.6519 14.5716V14.8929C66.6519 14.9643 66.6183 15 66.5511 15ZM68.1479 15H67.751C67.6796 15 67.6439 14.9643 67.6439 14.8929V11.0562C67.6439 10.9848 67.6796 10.9491 67.751 10.9491H69.2252C69.5318 10.9491 69.7712 11.0373 69.9434 11.2137C70.1198 11.3859 70.208 11.6253 70.208 11.9319V12.4611C70.208 12.9441 70.0085 13.2486 69.6095 13.3746V13.3998L70.3088 14.874C70.355 14.958 70.3277 15 70.2269 15H69.8363C69.7355 15 69.6704 14.9643 69.641 14.8929L68.9669 13.4439H68.3306C68.2802 13.4439 68.255 13.4649 68.255 13.5069V14.8929C68.255 14.9643 68.2193 15 68.1479 15ZM68.3243 12.9399H69.1244C69.4352 12.9399 69.5906 12.7866 69.5906 12.48V11.9508C69.5906 11.64 69.4352 11.4846 69.1244 11.4846H68.3243C68.2781 11.4846 68.255 11.5056 68.255 11.5476V12.8769C68.255 12.9189 68.2781 12.9399 68.3243 12.9399ZM72.3563 15H71.9594C71.8838 15 71.846 14.9643 71.846 14.8929V11.5476C71.846 11.5056 71.825 11.4846 71.783 11.4846H70.9892C70.9136 11.4846 70.8758 11.4489 70.8758 11.3775V11.0562C70.8758 10.9848 70.9136 10.9491 70.9892 10.9491H73.3265C73.4021 10.9491 73.4399 10.9848 73.4399 11.0562V11.3775C73.4399 11.4489 73.4021 11.4846 73.3265 11.4846H72.5327C72.4865 11.4846 72.4634 11.5056 72.4634 11.5476V14.8929C72.4634 14.9643 72.4277 15 72.3563 15ZM74.8107 11.0562V14.8929C74.8107 14.9643 74.775 15 74.7036 15H74.3067C74.2353 15 74.1996 14.9643 74.1996 14.8929V11.0562C74.1996 10.9848 74.2353 10.9491 74.3067 10.9491H74.7036C74.775 10.9491 74.8107 10.9848 74.8107 11.0562ZM76.4546 15H76.0577C75.9863 15 75.9506 14.9643 75.9506 14.8929V11.0562C75.9506 10.9848 75.9863 10.9491 76.0577 10.9491H78.0359C78.1073 10.9491 78.143 10.9848 78.143 11.0562V11.3775C78.143 11.4489 78.1073 11.4846 78.0359 11.4846H76.6373C76.5869 11.4846 76.5617 11.5056 76.5617 11.5476V12.7383C76.5617 12.7845 76.5869 12.8076 76.6373 12.8076H77.8532C77.9288 12.8076 77.9666 12.8433 77.9666 12.9147V13.2297C77.9666 13.3053 77.9288 13.3431 77.8532 13.3431H76.6373C76.5869 13.3431 76.5617 13.3641 76.5617 13.4061V14.8929C76.5617 14.9643 76.526 15 76.4546 15ZM79.643 11.0562V14.8929C79.643 14.9643 79.6073 15 79.5359 15H79.139C79.0676 15 79.0319 14.9643 79.0319 14.8929V11.0562C79.0319 10.9848 79.0676 10.9491 79.139 10.9491H79.5359C79.6073 10.9491 79.643 10.9848 79.643 11.0562ZM82.4272 15H81.6964C81.3856 15 81.1441 14.9139 80.9719 14.7417C80.8039 14.5695 80.7199 14.3301 80.7199 14.0235V11.9256C80.7199 11.6148 80.8039 11.3754 80.9719 11.2074C81.1441 11.0352 81.3856 10.9491 81.6964 10.9491H82.4272C82.7338 10.9491 82.9732 11.0352 83.1454 11.2074C83.3176 11.3754 83.4037 11.6148 83.4037 11.9256V12.228C83.4037 12.3036 83.3659 12.3414 83.2903 12.3414H82.8934C82.822 12.3414 82.7863 12.3036 82.7863 12.228V11.9508C82.7863 11.64 82.6351 11.4846 82.3327 11.4846H81.7846C81.4822 11.4846 81.331 11.64 81.331 11.9508V13.9983C81.331 14.3091 81.4822 14.4645 81.7846 14.4645H82.3327C82.6351 14.4645 82.7863 14.3091 82.7863 13.9983V13.7211C82.7863 13.6455 82.822 13.6077 82.8934 13.6077H83.2903C83.3659 13.6077 83.4037 13.6455 83.4037 13.7211V14.0235C83.4037 14.3301 83.3176 14.5695 83.1454 14.7417C82.9732 14.9139 82.7338 15 82.4272 15ZM84.5946 15H84.141C84.0822 15 84.0612 14.9643 84.078 14.8929L85.1742 11.0562C85.1952 10.9848 85.2456 10.9491 85.3254 10.9491H85.9554C86.0394 10.9491 86.0898 10.9848 86.1066 11.0562L87.2028 14.8929C87.2196 14.9643 87.1965 15 87.1335 15H86.6862C86.6484 15 86.6211 14.9937 86.6043 14.9811C86.5917 14.9643 86.5812 14.9349 86.5728 14.8929L86.3334 14.0739H84.9474L84.708 14.8929C84.6912 14.9643 84.6534 15 84.5946 15ZM85.6278 11.5539L85.0734 13.5699H86.2137L85.653 11.5539H85.6278ZM89.1234 15H88.7265C88.6509 15 88.6131 14.9643 88.6131 14.8929V11.5476C88.6131 11.5056 88.5921 11.4846 88.5501 11.4846H87.7563C87.6807 11.4846 87.6429 11.4489 87.6429 11.3775V11.0562C87.6429 10.9848 87.6807 10.9491 87.7563 10.9491H90.0936C90.1692 10.9491 90.207 10.9848 90.207 11.0562V11.3775C90.207 11.4489 90.1692 11.4846 90.0936 11.4846H89.2998C89.2536 11.4846 89.2305 11.5056 89.2305 11.5476V14.8929C89.2305 14.9643 89.1948 15 89.1234 15ZM91.5778 11.0562V14.8929C91.5778 14.9643 91.5421 15 91.4707 15H91.0738C91.0024 15 90.9667 14.9643 90.9667 14.8929V11.0562C90.9667 10.9848 91.0024 10.9491 91.0738 10.9491H91.4707C91.5421 10.9491 91.5778 10.9848 91.5778 11.0562ZM93.7194 14.4645H94.2675C94.5741 14.4645 94.7274 14.3091 94.7274 13.9983V11.9508C94.7274 11.64 94.5741 11.4846 94.2675 11.4846H93.7194C93.417 11.4846 93.2658 11.64 93.2658 11.9508V13.9983C93.2658 14.3091 93.417 14.4645 93.7194 14.4645ZM94.362 15H93.6312C93.3204 15 93.0789 14.9139 92.9067 14.7417C92.7387 14.5695 92.6547 14.3301 92.6547 14.0235V11.9256C92.6547 11.6148 92.7387 11.3754 92.9067 11.2074C93.0789 11.0352 93.3204 10.9491 93.6312 10.9491H94.362C94.6728 10.9491 94.9143 11.0352 95.0865 11.2074C95.2587 11.3754 95.3448 11.6148 95.3448 11.9256V14.0235C95.3448 14.3301 95.2587 14.5695 95.0865 14.7417C94.9143 14.9139 94.6728 15 94.362 15ZM96.8805 15H96.4899C96.4185 15 96.3828 14.9643 96.3828 14.8929V11.0562C96.3828 10.9848 96.4185 10.9491 96.4899 10.9491H96.8427C96.9099 10.9491 96.9561 10.9722 96.9813 11.0184L98.5059 13.7589H98.5311V11.0562C98.5311 10.9848 98.5668 10.9491 98.6382 10.9491H99.0288C99.1002 10.9491 99.1359 10.9848 99.1359 11.0562V14.8929C99.1359 14.9643 99.1002 15 99.0288 15H98.6886C98.6214 15 98.5668 14.9664 98.5248 14.8992L97.0128 12.1902H96.9876V14.8929C96.9876 14.9643 96.9519 15 96.8805 15ZM102.155 15H101.702C101.643 15 101.622 14.9643 101.639 14.8929L102.735 11.0562C102.756 10.9848 102.806 10.9491 102.886 10.9491H103.516C103.6 10.9491 103.651 10.9848 103.667 11.0562L104.764 14.8929C104.78 14.9643 104.757 15 104.694 15H104.247C104.209 15 104.182 14.9937 104.165 14.9811C104.152 14.9643 104.142 14.9349 104.134 14.8929L103.894 14.0739H102.508L102.269 14.8929C102.252 14.9643 102.214 15 102.155 15ZM103.189 11.5539L102.634 13.5699H103.774L103.214 11.5539H103.189ZM106.073 15H105.682C105.611 15 105.575 14.9643 105.575 14.8929V11.0562C105.575 10.9848 105.611 10.9491 105.682 10.9491H106.035C106.102 10.9491 106.149 10.9722 106.174 11.0184L107.698 13.7589H107.724V11.0562C107.724 10.9848 107.759 10.9491 107.831 10.9491H108.221C108.293 10.9491 108.328 10.9848 108.328 11.0562V14.8929C108.328 14.9643 108.293 15 108.221 15H107.881C107.814 15 107.759 14.9664 107.717 14.8992L106.205 12.1902H106.18V14.8929C106.18 14.9643 106.144 15 106.073 15ZM110.118 14.4645H111.006C111.308 14.4645 111.46 14.3091 111.46 13.9983V11.9508C111.46 11.64 111.308 11.4846 111.006 11.4846H110.118C110.071 11.4846 110.048 11.5056 110.048 11.5476V14.3952C110.048 14.4414 110.071 14.4645 110.118 14.4645ZM109.437 14.8929V11.0562C109.437 10.9848 109.473 10.9491 109.544 10.9491H111.094C111.401 10.9491 111.64 11.0352 111.812 11.2074C111.989 11.3754 112.077 11.6148 112.077 11.9256V14.0235C112.077 14.3301 111.989 14.5695 111.812 14.7417C111.64 14.9139 111.401 15 111.094 15H109.544C109.473 15 109.437 14.9643 109.437 14.8929ZM115.491 14.4645H116.38C116.682 14.4645 116.833 14.3091 116.833 13.9983V11.9508C116.833 11.64 116.682 11.4846 116.38 11.4846H115.491C115.445 11.4846 115.422 11.5056 115.422 11.5476V14.3952C115.422 14.4414 115.445 14.4645 115.491 14.4645ZM114.811 14.8929V11.0562C114.811 10.9848 114.847 10.9491 114.918 10.9491H116.468C116.774 10.9491 117.014 11.0352 117.186 11.2074C117.362 11.3754 117.451 11.6148 117.451 11.9256V14.0235C117.451 14.3301 117.362 14.5695 117.186 14.7417C117.014 14.9139 116.774 15 116.468 15H114.918C114.847 15 114.811 14.9643 114.811 14.8929ZM118.999 15H118.602C118.53 15 118.495 14.9643 118.495 14.8929V11.0562C118.495 10.9848 118.53 10.9491 118.602 10.9491H118.999C119.07 10.9491 119.106 10.9848 119.106 11.0562V12.6312C119.106 12.6732 119.131 12.6942 119.181 12.6942H120.511C120.553 12.6942 120.574 12.6732 120.574 12.6312V11.0562C120.574 10.9848 120.609 10.9491 120.681 10.9491H121.084C121.155 10.9491 121.191 10.9848 121.191 11.0562V14.8929C121.191 14.9643 121.155 15 121.084 15H120.681C120.609 15 120.574 14.9643 120.574 14.8929V13.299C120.574 13.257 120.553 13.236 120.511 13.236H119.181C119.131 13.236 119.106 13.257 119.106 13.299V14.8929C119.106 14.9643 119.07 15 118.999 15ZM122.805 15H122.408C122.337 15 122.301 14.9643 122.301 14.8929V11.0562C122.301 10.9848 122.337 10.9491 122.408 10.9491H124.386C124.458 10.9491 124.494 10.9848 124.494 11.0562V11.3775C124.494 11.4489 124.458 11.4846 124.386 11.4846H122.988C122.937 11.4846 122.912 11.5056 122.912 11.5476V12.7383C122.912 12.7845 122.937 12.8076 122.988 12.8076H124.204C124.279 12.8076 124.317 12.8433 124.317 12.9147V13.2297C124.317 13.3053 124.279 13.3431 124.204 13.3431H122.988C122.937 13.3431 122.912 13.3641 122.912 13.4061V14.8929C122.912 14.9643 122.877 15 122.805 15ZM125.275 14.0172V13.8534C125.275 13.782 125.311 13.7463 125.382 13.7463H125.786C125.857 13.7463 125.893 13.782 125.893 13.8534V13.9668C125.893 14.1432 125.931 14.2713 126.006 14.3511C126.086 14.4267 126.216 14.4645 126.397 14.4645H126.831C127.012 14.4645 127.142 14.4246 127.222 14.3448C127.302 14.2608 127.342 14.1264 127.342 13.9416V13.7967C127.342 13.6623 127.289 13.5573 127.184 13.4817C127.083 13.4019 126.957 13.3515 126.806 13.3305C126.655 13.3053 126.489 13.2717 126.309 13.2297C126.128 13.1877 125.962 13.1394 125.811 13.0848C125.66 13.0302 125.532 12.9273 125.427 12.7761C125.326 12.6249 125.275 12.4317 125.275 12.1965V11.9319C125.275 11.6253 125.361 11.3859 125.534 11.2137C125.71 11.0373 125.952 10.9491 126.258 10.9491H126.926C127.237 10.9491 127.478 11.0373 127.65 11.2137C127.827 11.3859 127.915 11.6253 127.915 11.9319V12.0705C127.915 12.1419 127.879 12.1776 127.808 12.1776H127.405C127.333 12.1776 127.298 12.1419 127.298 12.0705V11.9886C127.298 11.808 127.258 11.6799 127.178 11.6043C127.102 11.5245 126.974 11.4846 126.794 11.4846H126.397C126.216 11.4846 126.086 11.5266 126.006 11.6106C125.931 11.6904 125.893 11.829 125.893 12.0264V12.2217C125.893 12.4107 126.029 12.5388 126.302 12.606C126.424 12.6354 126.556 12.6606 126.699 12.6816C126.846 12.7026 126.993 12.7341 127.14 12.7761C127.287 12.8181 127.422 12.8748 127.543 12.9462C127.665 13.0134 127.764 13.1184 127.839 13.2612C127.915 13.3998 127.953 13.5699 127.953 13.7715V14.0172C127.953 14.3238 127.865 14.5653 127.688 14.7417C127.516 14.9139 127.277 15 126.97 15H126.264C125.958 15 125.716 14.9139 125.54 14.7417C125.364 14.5653 125.275 14.3238 125.275 14.0172ZM131.96 12.858H131.57C131.49 12.858 131.423 12.8727 131.368 12.9021C131.318 12.9315 131.284 12.963 131.267 12.9966C131.221 13.0932 131.165 13.1415 131.097 13.1415H130.7C130.629 13.1415 130.593 13.1058 130.593 13.0344V11.0562C130.593 10.9848 130.629 10.9491 130.7 10.9491H132.836C132.912 10.9491 132.95 10.9848 132.95 11.0562V11.4153C132.95 11.4867 132.912 11.5224 132.836 11.5224H131.211V12.669C131.282 12.4632 131.459 12.3603 131.74 12.3603H132.112C132.414 12.3603 132.645 12.4401 132.805 12.5997C132.964 12.7551 133.044 12.9861 133.044 13.2927V14.0235C133.044 14.3301 132.958 14.5695 132.786 14.7417C132.614 14.9139 132.374 15 132.068 15H131.532C131.221 15 130.98 14.9139 130.808 14.7417C130.64 14.5695 130.556 14.3301 130.556 14.0235V13.8597C130.556 13.7841 130.591 13.7463 130.663 13.7463H131.06C131.131 13.7463 131.167 13.7841 131.167 13.8597V14.0172C131.167 14.3238 131.318 14.4771 131.62 14.4771H131.979C132.29 14.4771 132.446 14.3238 132.446 14.0172V13.3809C132.446 13.1919 132.408 13.0575 132.332 12.9777C132.261 12.8979 132.137 12.858 131.96 12.858ZM135.111 15H134.714C134.638 15 134.601 14.9643 134.601 14.8929V11.5476C134.601 11.5056 134.58 11.4846 134.538 11.4846H133.744C133.668 11.4846 133.63 11.4489 133.63 11.3775V11.0562C133.63 10.9848 133.668 10.9491 133.744 10.9491H136.081C136.157 10.9491 136.195 10.9848 136.195 11.0562V11.3775C136.195 11.4489 136.157 11.4846 136.081 11.4846H135.287C135.241 11.4846 135.218 11.5056 135.218 11.5476V14.8929C135.218 14.9643 135.182 15 135.111 15ZM137.427 15H137.03C136.958 15 136.923 14.9643 136.923 14.8929V11.0562C136.923 10.9848 136.958 10.9491 137.03 10.9491H137.427C137.498 10.9491 137.534 10.9848 137.534 11.0562V12.6312C137.534 12.6732 137.559 12.6942 137.609 12.6942H138.939C138.981 12.6942 139.002 12.6732 139.002 12.6312V11.0562C139.002 10.9848 139.037 10.9491 139.109 10.9491H139.512C139.583 10.9491 139.619 10.9848 139.619 11.0562V14.8929C139.619 14.9643 139.583 15 139.512 15H139.109C139.037 15 139.002 14.9643 139.002 14.8929V13.299C139.002 13.257 138.981 13.236 138.939 13.236H137.609C137.559 13.236 137.534 13.257 137.534 13.299V14.8929C137.534 14.9643 137.498 15 137.427 15ZM144.064 15H143.333C143.022 15 142.781 14.9139 142.609 14.7417C142.441 14.5695 142.357 14.3301 142.357 14.0235V11.9256C142.357 11.6148 142.441 11.3754 142.609 11.2074C142.781 11.0352 143.022 10.9491 143.333 10.9491H144.064C144.37 10.9491 144.61 11.0352 144.782 11.2074C144.954 11.3754 145.04 11.6148 145.04 11.9256V12.228C145.04 12.3036 145.003 12.3414 144.927 12.3414H144.53C144.459 12.3414 144.423 12.3036 144.423 12.228V11.9508C144.423 11.64 144.272 11.4846 143.969 11.4846H143.421C143.119 11.4846 142.968 11.64 142.968 11.9508V13.9983C142.968 14.3091 143.119 14.4645 143.421 14.4645H143.969C144.272 14.4645 144.423 14.3091 144.423 13.9983V13.7211C144.423 13.6455 144.459 13.6077 144.53 13.6077H144.927C145.003 13.6077 145.04 13.6455 145.04 13.7211V14.0235C145.04 14.3301 144.954 14.5695 144.782 14.7417C144.61 14.9139 144.37 15 144.064 15ZM148.159 15H146.118C146.046 15 146.011 14.9643 146.011 14.8929V11.0562C146.011 10.9848 146.046 10.9491 146.118 10.9491H146.515C146.586 10.9491 146.622 10.9848 146.622 11.0562V14.3889C146.622 14.4309 146.647 14.4519 146.697 14.4519H148.159C148.23 14.4519 148.266 14.4897 148.266 14.5653V14.8929C148.266 14.9643 148.23 15 148.159 15ZM149.256 15H148.803C148.744 15 148.723 14.9643 148.74 14.8929L149.836 11.0562C149.857 10.9848 149.907 10.9491 149.987 10.9491H150.617C150.701 10.9491 150.752 10.9848 150.768 11.0562L151.865 14.8929C151.881 14.9643 151.858 15 151.795 15H151.348C151.31 15 151.283 14.9937 151.266 14.9811C151.254 14.9643 151.243 14.9349 151.235 14.8929L150.995 14.0739H149.609L149.37 14.8929C149.353 14.9643 149.315 15 149.256 15ZM150.29 11.5539L149.735 13.5699H150.876L150.315 11.5539H150.29ZM152.601 14.0172V13.8534C152.601 13.782 152.637 13.7463 152.708 13.7463H153.111C153.183 13.7463 153.218 13.782 153.218 13.8534V13.9668C153.218 14.1432 153.256 14.2713 153.332 14.3511C153.411 14.4267 153.542 14.4645 153.722 14.4645H154.157C154.338 14.4645 154.468 14.4246 154.548 14.3448C154.627 14.2608 154.667 14.1264 154.667 13.9416V13.7967C154.667 13.6623 154.615 13.5573 154.51 13.4817C154.409 13.4019 154.283 13.3515 154.132 13.3305C153.981 13.3053 153.815 13.2717 153.634 13.2297C153.453 13.1877 153.288 13.1394 153.136 13.0848C152.985 13.0302 152.857 12.9273 152.752 12.7761C152.651 12.6249 152.601 12.4317 152.601 12.1965V11.9319C152.601 11.6253 152.687 11.3859 152.859 11.2137C153.036 11.0373 153.277 10.9491 153.584 10.9491H154.251C154.562 10.9491 154.804 11.0373 154.976 11.2137C155.152 11.3859 155.241 11.6253 155.241 11.9319V12.0705C155.241 12.1419 155.205 12.1776 155.133 12.1776H154.73C154.659 12.1776 154.623 12.1419 154.623 12.0705V11.9886C154.623 11.808 154.583 11.6799 154.503 11.6043C154.428 11.5245 154.3 11.4846 154.119 11.4846H153.722C153.542 11.4846 153.411 11.5266 153.332 11.6106C153.256 11.6904 153.218 11.829 153.218 12.0264V12.2217C153.218 12.4107 153.355 12.5388 153.628 12.606C153.75 12.6354 153.882 12.6606 154.025 12.6816C154.172 12.7026 154.319 12.7341 154.466 12.7761C154.613 12.8181 154.747 12.8748 154.869 12.9462C154.991 13.0134 155.089 13.1184 155.165 13.2612C155.241 13.3998 155.278 13.5699 155.278 13.7715V14.0172C155.278 14.3238 155.19 14.5653 155.014 14.7417C154.842 14.9139 154.602 15 154.296 15H153.59C153.283 15 153.042 14.9139 152.865 14.7417C152.689 14.5653 152.601 14.3238 152.601 14.0172ZM156.241 14.0172V13.8534C156.241 13.782 156.277 13.7463 156.348 13.7463H156.752C156.823 13.7463 156.859 13.782 156.859 13.8534V13.9668C156.859 14.1432 156.897 14.2713 156.972 14.3511C157.052 14.4267 157.182 14.4645 157.363 14.4645H157.797C157.978 14.4645 158.108 14.4246 158.188 14.3448C158.268 14.2608 158.308 14.1264 158.308 13.9416V13.7967C158.308 13.6623 158.255 13.5573 158.15 13.4817C158.049 13.4019 157.923 13.3515 157.772 13.3305C157.621 13.3053 157.455 13.2717 157.275 13.2297C157.094 13.1877 156.928 13.1394 156.777 13.0848C156.626 13.0302 156.498 12.9273 156.393 12.7761C156.292 12.6249 156.241 12.4317 156.241 12.1965V11.9319C156.241 11.6253 156.327 11.3859 156.5 11.2137C156.676 11.0373 156.918 10.9491 157.224 10.9491H157.892C158.203 10.9491 158.444 11.0373 158.616 11.2137C158.793 11.3859 158.881 11.6253 158.881 11.9319V12.0705C158.881 12.1419 158.845 12.1776 158.774 12.1776H158.371C158.299 12.1776 158.264 12.1419 158.264 12.0705V11.9886C158.264 11.808 158.224 11.6799 158.144 11.6043C158.068 11.5245 157.94 11.4846 157.76 11.4846H157.363C157.182 11.4846 157.052 11.5266 156.972 11.6106C156.897 11.6904 156.859 11.829 156.859 12.0264V12.2217C156.859 12.4107 156.995 12.5388 157.268 12.606C157.39 12.6354 157.522 12.6606 157.665 12.6816C157.812 12.7026 157.959 12.7341 158.106 12.7761C158.253 12.8181 158.388 12.8748 158.509 12.9462C158.631 13.0134 158.73 13.1184 158.805 13.2612C158.881 13.3998 158.919 13.5699 158.919 13.7715V14.0172C158.919 14.3238 158.831 14.5653 158.654 14.7417C158.482 14.9139 158.243 15 157.936 15H157.23C156.924 15 156.682 14.9139 156.506 14.7417C156.33 14.5653 156.241 14.3238 156.241 14.0172ZM162.152 15H161.755C161.683 15 161.648 14.9643 161.648 14.8929V11.0562C161.648 10.9848 161.683 10.9491 161.755 10.9491H163.254C163.561 10.9491 163.8 11.0352 163.972 11.2074C164.144 11.3754 164.231 11.6148 164.231 11.9256V12.5808C164.231 12.8874 164.144 13.1268 163.972 13.299C163.8 13.4712 163.561 13.5573 163.254 13.5573H162.334C162.284 13.5573 162.259 13.5783 162.259 13.6203V14.8929C162.259 14.9643 162.223 15 162.152 15ZM162.328 13.0155H163.166C163.464 13.0155 163.613 12.8601 163.613 12.5493V11.9508C163.613 11.64 163.464 11.4846 163.166 11.4846H162.328C162.282 11.4846 162.259 11.5056 162.259 11.5476V12.9525C162.259 12.9945 162.282 13.0155 162.328 13.0155ZM165.808 11.0562V14.8929C165.808 14.9643 165.772 15 165.7 15H165.304C165.232 15 165.196 14.9643 165.196 14.8929V11.0562C165.196 10.9848 165.232 10.9491 165.304 10.9491H165.7C165.772 10.9491 165.808 10.9848 165.808 11.0562ZM169.096 15H167.055C166.983 15 166.947 14.9643 166.947 14.8929V11.0562C166.947 10.9848 166.983 10.9491 167.055 10.9491H167.451C167.523 10.9491 167.559 10.9848 167.559 11.0562V14.3889C167.559 14.4309 167.584 14.4519 167.634 14.4519H169.096C169.167 14.4519 169.203 14.4897 169.203 14.5653V14.8929C169.203 14.9643 169.167 15 169.096 15ZM170.974 14.4645H171.522C171.829 14.4645 171.982 14.3091 171.982 13.9983V11.9508C171.982 11.64 171.829 11.4846 171.522 11.4846H170.974C170.672 11.4846 170.521 11.64 170.521 11.9508V13.9983C170.521 14.3091 170.672 14.4645 170.974 14.4645ZM171.617 15H170.886C170.575 15 170.334 14.9139 170.162 14.7417C169.994 14.5695 169.91 14.3301 169.91 14.0235V11.9256C169.91 11.6148 169.994 11.3754 170.162 11.2074C170.334 11.0352 170.575 10.9491 170.886 10.9491H171.617C171.928 10.9491 172.169 11.0352 172.341 11.2074C172.514 11.3754 172.6 11.6148 172.6 11.9256V14.0235C172.6 14.3301 172.514 14.5695 172.341 14.7417C172.169 14.9139 171.928 15 171.617 15ZM174.747 15H174.35C174.274 15 174.236 14.9643 174.236 14.8929V11.5476C174.236 11.5056 174.215 11.4846 174.173 11.4846H173.379C173.304 11.4846 173.266 11.4489 173.266 11.3775V11.0562C173.266 10.9848 173.304 10.9491 173.379 10.9491H175.717C175.792 10.9491 175.83 10.9848 175.83 11.0562V11.3775C175.83 11.4489 175.792 11.4846 175.717 11.4846H174.923C174.877 11.4846 174.854 11.5056 174.854 11.5476V14.8929C174.854 14.9643 174.818 15 174.747 15ZM176.483 14.0172V13.8534C176.483 13.782 176.518 13.7463 176.59 13.7463H176.993C177.064 13.7463 177.1 13.782 177.1 13.8534V13.9668C177.1 14.1432 177.138 14.2713 177.214 14.3511C177.293 14.4267 177.424 14.4645 177.604 14.4645H178.039C178.219 14.4645 178.35 14.4246 178.429 14.3448C178.509 14.2608 178.549 14.1264 178.549 13.9416V13.7967C178.549 13.6623 178.497 13.5573 178.392 13.4817C178.291 13.4019 178.165 13.3515 178.014 13.3305C177.862 13.3053 177.697 13.2717 177.516 13.2297C177.335 13.1877 177.169 13.1394 177.018 13.0848C176.867 13.0302 176.739 12.9273 176.634 12.7761C176.533 12.6249 176.483 12.4317 176.483 12.1965V11.9319C176.483 11.6253 176.569 11.3859 176.741 11.2137C176.917 11.0373 177.159 10.9491 177.466 10.9491H178.133C178.444 10.9491 178.686 11.0373 178.858 11.2137C179.034 11.3859 179.122 11.6253 179.122 11.9319V12.0705C179.122 12.1419 179.087 12.1776 179.015 12.1776H178.612C178.541 12.1776 178.505 12.1419 178.505 12.0705V11.9886C178.505 11.808 178.465 11.6799 178.385 11.6043C178.31 11.5245 178.182 11.4846 178.001 11.4846H177.604C177.424 11.4846 177.293 11.5266 177.214 11.6106C177.138 11.6904 177.1 11.829 177.1 12.0264V12.2217C177.1 12.4107 177.237 12.5388 177.51 12.606C177.631 12.6354 177.764 12.6606 177.907 12.6816C178.054 12.7026 178.201 12.7341 178.348 12.7761C178.495 12.8181 178.629 12.8748 178.751 12.9462C178.873 13.0134 178.971 13.1184 179.047 13.2612C179.122 13.3998 179.16 13.5699 179.16 13.7715V14.0172C179.16 14.3238 179.072 14.5653 178.896 14.7417C178.723 14.9139 178.484 15 178.177 15H177.472C177.165 15 176.924 14.9139 176.747 14.7417C176.571 14.5653 176.483 14.3238 176.483 14.0172ZM45.5004 24H45.0468C44.988 24 44.967 23.9643 44.9838 23.8929L46.08 20.0562C46.101 19.9848 46.1514 19.9491 46.2312 19.9491H46.8612C46.9452 19.9491 46.9956 19.9848 47.0124 20.0562L48.1086 23.8929C48.1254 23.9643 48.1023 24 48.0393 24H47.592C47.5542 24 47.5269 23.9937 47.5101 23.9811C47.4975 23.9643 47.487 23.9349 47.4786 23.8929L47.2392 23.0739H45.8532L45.6138 23.8929C45.597 23.9643 45.5592 24 45.5004 24ZM46.5336 20.5539L45.9792 22.5699H47.1195L46.5588 20.5539H46.5336ZM49.4244 24H49.0275C48.9561 24 48.9204 23.9643 48.9204 23.8929V20.0562C48.9204 19.9848 48.9561 19.9491 49.0275 19.9491H50.5017C50.8083 19.9491 51.0477 20.0373 51.2199 20.2137C51.3963 20.3859 51.4845 20.6253 51.4845 20.9319V21.4611C51.4845 21.9441 51.285 22.2486 50.886 22.3746V22.3998L51.5853 23.874C51.6315 23.958 51.6042 24 51.5034 24H51.1128C51.012 24 50.9469 23.9643 50.9175 23.8929L50.2434 22.4439H49.6071C49.5567 22.4439 49.5315 22.4649 49.5315 22.5069V23.8929C49.5315 23.9643 49.4958 24 49.4244 24ZM49.6008 21.9399H50.4009C50.7117 21.9399 50.8671 21.7866 50.8671 21.48V20.9508C50.8671 20.64 50.7117 20.4846 50.4009 20.4846H49.6008C49.5546 20.4846 49.5315 20.5056 49.5315 20.5476V21.8769C49.5315 21.9189 49.5546 21.9399 49.6008 21.9399ZM54.647 24H52.631C52.5596 24 52.5239 23.9643 52.5239 23.8929V20.0562C52.5239 19.9848 52.5596 19.9491 52.631 19.9491H54.647C54.7142 19.9491 54.7478 19.9848 54.7478 20.0562V20.3775C54.7478 20.4489 54.7142 20.4846 54.647 20.4846H53.2106C53.1602 20.4846 53.135 20.5056 53.135 20.5476V21.6123C53.135 21.6543 53.1602 21.6753 53.2106 21.6753H54.4265C54.5021 21.6753 54.5399 21.711 54.5399 21.7824V22.1037C54.5399 22.1751 54.5021 22.2108 54.4265 22.2108H53.2106C53.1602 22.2108 53.135 22.2318 53.135 22.2738V23.3952C53.135 23.4414 53.1602 23.4645 53.2106 23.4645H54.647C54.7142 23.4645 54.7478 23.5002 54.7478 23.5716V23.8929C54.7478 23.9643 54.7142 24 54.647 24ZM58.5388 24H58.1419C58.0663 24 58.0285 23.9643 58.0285 23.8929V20.5476C58.0285 20.5056 58.0075 20.4846 57.9655 20.4846H57.1717C57.0961 20.4846 57.0583 20.4489 57.0583 20.3775V20.0562C57.0583 19.9848 57.0961 19.9491 57.1717 19.9491H59.509C59.5846 19.9491 59.6224 19.9848 59.6224 20.0562V20.3775C59.6224 20.4489 59.5846 20.4846 59.509 20.4846H58.7152C58.669 20.4846 58.6459 20.5056 58.6459 20.5476V23.8929C58.6459 23.9643 58.6102 24 58.5388 24ZM60.8547 24H60.4578C60.3864 24 60.3507 23.9643 60.3507 23.8929V20.0562C60.3507 19.9848 60.3864 19.9491 60.4578 19.9491H60.8547C60.9261 19.9491 60.9618 19.9848 60.9618 20.0562V21.6312C60.9618 21.6732 60.987 21.6942 61.0374 21.6942H62.3667C62.4087 21.6942 62.4297 21.6732 62.4297 21.6312V20.0562C62.4297 19.9848 62.4654 19.9491 62.5368 19.9491H62.94C63.0114 19.9491 63.0471 19.9848 63.0471 20.0562V23.8929C63.0471 23.9643 63.0114 24 62.94 24H62.5368C62.4654 24 62.4297 23.9643 62.4297 23.8929V22.299C62.4297 22.257 62.4087 22.236 62.3667 22.236H61.0374C60.987 22.236 60.9618 22.257 60.9618 22.299V23.8929C60.9618 23.9643 60.9261 24 60.8547 24ZM66.2804 24H64.2644C64.193 24 64.1573 23.9643 64.1573 23.8929V20.0562C64.1573 19.9848 64.193 19.9491 64.2644 19.9491H66.2804C66.3476 19.9491 66.3812 19.9848 66.3812 20.0562V20.3775C66.3812 20.4489 66.3476 20.4846 66.2804 20.4846H64.844C64.7936 20.4846 64.7684 20.5056 64.7684 20.5476V21.6123C64.7684 21.6543 64.7936 21.6753 64.844 21.6753H66.0599C66.1355 21.6753 66.1733 21.711 66.1733 21.7824V22.1037C66.1733 22.1751 66.1355 22.2108 66.0599 22.2108H64.844C64.7936 22.2108 64.7684 22.2318 64.7684 22.2738V23.3952C64.7684 23.4414 64.7936 23.4645 64.844 23.4645H66.2804C66.3476 23.4645 66.3812 23.5002 66.3812 23.5716V23.8929C66.3812 23.9643 66.3476 24 66.2804 24ZM71.1865 24H69.1705C69.0991 24 69.0634 23.9643 69.0634 23.8929V20.0562C69.0634 19.9848 69.0991 19.9491 69.1705 19.9491H71.1865C71.2537 19.9491 71.2873 19.9848 71.2873 20.0562V20.3775C71.2873 20.4489 71.2537 20.4846 71.1865 20.4846H69.7501C69.6997 20.4846 69.6745 20.5056 69.6745 20.5476V21.6123C69.6745 21.6543 69.6997 21.6753 69.7501 21.6753H70.966C71.0416 21.6753 71.0794 21.711 71.0794 21.7824V22.1037C71.0794 22.1751 71.0416 22.2108 70.966 22.2108H69.7501C69.6997 22.2108 69.6745 22.2318 69.6745 22.2738V23.3952C69.6745 23.4414 69.6997 23.4645 69.7501 23.4645H71.1865C71.2537 23.4645 71.2873 23.5002 71.2873 23.5716V23.8929C71.2873 23.9643 71.2537 24 71.1865 24ZM72.5376 24H72.0714C72.0378 24 72.0126 23.9895 71.9958 23.9685C71.9832 23.9475 71.9853 23.9202 72.0021 23.8866L73.0416 21.9021L72.0462 20.0625C72.0294 20.0331 72.0273 20.0079 72.0399 19.9869C72.0567 19.9617 72.0819 19.9491 72.1155 19.9491H72.5628C72.6468 19.9491 72.7056 19.9848 72.7392 20.0562L73.4637 21.5178H73.4889L74.2134 20.0562C74.2512 19.9848 74.3058 19.9491 74.3772 19.9491H74.8434C74.877 19.9491 74.9001 19.9617 74.9127 19.9869C74.9295 20.0121 74.9316 20.0394 74.919 20.0688L73.911 21.9021L74.9505 23.8803C74.9673 23.9139 74.9694 23.9433 74.9568 23.9685C74.9442 23.9895 74.919 24 74.8812 24H74.4087C74.3415 24 74.2932 23.9664 74.2638 23.8992L73.4889 22.362H73.4637L72.6888 23.8992C72.6594 23.9664 72.609 24 72.5376 24ZM77.4288 24H76.698C76.3872 24 76.1457 23.9139 75.9735 23.7417C75.8055 23.5695 75.7215 23.3301 75.7215 23.0235V20.9256C75.7215 20.6148 75.8055 20.3754 75.9735 20.2074C76.1457 20.0352 76.3872 19.9491 76.698 19.9491H77.4288C77.7354 19.9491 77.9748 20.0352 78.147 20.2074C78.3192 20.3754 78.4053 20.6148 78.4053 20.9256V21.228C78.4053 21.3036 78.3675 21.3414 78.2919 21.3414H77.895C77.8236 21.3414 77.7879 21.3036 77.7879 21.228V20.9508C77.7879 20.64 77.6367 20.4846 77.3343 20.4846H76.7862C76.4838 20.4846 76.3326 20.64 76.3326 20.9508V22.9983C76.3326 23.3091 76.4838 23.4645 76.7862 23.4645H77.3343C77.6367 23.4645 77.7879 23.3091 77.7879 22.9983V22.7211C77.7879 22.6455 77.8236 22.6077 77.895 22.6077H78.2919C78.3675 22.6077 78.4053 22.6455 78.4053 22.7211V23.0235C78.4053 23.3301 78.3192 23.5695 78.147 23.7417C77.9748 23.9139 77.7354 24 77.4288 24ZM81.524 24H79.4828C79.4114 24 79.3757 23.9643 79.3757 23.8929V20.0562C79.3757 19.9848 79.4114 19.9491 79.4828 19.9491H79.8797C79.9511 19.9491 79.9868 19.9848 79.9868 20.0562V23.3889C79.9868 23.4309 80.012 23.4519 80.0624 23.4519H81.524C81.5954 23.4519 81.6311 23.4897 81.6311 23.5653V23.8929C81.6311 23.9643 81.5954 24 81.524 24ZM84.5177 19.9491H84.9146C84.9902 19.9491 85.028 19.9827 85.028 20.0499V23.0235C85.028 23.3301 84.9398 23.5695 84.7634 23.7417C84.5912 23.9139 84.3518 24 84.0452 24H83.3459C83.0393 24 82.7999 23.9139 82.6277 23.7417C82.4555 23.5695 82.3694 23.3301 82.3694 23.0235V20.0562C82.3694 19.9848 82.4051 19.9491 82.4765 19.9491H82.8734C82.9448 19.9491 82.9805 19.9848 82.9805 20.0562V22.9983C82.9805 23.3091 83.1317 23.4645 83.4341 23.4645H83.9507C84.2573 23.4645 84.4106 23.3091 84.4106 22.9983V20.0562C84.4106 19.9848 84.4463 19.9491 84.5177 19.9491ZM86.0212 23.0172V22.8534C86.0212 22.782 86.0569 22.7463 86.1283 22.7463H86.5315C86.6029 22.7463 86.6386 22.782 86.6386 22.8534V22.9668C86.6386 23.1432 86.6764 23.2713 86.752 23.3511C86.8318 23.4267 86.962 23.4645 87.1426 23.4645H87.5773C87.7579 23.4645 87.8881 23.4246 87.9679 23.3448C88.0477 23.2608 88.0876 23.1264 88.0876 22.9416V22.7967C88.0876 22.6623 88.0351 22.5573 87.9301 22.4817C87.8293 22.4019 87.7033 22.3515 87.5521 22.3305C87.4009 22.3053 87.235 22.2717 87.0544 22.2297C86.8738 22.1877 86.7079 22.1394 86.5567 22.0848C86.4055 22.0302 86.2774 21.9273 86.1724 21.7761C86.0716 21.6249 86.0212 21.4317 86.0212 21.1965V20.9319C86.0212 20.6253 86.1073 20.3859 86.2795 20.2137C86.4559 20.0373 86.6974 19.9491 87.004 19.9491H87.6718C87.9826 19.9491 88.2241 20.0373 88.3963 20.2137C88.5727 20.3859 88.6609 20.6253 88.6609 20.9319V21.0705C88.6609 21.1419 88.6252 21.1776 88.5538 21.1776H88.1506C88.0792 21.1776 88.0435 21.1419 88.0435 21.0705V20.9886C88.0435 20.808 88.0036 20.6799 87.9238 20.6043C87.8482 20.5245 87.7201 20.4846 87.5395 20.4846H87.1426C86.962 20.4846 86.8318 20.5266 86.752 20.6106C86.6764 20.6904 86.6386 20.829 86.6386 21.0264V21.2217C86.6386 21.4107 86.7751 21.5388 87.0481 21.606C87.1699 21.6354 87.3022 21.6606 87.445 21.6816C87.592 21.7026 87.739 21.7341 87.886 21.7761C88.033 21.8181 88.1674 21.8748 88.2892 21.9462C88.411 22.0134 88.5097 22.1184 88.5853 22.2612C88.6609 22.3998 88.6987 22.5699 88.6987 22.7715V23.0172C88.6987 23.3238 88.6105 23.5653 88.4341 23.7417C88.2619 23.9139 88.0225 24 87.7159 24H87.0103C86.7037 24 86.4622 23.9139 86.2858 23.7417C86.1094 23.5653 86.0212 23.3238 86.0212 23.0172ZM90.3798 20.0562V23.8929C90.3798 23.9643 90.3441 24 90.2727 24H89.8758C89.8044 24 89.7687 23.9643 89.7687 23.8929V20.0562C89.7687 19.9848 89.8044 19.9491 89.8758 19.9491H90.2727C90.3441 19.9491 90.3798 19.9848 90.3798 20.0562ZM92.9939 24H92.3702C92.2988 24 92.2547 23.9643 92.2379 23.8929L91.1921 20.0688C91.1669 19.989 91.1984 19.9491 91.2866 19.9491H91.7339C91.8011 19.9491 91.841 19.9848 91.8536 20.0562L92.6663 23.3448H92.6915L93.4979 20.0562C93.5147 19.9848 93.5567 19.9491 93.6239 19.9491H94.0649C94.1531 19.9491 94.1867 19.989 94.1657 20.0688L93.1136 23.8929C93.0968 23.9643 93.0569 24 92.9939 24ZM97.0618 24H95.0458C94.9744 24 94.9387 23.9643 94.9387 23.8929V20.0562C94.9387 19.9848 94.9744 19.9491 95.0458 19.9491H97.0618C97.129 19.9491 97.1626 19.9848 97.1626 20.0562V20.3775C97.1626 20.4489 97.129 20.4846 97.0618 20.4846H95.6254C95.575 20.4846 95.5498 20.5056 95.5498 20.5476V21.6123C95.5498 21.6543 95.575 21.6753 95.6254 21.6753H96.8413C96.9169 21.6753 96.9547 21.711 96.9547 21.7824V22.1037C96.9547 22.1751 96.9169 22.2108 96.8413 22.2108H95.6254C95.575 22.2108 95.5498 22.2318 95.5498 22.2738V23.3952C95.5498 23.4414 95.575 23.4645 95.6254 23.4645H97.0618C97.129 23.4645 97.1626 23.5002 97.1626 23.5716V23.8929C97.1626 23.9643 97.129 24 97.0618 24ZM100.846 23.4645H101.395C101.701 23.4645 101.854 23.3091 101.854 22.9983V20.9508C101.854 20.64 101.701 20.4846 101.395 20.4846H100.846C100.544 20.4846 100.393 20.64 100.393 20.9508V22.9983C100.393 23.3091 100.544 23.4645 100.846 23.4645ZM101.489 24H100.758C100.447 24 100.206 23.9139 100.034 23.7417C99.8658 23.5695 99.7818 23.3301 99.7818 23.0235V20.9256C99.7818 20.6148 99.8658 20.3754 100.034 20.2074C100.206 20.0352 100.447 19.9491 100.758 19.9491H101.489C101.8 19.9491 102.041 20.0352 102.214 20.2074C102.386 20.3754 102.472 20.6148 102.472 20.9256V23.0235C102.472 23.3301 102.386 23.5695 102.214 23.7417C102.041 23.9139 101.8 24 101.489 24ZM104.008 24H103.617C103.546 24 103.51 23.9643 103.51 23.8929V20.0562C103.51 19.9848 103.546 19.9491 103.617 19.9491H103.97C104.037 19.9491 104.083 19.9722 104.108 20.0184L105.633 22.7589H105.658V20.0562C105.658 19.9848 105.694 19.9491 105.765 19.9491H106.156C106.227 19.9491 106.263 19.9848 106.263 20.0562V23.8929C106.263 23.9643 106.227 24 106.156 24H105.816C105.748 24 105.694 23.9664 105.652 23.8992L104.14 21.1902H104.115V23.8929C104.115 23.9643 104.079 24 104.008 24ZM109.495 24H107.479C107.408 24 107.372 23.9643 107.372 23.8929V20.0562C107.372 19.9848 107.408 19.9491 107.479 19.9491H109.495C109.562 19.9491 109.596 19.9848 109.596 20.0562V20.3775C109.596 20.4489 109.562 20.4846 109.495 20.4846H108.059C108.008 20.4846 107.983 20.5056 107.983 20.5476V21.6123C107.983 21.6543 108.008 21.6753 108.059 21.6753H109.274C109.35 21.6753 109.388 21.711 109.388 21.7824V22.1037C109.388 22.1751 109.35 22.2108 109.274 22.2108H108.059C108.008 22.2108 107.983 22.2318 107.983 22.2738V23.3952C107.983 23.4414 108.008 23.4645 108.059 23.4645H109.495C109.562 23.4645 109.596 23.5002 109.596 23.5716V23.8929C109.596 23.9643 109.562 24 109.495 24ZM110.512 23.0172V22.8534C110.512 22.782 110.548 22.7463 110.619 22.7463H111.022C111.094 22.7463 111.13 22.782 111.13 22.8534V22.9668C111.13 23.1432 111.167 23.2713 111.243 23.3511C111.323 23.4267 111.453 23.4645 111.634 23.4645H112.068C112.249 23.4645 112.379 23.4246 112.459 23.3448C112.539 23.2608 112.579 23.1264 112.579 22.9416V22.7967C112.579 22.6623 112.526 22.5573 112.421 22.4817C112.32 22.4019 112.194 22.3515 112.043 22.3305C111.892 22.3053 111.726 22.2717 111.545 22.2297C111.365 22.1877 111.199 22.1394 111.048 22.0848C110.896 22.0302 110.768 21.9273 110.663 21.7761C110.563 21.6249 110.512 21.4317 110.512 21.1965V20.9319C110.512 20.6253 110.598 20.3859 110.77 20.2137C110.947 20.0373 111.188 19.9491 111.495 19.9491H112.163C112.474 19.9491 112.715 20.0373 112.887 20.2137C113.064 20.3859 113.152 20.6253 113.152 20.9319V21.0705C113.152 21.1419 113.116 21.1776 113.045 21.1776H112.642C112.57 21.1776 112.534 21.1419 112.534 21.0705V20.9886C112.534 20.808 112.495 20.6799 112.415 20.6043C112.339 20.5245 112.211 20.4846 112.03 20.4846H111.634C111.453 20.4846 111.323 20.5266 111.243 20.6106C111.167 20.6904 111.13 20.829 111.13 21.0264V21.2217C111.13 21.4107 111.266 21.5388 111.539 21.606C111.661 21.6354 111.793 21.6606 111.936 21.6816C112.083 21.7026 112.23 21.7341 112.377 21.7761C112.524 21.8181 112.658 21.8748 112.78 21.9462C112.902 22.0134 113.001 22.1184 113.076 22.2612C113.152 22.3998 113.19 22.5699 113.19 22.7715V23.0172C113.19 23.3238 113.101 23.5653 112.925 23.7417C112.753 23.9139 112.513 24 112.207 24H111.501C111.195 24 110.953 23.9139 110.777 23.7417C110.6 23.5653 110.512 23.3238 110.512 23.0172ZM116.139 24H115.685C115.627 24 115.606 23.9643 115.622 23.8929L116.719 20.0562C116.74 19.9848 116.79 19.9491 116.87 19.9491H117.5C117.584 19.9491 117.634 19.9848 117.651 20.0562L118.747 23.8929C118.764 23.9643 118.741 24 118.678 24H118.231C118.193 24 118.165 23.9937 118.149 23.9811C118.136 23.9643 118.126 23.9349 118.117 23.8929L117.878 23.0739H116.492L116.252 23.8929C116.236 23.9643 116.198 24 116.139 24ZM117.172 20.5539L116.618 22.5699H117.758L117.197 20.5539H117.172ZM121.707 24H119.666C119.595 24 119.559 23.9643 119.559 23.8929V20.0562C119.559 19.9848 119.595 19.9491 119.666 19.9491H120.063C120.134 19.9491 120.17 19.9848 120.17 20.0562V23.3889C120.17 23.4309 120.195 23.4519 120.246 23.4519H121.707C121.779 23.4519 121.814 23.4897 121.814 23.5653V23.8929C121.814 23.9643 121.779 24 121.707 24ZM124.732 24H122.691C122.62 24 122.584 23.9643 122.584 23.8929V20.0562C122.584 19.9848 122.62 19.9491 122.691 19.9491H123.088C123.16 19.9491 123.195 19.9848 123.195 20.0562V23.3889C123.195 23.4309 123.22 23.4519 123.271 23.4519H124.732C124.804 23.4519 124.84 23.4897 124.84 23.5653V23.8929C124.84 23.9643 124.804 24 124.732 24ZM126.611 23.4645H127.159C127.466 23.4645 127.619 23.3091 127.619 22.9983V20.9508C127.619 20.64 127.466 20.4846 127.159 20.4846H126.611C126.309 20.4846 126.157 20.64 126.157 20.9508V22.9983C126.157 23.3091 126.309 23.4645 126.611 23.4645ZM127.254 24H126.523C126.212 24 125.971 23.9139 125.798 23.7417C125.63 23.5695 125.546 23.3301 125.546 23.0235V20.9256C125.546 20.6148 125.63 20.3754 125.798 20.2074C125.971 20.0352 126.212 19.9491 126.523 19.9491H127.254C127.564 19.9491 127.806 20.0352 127.978 20.2074C128.15 20.3754 128.236 20.6148 128.236 20.9256V23.0235C128.236 23.3301 128.15 23.5695 127.978 23.7417C127.806 23.9139 127.564 24 127.254 24ZM130.497 24H129.829C129.753 24 129.709 23.9643 129.697 23.8929L128.947 20.0562C128.938 19.9848 128.974 19.9491 129.054 19.9491H129.539C129.619 19.9491 129.661 19.9848 129.665 20.0562L130.175 23.3574H130.213L130.957 20.0436C130.965 19.9806 131.003 19.9491 131.07 19.9491H131.599C131.666 19.9491 131.706 19.9806 131.719 20.0436L132.469 23.3574H132.506L133.017 20.0625C133.021 19.9869 133.063 19.9491 133.143 19.9491H133.628C133.712 19.9491 133.747 19.9869 133.735 20.0625L132.985 23.8929C132.973 23.9643 132.931 24 132.859 24H132.191C132.12 24 132.078 23.9643 132.065 23.8929L131.353 20.7051H131.328L130.616 23.8929C130.604 23.9643 130.564 24 130.497 24ZM136.638 24H134.622C134.55 24 134.514 23.9643 134.514 23.8929V20.0562C134.514 19.9848 134.55 19.9491 134.622 19.9491H136.638C136.705 19.9491 136.738 19.9848 136.738 20.0562V20.3775C136.738 20.4489 136.705 20.4846 136.638 20.4846H135.201C135.151 20.4846 135.126 20.5056 135.126 20.5476V21.6123C135.126 21.6543 135.151 21.6753 135.201 21.6753H136.417C136.493 21.6753 136.53 21.711 136.53 21.7824V22.1037C136.53 22.1751 136.493 22.2108 136.417 22.2108H135.201C135.151 22.2108 135.126 22.2318 135.126 22.2738V23.3952C135.126 23.4414 135.151 23.4645 135.201 23.4645H136.638C136.705 23.4645 136.738 23.5002 136.738 23.5716V23.8929C136.738 23.9643 136.705 24 136.638 24ZM138.411 23.4645H139.299C139.602 23.4645 139.753 23.3091 139.753 22.9983V20.9508C139.753 20.64 139.602 20.4846 139.299 20.4846H138.411C138.365 20.4846 138.342 20.5056 138.342 20.5476V23.3952C138.342 23.4414 138.365 23.4645 138.411 23.4645ZM137.73 23.8929V20.0562C137.73 19.9848 137.766 19.9491 137.838 19.9491H139.387C139.694 19.9491 139.933 20.0352 140.106 20.2074C140.282 20.3754 140.37 20.6148 140.37 20.9256V23.0235C140.37 23.3301 140.282 23.5695 140.106 23.7417C139.933 23.9139 139.694 24 139.387 24H137.838C137.766 24 137.73 23.9643 137.73 23.8929ZM144.213 24H143.816C143.74 24 143.703 23.9643 143.703 23.8929V20.5476C143.703 20.5056 143.682 20.4846 143.64 20.4846H142.846C142.77 20.4846 142.732 20.4489 142.732 20.3775V20.0562C142.732 19.9848 142.77 19.9491 142.846 19.9491H145.183C145.259 19.9491 145.297 19.9848 145.297 20.0562V20.3775C145.297 20.4489 145.259 20.4846 145.183 20.4846H144.389C144.343 20.4846 144.32 20.5056 144.32 20.5476V23.8929C144.32 23.9643 144.284 24 144.213 24ZM147.026 23.4645H147.575C147.881 23.4645 148.034 23.3091 148.034 22.9983V20.9508C148.034 20.64 147.881 20.4846 147.575 20.4846H147.026C146.724 20.4846 146.573 20.64 146.573 20.9508V22.9983C146.573 23.3091 146.724 23.4645 147.026 23.4645ZM147.669 24H146.938C146.627 24 146.386 23.9139 146.214 23.7417C146.046 23.5695 145.962 23.3301 145.962 23.0235V20.9256C145.962 20.6148 146.046 20.3754 146.214 20.2074C146.386 20.0352 146.627 19.9491 146.938 19.9491H147.669C147.98 19.9491 148.221 20.0352 148.394 20.2074C148.566 20.3754 148.652 20.6148 148.652 20.9256V23.0235C148.652 23.3301 148.566 23.5695 148.394 23.7417C148.221 23.9139 147.98 24 147.669 24ZM152.023 20.0562V23.8929C152.023 23.9643 151.987 24 151.916 24H151.519C151.447 24 151.412 23.9643 151.412 23.8929V20.0562C151.412 19.9848 151.447 19.9491 151.519 19.9491H151.916C151.987 19.9491 152.023 19.9848 152.023 20.0562ZM153.66 24H153.27C153.198 24 153.162 23.9643 153.162 23.8929V20.0562C153.162 19.9848 153.198 19.9491 153.27 19.9491H153.622C153.69 19.9491 153.736 19.9722 153.761 20.0184L155.286 22.7589H155.311V20.0562C155.311 19.9848 155.346 19.9491 155.418 19.9491H155.808C155.88 19.9491 155.916 19.9848 155.916 20.0562V23.8929C155.916 23.9643 155.88 24 155.808 24H155.468C155.401 24 155.346 23.9664 155.304 23.8992L153.792 21.1902H153.767V23.8929C153.767 23.9643 153.732 24 153.66 24ZM158.133 24H157.736C157.661 24 157.623 23.9643 157.623 23.8929V20.5476C157.623 20.5056 157.602 20.4846 157.56 20.4846H156.766C156.691 20.4846 156.653 20.4489 156.653 20.3775V20.0562C156.653 19.9848 156.691 19.9491 156.766 19.9491H159.103C159.179 19.9491 159.217 19.9848 159.217 20.0562V20.3775C159.217 20.4489 159.179 20.4846 159.103 20.4846H158.31C158.263 20.4846 158.24 20.5056 158.24 20.5476V23.8929C158.24 23.9643 158.205 24 158.133 24ZM162.068 24H160.052C159.981 24 159.945 23.9643 159.945 23.8929V20.0562C159.945 19.9848 159.981 19.9491 160.052 19.9491H162.068C162.135 19.9491 162.169 19.9848 162.169 20.0562V20.3775C162.169 20.4489 162.135 20.4846 162.068 20.4846H160.632C160.581 20.4846 160.556 20.5056 160.556 20.5476V21.6123C160.556 21.6543 160.581 21.6753 160.632 21.6753H161.848C161.923 21.6753 161.961 21.711 161.961 21.7824V22.1037C161.961 22.1751 161.923 22.2108 161.848 22.2108H160.632C160.581 22.2108 160.556 22.2318 160.556 22.2738V23.3952C160.556 23.4414 160.581 23.4645 160.632 23.4645H162.068C162.135 23.4645 162.169 23.5002 162.169 23.5716V23.8929C162.169 23.9643 162.135 24 162.068 24ZM163.665 24H163.268C163.197 24 163.161 23.9643 163.161 23.8929V20.0562C163.161 19.9848 163.197 19.9491 163.268 19.9491H164.742C165.049 19.9491 165.288 20.0373 165.461 20.2137C165.637 20.3859 165.725 20.6253 165.725 20.9319V21.4611C165.725 21.9441 165.526 22.2486 165.127 22.3746V22.3998L165.826 23.874C165.872 23.958 165.845 24 165.744 24H165.353C165.253 24 165.188 23.9643 165.158 23.8929L164.484 22.4439H163.848C163.797 22.4439 163.772 22.4649 163.772 22.5069V23.8929C163.772 23.9643 163.736 24 163.665 24ZM163.841 21.9399H164.642C164.952 21.9399 165.108 21.7866 165.108 21.48V20.9508C165.108 20.64 164.952 20.4846 164.642 20.4846H163.841C163.795 20.4846 163.772 20.5056 163.772 20.5476V21.8769C163.772 21.9189 163.795 21.9399 163.841 21.9399ZM166.985 24H166.531C166.473 24 166.452 23.9643 166.468 23.8929L167.565 20.0562C167.586 19.9848 167.636 19.9491 167.716 19.9491H168.346C168.43 19.9491 168.48 19.9848 168.497 20.0562L169.593 23.8929C169.61 23.9643 169.587 24 169.524 24H169.077C169.039 24 169.012 23.9937 168.995 23.9811C168.982 23.9643 168.972 23.9349 168.963 23.8929L168.724 23.0739H167.338L167.098 23.8929C167.082 23.9643 167.044 24 166.985 24ZM168.018 20.5539L167.464 22.5699H168.604L168.043 20.5539H168.018ZM172.049 24H171.319C171.008 24 170.766 23.9139 170.594 23.7417C170.426 23.5695 170.342 23.3301 170.342 23.0235V20.9256C170.342 20.6148 170.426 20.3754 170.594 20.2074C170.766 20.0352 171.008 19.9491 171.319 19.9491H172.049C172.356 19.9491 172.595 20.0352 172.768 20.2074C172.94 20.3754 173.026 20.6148 173.026 20.9256V21.228C173.026 21.3036 172.988 21.3414 172.912 21.3414H172.516C172.444 21.3414 172.408 21.3036 172.408 21.228V20.9508C172.408 20.64 172.257 20.4846 171.955 20.4846H171.407C171.104 20.4846 170.953 20.64 170.953 20.9508V22.9983C170.953 23.3091 171.104 23.4645 171.407 23.4645H171.955C172.257 23.4645 172.408 23.3091 172.408 22.9983V22.7211C172.408 22.6455 172.444 22.6077 172.516 22.6077H172.912C172.988 22.6077 173.026 22.6455 173.026 22.7211V23.0235C173.026 23.3301 172.94 23.5695 172.768 23.7417C172.595 23.9139 172.356 24 172.049 24ZM175.105 24H174.708C174.633 24 174.595 23.9643 174.595 23.8929V20.5476C174.595 20.5056 174.574 20.4846 174.532 20.4846H173.738C173.662 20.4846 173.625 20.4489 173.625 20.3775V20.0562C173.625 19.9848 173.662 19.9491 173.738 19.9491H176.075C176.151 19.9491 176.189 19.9848 176.189 20.0562V20.3775C176.189 20.4489 176.151 20.4846 176.075 20.4846H175.281C175.235 20.4846 175.212 20.5056 175.212 20.5476V23.8929C175.212 23.9643 175.176 24 175.105 24ZM177.402 23.1243V23.8929C177.402 23.9643 177.368 24 177.301 24H176.873C176.801 24 176.766 23.9643 176.766 23.8929V23.1243C176.766 23.0571 176.801 23.0235 176.873 23.0235H177.301C177.368 23.0235 177.402 23.0571 177.402 23.1243ZM45.5004 33H45.0468C44.988 33 44.967 32.9643 44.9838 32.8929L46.08 29.0562C46.101 28.9848 46.1514 28.9491 46.2312 28.9491H46.8612C46.9452 28.9491 46.9956 28.9848 47.0124 29.0562L48.1086 32.8929C48.1254 32.9643 48.1023 33 48.0393 33H47.592C47.5542 33 47.5269 32.9937 47.5101 32.9811C47.4975 32.9643 47.487 32.9349 47.4786 32.8929L47.2392 32.0739H45.8532L45.6138 32.8929C45.597 32.9643 45.5592 33 45.5004 33ZM46.5336 29.5539L45.9792 31.5699H47.1195L46.5588 29.5539H46.5336ZM50.5647 33H49.8339C49.5231 33 49.2816 32.9139 49.1094 32.7417C48.9414 32.5695 48.8574 32.3301 48.8574 32.0235V29.9256C48.8574 29.6148 48.9414 29.3754 49.1094 29.2074C49.2816 29.0352 49.5231 28.9491 49.8339 28.9491H50.5647C50.8713 28.9491 51.1107 29.0352 51.2829 29.2074C51.4551 29.3754 51.5412 29.6148 51.5412 29.9256V30.228C51.5412 30.3036 51.5034 30.3414 51.4278 30.3414H51.0309C50.9595 30.3414 50.9238 30.3036 50.9238 30.228V29.9508C50.9238 29.64 50.7726 29.4846 50.4702 29.4846H49.9221C49.6197 29.4846 49.4685 29.64 49.4685 29.9508V31.9983C49.4685 32.3091 49.6197 32.4645 49.9221 32.4645H50.4702C50.7726 32.4645 50.9238 32.3091 50.9238 31.9983V31.7211C50.9238 31.6455 50.9595 31.6077 51.0309 31.6077H51.4278C51.5034 31.6077 51.5412 31.6455 51.5412 31.7211V32.0235C51.5412 32.3301 51.4551 32.5695 51.2829 32.7417C51.1107 32.9139 50.8713 33 50.5647 33ZM54.1559 33H53.4251C53.1143 33 52.8728 32.9139 52.7006 32.7417C52.5326 32.5695 52.4486 32.3301 52.4486 32.0235V29.9256C52.4486 29.6148 52.5326 29.3754 52.7006 29.2074C52.8728 29.0352 53.1143 28.9491 53.4251 28.9491H54.1559C54.4625 28.9491 54.7019 29.0352 54.8741 29.2074C55.0463 29.3754 55.1324 29.6148 55.1324 29.9256V30.228C55.1324 30.3036 55.0946 30.3414 55.019 30.3414H54.6221C54.5507 30.3414 54.515 30.3036 54.515 30.228V29.9508C54.515 29.64 54.3638 29.4846 54.0614 29.4846H53.5133C53.2109 29.4846 53.0597 29.64 53.0597 29.9508V31.9983C53.0597 32.3091 53.2109 32.4645 53.5133 32.4645H54.0614C54.3638 32.4645 54.515 32.3091 54.515 31.9983V31.7211C54.515 31.6455 54.5507 31.6077 54.6221 31.6077H55.019C55.0946 31.6077 55.1324 31.6455 55.1324 31.7211V32.0235C55.1324 32.3301 55.0463 32.5695 54.8741 32.7417C54.7019 32.9139 54.4625 33 54.1559 33ZM58.226 33H56.21C56.1386 33 56.1029 32.9643 56.1029 32.8929V29.0562C56.1029 28.9848 56.1386 28.9491 56.21 28.9491H58.226C58.2932 28.9491 58.3268 28.9848 58.3268 29.0562V29.3775C58.3268 29.4489 58.2932 29.4846 58.226 29.4846H56.7896C56.7392 29.4846 56.714 29.5056 56.714 29.5476V30.6123C56.714 30.6543 56.7392 30.6753 56.7896 30.6753H58.0055C58.0811 30.6753 58.1189 30.711 58.1189 30.7824V31.1037C58.1189 31.1751 58.0811 31.2108 58.0055 31.2108H56.7896C56.7392 31.2108 56.714 31.2318 56.714 31.2738V32.3952C56.714 32.4414 56.7392 32.4645 56.7896 32.4645H58.226C58.2932 32.4645 58.3268 32.5002 58.3268 32.5716V32.8929C58.3268 32.9643 58.2932 33 58.226 33ZM59.2432 32.0172V31.8534C59.2432 31.782 59.2789 31.7463 59.3503 31.7463H59.7535C59.8249 31.7463 59.8606 31.782 59.8606 31.8534V31.9668C59.8606 32.1432 59.8984 32.2713 59.974 32.3511C60.0538 32.4267 60.184 32.4645 60.3646 32.4645H60.7993C60.9799 32.4645 61.1101 32.4246 61.1899 32.3448C61.2697 32.2608 61.3096 32.1264 61.3096 31.9416V31.7967C61.3096 31.6623 61.2571 31.5573 61.1521 31.4817C61.0513 31.4019 60.9253 31.3515 60.7741 31.3305C60.6229 31.3053 60.457 31.2717 60.2764 31.2297C60.0958 31.1877 59.9299 31.1394 59.7787 31.0848C59.6275 31.0302 59.4994 30.9273 59.3944 30.7761C59.2936 30.6249 59.2432 30.4317 59.2432 30.1965V29.9319C59.2432 29.6253 59.3293 29.3859 59.5015 29.2137C59.6779 29.0373 59.9194 28.9491 60.226 28.9491H60.8938C61.2046 28.9491 61.4461 29.0373 61.6183 29.2137C61.7947 29.3859 61.8829 29.6253 61.8829 29.9319V30.0705C61.8829 30.1419 61.8472 30.1776 61.7758 30.1776H61.3726C61.3012 30.1776 61.2655 30.1419 61.2655 30.0705V29.9886C61.2655 29.808 61.2256 29.6799 61.1458 29.6043C61.0702 29.5245 60.9421 29.4846 60.7615 29.4846H60.3646C60.184 29.4846 60.0538 29.5266 59.974 29.6106C59.8984 29.6904 59.8606 29.829 59.8606 30.0264V30.2217C59.8606 30.4107 59.9971 30.5388 60.2701 30.606C60.3919 30.6354 60.5242 30.6606 60.667 30.6816C60.814 30.7026 60.961 30.7341 61.108 30.7761C61.255 30.8181 61.3894 30.8748 61.5112 30.9462C61.633 31.0134 61.7317 31.1184 61.8073 31.2612C61.8829 31.3998 61.9207 31.5699 61.9207 31.7715V32.0172C61.9207 32.3238 61.8325 32.5653 61.6561 32.7417C61.4839 32.9139 61.2445 33 60.9379 33H60.2323C59.9257 33 59.6842 32.9139 59.5078 32.7417C59.3314 32.5653 59.2432 32.3238 59.2432 32.0172ZM62.8837 32.0172V31.8534C62.8837 31.782 62.9194 31.7463 62.9908 31.7463H63.394C63.4654 31.7463 63.5011 31.782 63.5011 31.8534V31.9668C63.5011 32.1432 63.5389 32.2713 63.6145 32.3511C63.6943 32.4267 63.8245 32.4645 64.0051 32.4645H64.4398C64.6204 32.4645 64.7506 32.4246 64.8304 32.3448C64.9102 32.2608 64.9501 32.1264 64.9501 31.9416V31.7967C64.9501 31.6623 64.8976 31.5573 64.7926 31.4817C64.6918 31.4019 64.5658 31.3515 64.4146 31.3305C64.2634 31.3053 64.0975 31.2717 63.9169 31.2297C63.7363 31.1877 63.5704 31.1394 63.4192 31.0848C63.268 31.0302 63.1399 30.9273 63.0349 30.7761C62.9341 30.6249 62.8837 30.4317 62.8837 30.1965V29.9319C62.8837 29.6253 62.9698 29.3859 63.142 29.2137C63.3184 29.0373 63.5599 28.9491 63.8665 28.9491H64.5343C64.8451 28.9491 65.0866 29.0373 65.2588 29.2137C65.4352 29.3859 65.5234 29.6253 65.5234 29.9319V30.0705C65.5234 30.1419 65.4877 30.1776 65.4163 30.1776H65.0131C64.9417 30.1776 64.906 30.1419 64.906 30.0705V29.9886C64.906 29.808 64.8661 29.6799 64.7863 29.6043C64.7107 29.5245 64.5826 29.4846 64.402 29.4846H64.0051C63.8245 29.4846 63.6943 29.5266 63.6145 29.6106C63.5389 29.6904 63.5011 29.829 63.5011 30.0264V30.2217C63.5011 30.4107 63.6376 30.5388 63.9106 30.606C64.0324 30.6354 64.1647 30.6606 64.3075 30.6816C64.4545 30.7026 64.6015 30.7341 64.7485 30.7761C64.8955 30.8181 65.0299 30.8748 65.1517 30.9462C65.2735 31.0134 65.3722 31.1184 65.4478 31.2612C65.5234 31.3998 65.5612 31.5699 65.5612 31.7715V32.0172C65.5612 32.3238 65.473 32.5653 65.2966 32.7417C65.1244 32.9139 64.885 33 64.5784 33H63.8728C63.5662 33 63.3247 32.9139 63.1483 32.7417C62.9719 32.5653 62.8837 32.3238 62.8837 32.0172ZM67.0848 32.1243V32.6157C67.0848 32.7165 67.0449 32.8425 66.9651 32.9937L66.6312 33.6048C66.6144 33.6426 66.5829 33.6615 66.5367 33.6615C66.4779 33.6615 66.4485 33.6279 66.4485 33.5607V32.1243C66.4485 32.0571 66.4842 32.0235 66.5556 32.0235H66.984C67.0512 32.0235 67.0848 32.0571 67.0848 32.1243ZM70.7357 32.4645H71.2838C71.5904 32.4645 71.7437 32.3091 71.7437 31.9983V29.9508C71.7437 29.64 71.5904 29.4846 71.2838 29.4846H70.7357C70.4333 29.4846 70.2821 29.64 70.2821 29.9508V31.9983C70.2821 32.3091 70.4333 32.4645 70.7357 32.4645ZM71.3783 33H70.6475C70.3367 33 70.0952 32.9139 69.923 32.7417C69.755 32.5695 69.671 32.3301 69.671 32.0235V29.9256C69.671 29.6148 69.755 29.3754 69.923 29.2074C70.0952 29.0352 70.3367 28.9491 70.6475 28.9491H71.3783C71.6891 28.9491 71.9306 29.0352 72.1028 29.2074C72.275 29.3754 72.3611 29.6148 72.3611 29.9256V32.0235C72.3611 32.3301 72.275 32.5695 72.1028 32.7417C71.9306 32.9139 71.6891 33 71.3783 33ZM73.9031 33H73.5062C73.4348 33 73.3991 32.9643 73.3991 32.8929V29.0562C73.3991 28.9848 73.4348 28.9491 73.5062 28.9491H74.9804C75.287 28.9491 75.5264 29.0373 75.6986 29.2137C75.875 29.3859 75.9632 29.6253 75.9632 29.9319V30.4611C75.9632 30.9441 75.7637 31.2486 75.3647 31.3746V31.3998L76.064 32.874C76.1102 32.958 76.0829 33 75.9821 33H75.5915C75.4907 33 75.4256 32.9643 75.3962 32.8929L74.7221 31.4439H74.0858C74.0354 31.4439 74.0102 31.4649 74.0102 31.5069V32.8929C74.0102 32.9643 73.9745 33 73.9031 33ZM74.0795 30.9399H74.8796C75.1904 30.9399 75.3458 30.7866 75.3458 30.48V29.9508C75.3458 29.64 75.1904 29.4846 74.8796 29.4846H74.0795C74.0333 29.4846 74.0102 29.5056 74.0102 29.5476V30.8769C74.0102 30.9189 74.0333 30.9399 74.0795 30.9399ZM79.3732 32.4645H80.2615C80.5639 32.4645 80.7151 32.3091 80.7151 31.9983V29.9508C80.7151 29.64 80.5639 29.4846 80.2615 29.4846H79.3732C79.327 29.4846 79.3039 29.5056 79.3039 29.5476V32.3952C79.3039 32.4414 79.327 32.4645 79.3732 32.4645ZM78.6928 32.8929V29.0562C78.6928 28.9848 78.7285 28.9491 78.7999 28.9491H80.3497C80.6563 28.9491 80.8957 29.0352 81.0679 29.2074C81.2443 29.3754 81.3325 29.6148 81.3325 29.9256V32.0235C81.3325 32.3301 81.2443 32.5695 81.0679 32.7417C80.8957 32.9139 80.6563 33 80.3497 33H78.7999C78.7285 33 78.6928 32.9643 78.6928 32.8929ZM84.4994 33H82.4834C82.412 33 82.3763 32.9643 82.3763 32.8929V29.0562C82.3763 28.9848 82.412 28.9491 82.4834 28.9491H84.4994C84.5666 28.9491 84.6002 28.9848 84.6002 29.0562V29.3775C84.6002 29.4489 84.5666 29.4846 84.4994 29.4846H83.063C83.0126 29.4846 82.9874 29.5056 82.9874 29.5476V30.6123C82.9874 30.6543 83.0126 30.6753 83.063 30.6753H84.2789C84.3545 30.6753 84.3923 30.711 84.3923 30.7824V31.1037C84.3923 31.1751 84.3545 31.2108 84.2789 31.2108H83.063C83.0126 31.2108 82.9874 31.2318 82.9874 31.2738V32.3952C82.9874 32.4414 83.0126 32.4645 83.063 32.4645H84.4994C84.5666 32.4645 84.6002 32.5002 84.6002 32.5716V32.8929C84.6002 32.9643 84.5666 33 84.4994 33ZM85.8128 33H85.3592C85.3004 33 85.2794 32.9643 85.2962 32.8929L86.3924 29.0562C86.4134 28.9848 86.4638 28.9491 86.5436 28.9491H87.1736C87.2576 28.9491 87.308 28.9848 87.3248 29.0562L88.421 32.8929C88.4378 32.9643 88.4147 33 88.3517 33H87.9044C87.8666 33 87.8393 32.9937 87.8225 32.9811C87.8099 32.9643 87.7994 32.9349 87.791 32.8929L87.5516 32.0739H86.1656L85.9262 32.8929C85.9094 32.9643 85.8716 33 85.8128 33ZM86.846 29.5539L86.2916 31.5699H87.4319L86.8712 29.5539H86.846ZM90.877 33H90.1462C89.8354 33 89.5939 32.9139 89.4217 32.7417C89.2537 32.5695 89.1697 32.3301 89.1697 32.0235V29.9256C89.1697 29.6148 89.2537 29.3754 89.4217 29.2074C89.5939 29.0352 89.8354 28.9491 90.1462 28.9491H90.877C91.1836 28.9491 91.423 29.0352 91.5952 29.2074C91.7674 29.3754 91.8535 29.6148 91.8535 29.9256V30.228C91.8535 30.3036 91.8157 30.3414 91.7401 30.3414H91.3432C91.2718 30.3414 91.2361 30.3036 91.2361 30.228V29.9508C91.2361 29.64 91.0849 29.4846 90.7825 29.4846H90.2344C89.932 29.4846 89.7808 29.64 89.7808 29.9508V31.9983C89.7808 32.3091 89.932 32.4645 90.2344 32.4645H90.7825C91.0849 32.4645 91.2361 32.3091 91.2361 31.9983V31.7211C91.2361 31.6455 91.2718 31.6077 91.3432 31.6077H91.7401C91.8157 31.6077 91.8535 31.6455 91.8535 31.7211V32.0235C91.8535 32.3301 91.7674 32.5695 91.5952 32.7417C91.423 32.9139 91.1836 33 90.877 33ZM93.9328 33H93.5359C93.4603 33 93.4225 32.9643 93.4225 32.8929V29.5476C93.4225 29.5056 93.4015 29.4846 93.3595 29.4846H92.5657C92.4901 29.4846 92.4523 29.4489 92.4523 29.3775V29.0562C92.4523 28.9848 92.4901 28.9491 92.5657 28.9491H94.903C94.9786 28.9491 95.0164 28.9848 95.0164 29.0562V29.3775C95.0164 29.4489 94.9786 29.4846 94.903 29.4846H94.1092C94.063 29.4846 94.0399 29.5056 94.0399 29.5476V32.8929C94.0399 32.9643 94.0042 33 93.9328 33ZM96.3872 29.0562V32.8929C96.3872 32.9643 96.3515 33 96.2801 33H95.8832C95.8118 33 95.7761 32.9643 95.7761 32.8929V29.0562C95.7761 28.9848 95.8118 28.9491 95.8832 28.9491H96.2801C96.3515 28.9491 96.3872 28.9848 96.3872 29.0562ZM99.0013 33H98.3776C98.3062 33 98.2621 32.9643 98.2453 32.8929L97.1995 29.0688C97.1743 28.989 97.2058 28.9491 97.294 28.9491H97.7413C97.8085 28.9491 97.8484 28.9848 97.861 29.0562L98.6737 32.3448H98.6989L99.5053 29.0562C99.5221 28.9848 99.5641 28.9491 99.6313 28.9491H100.072C100.16 28.9491 100.194 28.989 100.173 29.0688L99.121 32.8929C99.1042 32.9643 99.0643 33 99.0013 33ZM101.167 33H100.713C100.654 33 100.633 32.9643 100.65 32.8929L101.746 29.0562C101.767 28.9848 101.818 28.9491 101.897 28.9491H102.527C102.611 28.9491 102.662 28.9848 102.679 29.0562L103.775 32.8929C103.792 32.9643 103.768 33 103.705 33H103.258C103.22 33 103.193 32.9937 103.176 32.9811C103.164 32.9643 103.153 32.9349 103.145 32.8929L102.905 32.0739H101.519L101.28 32.8929C101.263 32.9643 101.225 33 101.167 33ZM102.2 29.5539L101.645 31.5699H102.786L102.225 29.5539H102.2ZM105.695 33H105.298C105.223 33 105.185 32.9643 105.185 32.8929V29.5476C105.185 29.5056 105.164 29.4846 105.122 29.4846H104.328C104.253 29.4846 104.215 29.4489 104.215 29.3775V29.0562C104.215 28.9848 104.253 28.9491 104.328 28.9491H106.666C106.741 28.9491 106.779 28.9848 106.779 29.0562V29.3775C106.779 29.4489 106.741 29.4846 106.666 29.4846H105.872C105.826 29.4846 105.802 29.5056 105.802 29.5476V32.8929C105.802 32.9643 105.767 33 105.695 33ZM109.63 33H107.614C107.543 33 107.507 32.9643 107.507 32.8929V29.0562C107.507 28.9848 107.543 28.9491 107.614 28.9491H109.63C109.697 28.9491 109.731 28.9848 109.731 29.0562V29.3775C109.731 29.4489 109.697 29.4846 109.63 29.4846H108.194C108.143 29.4846 108.118 29.5056 108.118 29.5476V30.6123C108.118 30.6543 108.143 30.6753 108.194 30.6753H109.41C109.485 30.6753 109.523 30.711 109.523 30.7824V31.1037C109.523 31.1751 109.485 31.2108 109.41 31.2108H108.194C108.143 31.2108 108.118 31.2318 108.118 31.2738V32.3952C108.118 32.4414 108.143 32.4645 108.194 32.4645H109.63C109.697 32.4645 109.731 32.5002 109.731 32.5716V32.8929C109.731 32.9643 109.697 33 109.63 33ZM113.522 33H113.125C113.05 33 113.012 32.9643 113.012 32.8929V29.5476C113.012 29.5056 112.991 29.4846 112.949 29.4846H112.155C112.079 29.4846 112.042 29.4489 112.042 29.3775V29.0562C112.042 28.9848 112.079 28.9491 112.155 28.9491H114.492C114.568 28.9491 114.606 28.9848 114.606 29.0562V29.3775C114.606 29.4489 114.568 29.4846 114.492 29.4846H113.698C113.652 29.4846 113.629 29.5056 113.629 29.5476V32.8929C113.629 32.9643 113.593 33 113.522 33ZM115.838 33H115.441C115.37 33 115.334 32.9643 115.334 32.8929V29.0562C115.334 28.9848 115.37 28.9491 115.441 28.9491H115.838C115.909 28.9491 115.945 28.9848 115.945 29.0562V30.6312C115.945 30.6732 115.97 30.6942 116.021 30.6942H117.35C117.392 30.6942 117.413 30.6732 117.413 30.6312V29.0562C117.413 28.9848 117.449 28.9491 117.52 28.9491H117.923C117.995 28.9491 118.03 28.9848 118.03 29.0562V32.8929C118.03 32.9643 117.995 33 117.923 33H117.52C117.449 33 117.413 32.9643 117.413 32.8929V31.299C117.413 31.257 117.392 31.236 117.35 31.236H116.021C115.97 31.236 115.945 31.257 115.945 31.299V32.8929C115.945 32.9643 115.909 33 115.838 33ZM119.783 29.0562V32.8929C119.783 32.9643 119.747 33 119.676 33H119.279C119.208 33 119.172 32.9643 119.172 32.8929V29.0562C119.172 28.9848 119.208 28.9491 119.279 28.9491H119.676C119.747 28.9491 119.783 28.9848 119.783 29.0562ZM120.847 32.0172V31.8534C120.847 31.782 120.883 31.7463 120.954 31.7463H121.358C121.429 31.7463 121.465 31.782 121.465 31.8534V31.9668C121.465 32.1432 121.503 32.2713 121.578 32.3511C121.658 32.4267 121.788 32.4645 121.969 32.4645H122.403C122.584 32.4645 122.714 32.4246 122.794 32.3448C122.874 32.2608 122.914 32.1264 122.914 31.9416V31.7967C122.914 31.6623 122.861 31.5573 122.756 31.4817C122.655 31.4019 122.529 31.3515 122.378 31.3305C122.227 31.3053 122.061 31.2717 121.881 31.2297C121.7 31.1877 121.534 31.1394 121.383 31.0848C121.232 31.0302 121.104 30.9273 120.999 30.7761C120.898 30.6249 120.847 30.4317 120.847 30.1965V29.9319C120.847 29.6253 120.933 29.3859 121.106 29.2137C121.282 29.0373 121.524 28.9491 121.83 28.9491H122.498C122.809 28.9491 123.05 29.0373 123.222 29.2137C123.399 29.3859 123.487 29.6253 123.487 29.9319V30.0705C123.487 30.1419 123.451 30.1776 123.38 30.1776H122.977C122.905 30.1776 122.87 30.1419 122.87 30.0705V29.9886C122.87 29.808 122.83 29.6799 122.75 29.6043C122.674 29.5245 122.546 29.4846 122.366 29.4846H121.969C121.788 29.4846 121.658 29.5266 121.578 29.6106C121.503 29.6904 121.465 29.829 121.465 30.0264V30.2217C121.465 30.4107 121.601 30.5388 121.874 30.606C121.996 30.6354 122.128 30.6606 122.271 30.6816C122.418 30.7026 122.565 30.7341 122.712 30.7761C122.859 30.8181 122.994 30.8748 123.115 30.9462C123.237 31.0134 123.336 31.1184 123.411 31.2612C123.487 31.3998 123.525 31.5699 123.525 31.7715V32.0172C123.525 32.3238 123.437 32.5653 123.26 32.7417C123.088 32.9139 122.849 33 122.542 33H121.836C121.53 33 121.288 32.9139 121.112 32.7417C120.936 32.5653 120.847 32.3238 120.847 32.0172ZM126.934 32.4645H127.822C128.125 32.4645 128.276 32.3091 128.276 31.9983V29.9508C128.276 29.64 128.125 29.4846 127.822 29.4846H126.934C126.888 29.4846 126.865 29.5056 126.865 29.5476V32.3952C126.865 32.4414 126.888 32.4645 126.934 32.4645ZM126.254 32.8929V29.0562C126.254 28.9848 126.289 28.9491 126.361 28.9491H127.911C128.217 28.9491 128.457 29.0352 128.629 29.2074C128.805 29.3754 128.893 29.6148 128.893 29.9256V32.0235C128.893 32.3301 128.805 32.5695 128.629 32.7417C128.457 32.9139 128.217 33 127.911 33H126.361C126.289 33 126.254 32.9643 126.254 32.8929ZM132.06 33H130.044C129.973 33 129.937 32.9643 129.937 32.8929V29.0562C129.937 28.9848 129.973 28.9491 130.044 28.9491H132.06C132.127 28.9491 132.161 28.9848 132.161 29.0562V29.3775C132.161 29.4489 132.127 29.4846 132.06 29.4846H130.624C130.573 29.4846 130.548 29.5056 130.548 29.5476V30.6123C130.548 30.6543 130.573 30.6753 130.624 30.6753H131.84C131.915 30.6753 131.953 30.711 131.953 30.7824V31.1037C131.953 31.1751 131.915 31.2108 131.84 31.2108H130.624C130.573 31.2108 130.548 31.2318 130.548 31.2738V32.3952C130.548 32.4414 130.573 32.4645 130.624 32.4645H132.06C132.127 32.4645 132.161 32.5002 132.161 32.5716V32.8929C132.161 32.9643 132.127 33 132.06 33ZM134.627 33H134.004C133.932 33 133.888 32.9643 133.871 32.8929L132.825 29.0688C132.8 28.989 132.832 28.9491 132.92 28.9491H133.367C133.434 28.9491 133.474 28.9848 133.487 29.0562L134.3 32.3448H134.325L135.131 29.0562C135.148 28.9848 135.19 28.9491 135.257 28.9491H135.698C135.786 28.9491 135.82 28.989 135.799 29.0688L134.747 32.8929C134.73 32.9643 134.69 33 134.627 33ZM137.215 29.0562V32.8929C137.215 32.9643 137.179 33 137.108 33H136.711C136.639 33 136.604 32.9643 136.604 32.8929V29.0562C136.604 28.9848 136.639 28.9491 136.711 28.9491H137.108C137.179 28.9491 137.215 28.9848 137.215 29.0562ZM139.999 33H139.268C138.957 33 138.716 32.9139 138.544 32.7417C138.376 32.5695 138.292 32.3301 138.292 32.0235V29.9256C138.292 29.6148 138.376 29.3754 138.544 29.2074C138.716 29.0352 138.957 28.9491 139.268 28.9491H139.999C140.305 28.9491 140.545 29.0352 140.717 29.2074C140.889 29.3754 140.975 29.6148 140.975 29.9256V30.228C140.975 30.3036 140.938 30.3414 140.862 30.3414H140.465C140.394 30.3414 140.358 30.3036 140.358 30.228V29.9508C140.358 29.64 140.207 29.4846 139.904 29.4846H139.356C139.054 29.4846 138.903 29.64 138.903 29.9508V31.9983C138.903 32.3091 139.054 32.4645 139.356 32.4645H139.904C140.207 32.4645 140.358 32.3091 140.358 31.9983V31.7211C140.358 31.6455 140.394 31.6077 140.465 31.6077H140.862C140.938 31.6077 140.975 31.6455 140.975 31.7211V32.0235C140.975 32.3301 140.889 32.5695 140.717 32.7417C140.545 32.9139 140.305 33 139.999 33ZM144.069 33H142.053C141.981 33 141.946 32.9643 141.946 32.8929V29.0562C141.946 28.9848 141.981 28.9491 142.053 28.9491H144.069C144.136 28.9491 144.17 28.9848 144.17 29.0562V29.3775C144.17 29.4489 144.136 29.4846 144.069 29.4846H142.632C142.582 29.4846 142.557 29.5056 142.557 29.5476V30.6123C142.557 30.6543 142.582 30.6753 142.632 30.6753H143.848C143.924 30.6753 143.962 30.711 143.962 30.7824V31.1037C143.962 31.1751 143.924 31.2108 143.848 31.2108H142.632C142.582 31.2108 142.557 31.2318 142.557 31.2738V32.3952C142.557 32.4414 142.582 32.4645 142.632 32.4645H144.069C144.136 32.4645 144.17 32.5002 144.17 32.5716V32.8929C144.17 32.9643 144.136 33 144.069 33ZM145.647 32.1243V32.8929C145.647 32.9643 145.613 33 145.546 33H145.118C145.046 33 145.011 32.9643 145.011 32.8929V32.1243C145.011 32.0571 145.046 32.0235 145.118 32.0235H145.546C145.613 32.0235 145.647 32.0571 145.647 32.1243Z"/></g></svg>