<svg width="13" height="12" viewBox="0 0 13 12" fill="none" xmlns="http://www.w3.org/2000/svg">
<path d="M1.5 8.12502C1.40054 8.12502 1.30516 8.16452 1.23483 8.23485C1.16451 8.30518 1.125 8.40056 1.125 8.50002C1.125 8.59947 1.16451 8.69485 1.23483 8.76518C1.30516 8.83551 1.40054 8.87502 1.5 8.87502V8.12502ZM11.5 3.50002L11.765 3.76502C11.8352 3.6947 11.8747 3.59939 11.8747 3.50002C11.8747 3.40064 11.8352 3.30533 11.765 3.23502L11.5 3.50002ZM10.235 4.23502C10.1688 4.3061 10.1327 4.40013 10.1344 4.49728C10.1361 4.59443 10.1755 4.68712 10.2442 4.75583C10.3129 4.82453 10.4056 4.86389 10.5027 4.8656C10.5999 4.86732 10.6939 4.83126 10.765 4.76502L10.235 4.23502ZM10.765 2.23502C10.7307 2.19817 10.6893 2.16862 10.6433 2.14813C10.5973 2.12763 10.5476 2.11661 10.4973 2.11572C10.4469 2.11483 10.3969 2.12409 10.3502 2.14295C10.3035 2.16181 10.2611 2.18989 10.2255 2.2255C10.1899 2.26111 10.1618 2.30352 10.1429 2.35022C10.1241 2.39691 10.1148 2.44693 10.1157 2.49728C10.1166 2.54763 10.1276 2.59729 10.1481 2.64328C10.1686 2.68928 10.1982 2.73068 10.235 2.76502L10.765 2.23502ZM1.5 8.87502H3.3015V8.12502H1.5V8.87502ZM6.195 7.23652L7.4475 5.14952L6.8045 4.76352L5.5525 6.85052L6.195 7.23652ZM9.6985 3.87502H11.5V3.12502H9.6985V3.87502ZM11.235 3.23502L10.235 4.23502L10.765 4.76502L11.765 3.76502L11.235 3.23502ZM11.765 3.23502L10.765 2.23502L10.235 2.76502L11.235 3.76502L11.765 3.23502ZM7.4475 5.14952C7.6645 4.78752 7.8145 4.53952 7.9505 4.35502C8.082 4.17752 8.1845 4.08352 8.295 4.02102L7.9255 3.36852C7.692 3.50052 7.5155 3.68202 7.348 3.90852C7.185 4.12852 7.014 4.41402 6.8045 4.76352L7.4475 5.14952ZM9.6985 3.12502C9.291 3.12502 8.9585 3.12502 8.686 3.15102C8.405 3.17852 8.159 3.23602 7.9255 3.36852L8.295 4.02102C8.405 3.95852 8.5385 3.91902 8.7585 3.89752C8.9865 3.87552 9.2765 3.87502 9.6985 3.87502V3.12502ZM3.3015 8.87502C3.709 8.87502 4.0415 8.87502 4.314 8.84902C4.595 8.82152 4.841 8.76402 5.0745 8.63152L4.705 7.97902C4.595 8.04152 4.4615 8.08102 4.2415 8.10252C4.0135 8.12452 3.7235 8.12502 3.3015 8.12502V8.87502ZM5.5525 6.85052C5.335 7.21252 5.1855 7.46052 5.0495 7.64502C4.918 7.82252 4.8155 7.91652 4.705 7.97902L5.0745 8.63152C5.3075 8.49952 5.4845 8.31802 5.652 8.09152C5.815 7.87152 5.9855 7.58602 6.195 7.23652L5.5525 6.85052ZM1.5 3.12502C1.40054 3.12502 1.30516 3.16452 1.23483 3.23485C1.16451 3.30518 1.125 3.40056 1.125 3.50002C1.125 3.59947 1.16451 3.69485 1.23483 3.76518C1.30516 3.83551 1.40054 3.87502 1.5 3.87502V3.12502ZM11.5 8.50002L11.765 8.76502C11.8352 8.6947 11.8747 8.59939 11.8747 8.50002C11.8747 8.40064 11.8352 8.30533 11.765 8.23502L11.5 8.50002ZM10.765 7.23502C10.7307 7.19817 10.6893 7.16862 10.6433 7.14813C10.5973 7.12763 10.5476 7.11661 10.4973 7.11572C10.4469 7.11483 10.3969 7.12409 10.3502 7.14295C10.3035 7.16181 10.2611 7.18989 10.2255 7.2255C10.1899 7.26111 10.1618 7.30352 10.1429 7.35022C10.1241 7.39691 10.1148 7.44693 10.1157 7.49728C10.1166 7.54763 10.1276 7.59729 10.1481 7.64328C10.1686 7.68928 10.1982 7.73068 10.235 7.76502L10.765 7.23502ZM10.235 9.23502C10.1982 9.26935 10.1686 9.31075 10.1481 9.35675C10.1276 9.40275 10.1166 9.4524 10.1157 9.50275C10.1148 9.55311 10.1241 9.60312 10.1429 9.64981C10.1618 9.69651 10.1899 9.73893 10.2255 9.77453C10.2611 9.81014 10.3035 9.83822 10.3502 9.85708C10.3969 9.87594 10.4469 9.8852 10.4973 9.88431C10.5476 9.88342 10.5973 9.8724 10.6433 9.85191C10.6893 9.83141 10.7307 9.80186 10.765 9.76502L10.235 9.23502ZM7.7215 7.30752C7.69726 7.26327 7.66434 7.22436 7.62471 7.19314C7.58507 7.16191 7.53955 7.139 7.49086 7.12578C7.44216 7.11257 7.3913 7.10931 7.34132 7.11621C7.29134 7.12311 7.24327 7.14003 7.19998 7.16595C7.15669 7.19187 7.11907 7.22626 7.08939 7.26706C7.0597 7.30786 7.03856 7.35423 7.02722 7.40339C7.01587 7.45255 7.01457 7.5035 7.02338 7.55318C7.03219 7.60286 7.05094 7.65025 7.0785 7.69252L7.7215 7.30752ZM5.2785 4.69302C5.33019 4.77723 5.41304 4.83764 5.50902 4.86111C5.60501 4.88458 5.70638 4.86921 5.7911 4.81835C5.87582 4.76749 5.93704 4.68525 5.96146 4.5895C5.98588 4.49375 5.97152 4.39224 5.9215 4.30702L5.2785 4.69302ZM1.5 3.87502H3.834V3.12502H1.5V3.87502ZM9.166 8.87502H11.5V8.12502H9.166V8.87502ZM11.765 8.23502L10.765 7.23502L10.235 7.76502L11.235 8.76502L11.765 8.23502ZM11.235 8.23502L10.235 9.23502L10.765 9.76502L11.765 8.76502L11.235 8.23502ZM9.166 8.12502C8.8435 8.12502 8.7325 8.12352 8.6345 8.10452L8.491 8.84052C8.677 8.87652 8.8735 8.87502 9.166 8.87502V8.12502ZM7.0785 7.69252C7.2285 7.94352 7.3285 8.11302 7.4555 8.25402L8.013 7.75252C7.946 7.67802 7.888 7.58402 7.7215 7.30752L7.0785 7.69252ZM8.6345 8.10452C8.3946 8.05781 8.17643 7.93424 8.013 7.75252L7.4555 8.25402C7.72782 8.55677 8.0913 8.76265 8.491 8.84052L8.6345 8.10452ZM3.834 3.87502C4.1565 3.87502 4.2675 3.87652 4.3655 3.89552L4.509 3.15952C4.323 3.12352 4.1265 3.12502 3.834 3.12502V3.87502ZM5.9215 4.30702C5.7715 4.05602 5.6715 3.88702 5.5445 3.74602L4.987 4.24752C5.054 4.32202 5.112 4.41652 5.2785 4.69302L5.9215 4.30702ZM4.3655 3.89552C4.6055 3.94252 4.8235 4.06552 4.987 4.24752L5.5445 3.74602C5.27218 3.44326 4.9087 3.23738 4.509 3.15952L4.3655 3.89552Z" fill="#9EA6CC"/>
</svg>
